<svg width="154" height="27" viewBox="0 0 154 27" fill="none" xmlns="http://www.w3.org/2000/svg">
<path d="M148.525 20.192C147.357 20.192 146.317 19.992 145.405 19.592C144.493 19.192 143.773 18.648 143.245 17.96C142.717 17.256 142.421 16.472 142.357 15.608H146.413C146.461 16.072 146.677 16.448 147.061 16.736C147.445 17.024 147.917 17.168 148.477 17.168C148.989 17.168 149.381 17.072 149.653 16.88C149.941 16.672 150.085 16.408 150.085 16.088C150.085 15.704 149.885 15.424 149.485 15.248C149.085 15.056 148.437 14.848 147.541 14.624C146.581 14.4 145.781 14.168 145.141 13.928C144.501 13.672 143.949 13.28 143.485 12.752C143.021 12.208 142.789 11.48 142.789 10.568C142.789 9.80002 142.997 9.10402 143.413 8.48002C143.845 7.84002 144.469 7.33602 145.285 6.96802C146.117 6.60002 147.101 6.41602 148.237 6.41602C149.917 6.41602 151.237 6.83202 152.197 7.66402C153.173 8.49602 153.733 9.60002 153.877 10.976H150.085C150.021 10.512 149.813 10.144 149.461 9.87202C149.125 9.60002 148.677 9.46402 148.117 9.46402C147.637 9.46402 147.269 9.56002 147.013 9.75202C146.757 9.92802 146.629 10.176 146.629 10.496C146.629 10.88 146.829 11.168 147.229 11.36C147.645 11.552 148.285 11.744 149.149 11.936C150.141 12.192 150.949 12.448 151.573 12.704C152.197 12.944 152.741 13.344 153.205 13.904C153.685 14.448 153.933 15.184 153.949 16.112C153.949 16.896 153.725 17.6 153.277 18.224C152.845 18.832 152.213 19.312 151.381 19.664C150.565 20.016 149.613 20.192 148.525 20.192Z" fill="url(#paint0_linear_630_97)"/>
<path d="M136.916 8.83999C137.396 8.10399 137.996 7.52799 138.716 7.11199C139.436 6.67999 140.237 6.46399 141.117 6.46399V10.808H139.988C138.964 10.808 138.196 11.032 137.684 11.48C137.172 11.912 136.916 12.68 136.916 13.784V20H132.812V6.60799H136.916V8.83999Z" fill="url(#paint1_linear_630_97)"/>
<path d="M123.627 20.192C122.315 20.192 121.131 19.912 120.075 19.352C119.035 18.792 118.211 17.992 117.603 16.952C117.011 15.912 116.715 14.696 116.715 13.304C116.715 11.928 117.019 10.72 117.627 9.68002C118.235 8.62402 119.067 7.81602 120.123 7.25602C121.179 6.69602 122.363 6.41602 123.675 6.41602C124.987 6.41602 126.171 6.69602 127.227 7.25602C128.283 7.81602 129.115 8.62402 129.723 9.68002C130.331 10.72 130.635 11.928 130.635 13.304C130.635 14.68 130.323 15.896 129.699 16.952C129.091 17.992 128.251 18.792 127.179 19.352C126.123 19.912 124.939 20.192 123.627 20.192ZM123.627 16.64C124.411 16.64 125.075 16.352 125.619 15.776C126.179 15.2 126.459 14.376 126.459 13.304C126.459 12.232 126.187 11.408 125.643 10.832C125.115 10.256 124.459 9.96802 123.675 9.96802C122.875 9.96802 122.211 10.256 121.683 10.832C121.155 11.392 120.891 12.216 120.891 13.304C120.891 14.376 121.147 15.2 121.659 15.776C122.187 16.352 122.843 16.64 123.627 16.64Z" fill="url(#paint2_linear_630_97)"/>
<path d="M115.245 16.52V20H113.157C111.669 20 110.509 19.64 109.677 18.92C108.845 18.184 108.429 16.992 108.429 15.344V10.016H106.797V6.60799H108.429V3.34399H112.533V6.60799H115.221V10.016H112.533V15.392C112.533 15.792 112.629 16.08 112.821 16.256C113.013 16.432 113.333 16.52 113.781 16.52H115.245Z" fill="url(#paint3_linear_630_97)"/>
<path d="M92.4336 13.304C92.4336 11.912 92.7136 10.696 93.2736 9.65602C93.8496 8.61602 94.6416 7.81602 95.6496 7.25602C96.6736 6.69602 97.8416 6.41602 99.1536 6.41602C100.834 6.41602 102.234 6.85602 103.354 7.73602C104.49 8.61602 105.234 9.85602 105.586 11.456H101.218C100.85 10.432 100.138 9.92002 99.0816 9.92002C98.3296 9.92002 97.7296 10.216 97.2816 10.808C96.8336 11.384 96.6096 12.216 96.6096 13.304C96.6096 14.392 96.8336 15.232 97.2816 15.824C97.7296 16.4 98.3296 16.688 99.0816 16.688C100.138 16.688 100.85 16.176 101.218 15.152H105.586C105.234 16.72 104.49 17.952 103.354 18.848C102.218 19.744 100.818 20.192 99.1536 20.192C97.8416 20.192 96.6736 19.912 95.6496 19.352C94.6416 18.792 93.8496 17.992 93.2736 16.952C92.7136 15.912 92.4336 14.696 92.4336 13.304Z" fill="url(#paint4_linear_630_97)"/>
<path d="M76.1445 13.28C76.1445 11.904 76.4005 10.696 76.9125 9.65602C77.4405 8.61602 78.1525 7.81602 79.0485 7.25602C79.9445 6.69602 80.9445 6.41602 82.0485 6.41602C82.9925 6.41602 83.8165 6.60802 84.5205 6.99202C85.2405 7.37602 85.7925 7.88002 86.1765 8.50402V6.60802H90.2805V20H86.1765V18.104C85.7765 18.728 85.2165 19.232 84.4965 19.616C83.7925 20 82.9685 20.192 82.0245 20.192C80.9365 20.192 79.9445 19.912 79.0485 19.352C78.1525 18.776 77.4405 17.968 76.9125 16.928C76.4005 15.872 76.1445 14.656 76.1445 13.28ZM86.1765 13.304C86.1765 12.28 85.8885 11.472 85.3125 10.88C84.7525 10.288 84.0645 9.99202 83.2485 9.99202C82.4325 9.99202 81.7365 10.288 81.1605 10.88C80.6005 11.456 80.3205 12.256 80.3205 13.28C80.3205 14.304 80.6005 15.12 81.1605 15.728C81.7365 16.32 82.4325 16.616 83.2485 16.616C84.0645 16.616 84.7525 16.32 85.3125 15.728C85.8885 15.136 86.1765 14.328 86.1765 13.304Z" fill="url(#paint5_linear_630_97)"/>
<path d="M74.8039 3.15198V6.43998H67.9399V9.99198H73.0759V13.184H67.9399V20H63.8359V3.15198H74.8039Z" fill="url(#paint6_linear_630_97)"/>
<path d="M53.7351 5.216C53.0151 5.216 52.4231 5.008 51.9591 4.592C51.5111 4.16 51.2871 3.632 51.2871 3.008C51.2871 2.368 51.5111 1.84 51.9591 1.424C52.4231 0.992001 53.0151 0.776001 53.7351 0.776001C54.4391 0.776001 55.0151 0.992001 55.4631 1.424C55.9271 1.84 56.1591 2.368 56.1591 3.008C56.1591 3.632 55.9271 4.16 55.4631 4.592C55.0151 5.008 54.4391 5.216 53.7351 5.216ZM55.7751 6.608V20H51.6711V6.608H55.7751Z" fill="url(#paint7_linear_630_97)"/>
<path d="M43.6595 6.46399C45.2275 6.46399 46.4755 6.97599 47.4035 7.99999C48.3475 9.00799 48.8195 10.4 48.8195 12.176V20H44.7395V12.728C44.7395 11.832 44.5075 11.136 44.0435 10.64C43.5795 10.144 42.9555 9.89599 42.1715 9.89599C41.3875 9.89599 40.7635 10.144 40.2995 10.64C39.8355 11.136 39.6035 11.832 39.6035 12.728V20H35.4995V6.60799H39.6035V8.38399C40.0195 7.79199 40.5795 7.32799 41.2835 6.99199C41.9875 6.63999 42.7795 6.46399 43.6595 6.46399Z" fill="url(#paint8_linear_630_97)"/>
<path d="M24.2985 6.41602C25.2425 6.41602 26.0665 6.60802 26.7705 6.99202C27.4905 7.37602 28.0425 7.88002 28.4265 8.50402V6.60802H32.5305V19.976C32.5305 21.208 32.2825 22.32 31.7865 23.312C31.3065 24.32 30.5625 25.12 29.5545 25.712C28.5625 26.304 27.3225 26.6 25.8345 26.6C23.8505 26.6 22.2425 26.128 21.0105 25.184C19.7785 24.256 19.0745 22.992 18.8985 21.392H22.9545C23.0825 21.904 23.3865 22.304 23.8665 22.592C24.3465 22.896 24.9385 23.048 25.6425 23.048C26.4905 23.048 27.1625 22.8 27.6585 22.304C28.1705 21.824 28.4265 21.048 28.4265 19.976V18.08C28.0265 18.704 27.4745 19.216 26.7705 19.616C26.0665 20 25.2425 20.192 24.2985 20.192C23.1945 20.192 22.1945 19.912 21.2985 19.352C20.4025 18.776 19.6905 17.968 19.1625 16.928C18.6505 15.872 18.3945 14.656 18.3945 13.28C18.3945 11.904 18.6505 10.696 19.1625 9.65602C19.6905 8.61602 20.4025 7.81602 21.2985 7.25602C22.1945 6.69602 23.1945 6.41602 24.2985 6.41602ZM28.4265 13.304C28.4265 12.28 28.1385 11.472 27.5625 10.88C27.0025 10.288 26.3145 9.99202 25.4985 9.99202C24.6825 9.99202 23.9865 10.288 23.4105 10.88C22.8505 11.456 22.5705 12.256 22.5705 13.28C22.5705 14.304 22.8505 15.12 23.4105 15.728C23.9865 16.32 24.6825 16.616 25.4985 16.616C26.3145 16.616 27.0025 16.32 27.5625 15.728C28.1385 15.136 28.4265 14.328 28.4265 13.304Z" fill="url(#paint9_linear_630_97)"/>
<path d="M12.0031 17.024H5.71513L4.70713 20H0.411133L6.50713 3.15198H11.2591L17.3551 20H13.0111L12.0031 17.024ZM10.9471 13.856L8.85913 7.68798L6.79513 13.856H10.9471Z" fill="url(#paint10_linear_630_97)"/>
<defs>
<linearGradient id="paint0_linear_630_97" x1="-4" y1="12" x2="159" y2="12" gradientUnits="userSpaceOnUse">
<stop stop-color="#7748CD"/>
<stop offset="1" stop-color="#F64F54"/>
</linearGradient>
<linearGradient id="paint1_linear_630_97" x1="-4" y1="12" x2="159" y2="12" gradientUnits="userSpaceOnUse">
<stop stop-color="#7748CD"/>
<stop offset="1" stop-color="#F64F54"/>
</linearGradient>
<linearGradient id="paint2_linear_630_97" x1="-4" y1="12" x2="159" y2="12" gradientUnits="userSpaceOnUse">
<stop stop-color="#7748CD"/>
<stop offset="1" stop-color="#F64F54"/>
</linearGradient>
<linearGradient id="paint3_linear_630_97" x1="-4" y1="12" x2="159" y2="12" gradientUnits="userSpaceOnUse">
<stop stop-color="#7748CD"/>
<stop offset="1" stop-color="#F64F54"/>
</linearGradient>
<linearGradient id="paint4_linear_630_97" x1="-4" y1="12" x2="159" y2="12" gradientUnits="userSpaceOnUse">
<stop stop-color="#7748CD"/>
<stop offset="1" stop-color="#F64F54"/>
</linearGradient>
<linearGradient id="paint5_linear_630_97" x1="-4" y1="12" x2="159" y2="12" gradientUnits="userSpaceOnUse">
<stop stop-color="#7748CD"/>
<stop offset="1" stop-color="#F64F54"/>
</linearGradient>
<linearGradient id="paint6_linear_630_97" x1="-4" y1="12" x2="159" y2="12" gradientUnits="userSpaceOnUse">
<stop stop-color="#7748CD"/>
<stop offset="1" stop-color="#F64F54"/>
</linearGradient>
<linearGradient id="paint7_linear_630_97" x1="-4" y1="12" x2="159" y2="12" gradientUnits="userSpaceOnUse">
<stop stop-color="#7748CD"/>
<stop offset="1" stop-color="#F64F54"/>
</linearGradient>
<linearGradient id="paint8_linear_630_97" x1="-4" y1="12" x2="159" y2="12" gradientUnits="userSpaceOnUse">
<stop stop-color="#7748CD"/>
<stop offset="1" stop-color="#F64F54"/>
</linearGradient>
<linearGradient id="paint9_linear_630_97" x1="-4" y1="12" x2="159" y2="12" gradientUnits="userSpaceOnUse">
<stop stop-color="#7748CD"/>
<stop offset="1" stop-color="#F64F54"/>
</linearGradient>
<linearGradient id="paint10_linear_630_97" x1="-4" y1="12" x2="159" y2="12" gradientUnits="userSpaceOnUse">
<stop stop-color="#7748CD"/>
<stop offset="1" stop-color="#F64F54"/>
</linearGradient>
</defs>
</svg>
