<svg width="29" height="40" viewBox="0 0 29 40" fill="none" xmlns="http://www.w3.org/2000/svg">
<circle cx="9.33" cy="31.33" r="8.33" fill="#FC8A59"/>
<path d="M16 5.79308C16 4.89895 16.5935 4.11345 17.4536 3.86917L25.0096 1.7232C26.2865 1.36054 27.556 2.31967 27.556 3.64711V12.2069C27.556 13.101 26.9625 13.8866 26.1024 14.1308L18.5464 16.2768C17.2695 16.6395 16 15.6803 16 14.3529V5.79308Z" stroke="#191919" stroke-width="1.5" stroke-linecap="round" stroke-linejoin="round"/>
<path d="M1 10.7931C1 9.89895 1.59348 9.11345 2.45359 8.86917L10.0096 6.7232C11.2865 6.36054 12.556 7.31967 12.556 8.64711V17.2069C12.556 18.101 11.9625 18.8866 11.1024 19.1308L3.5464 21.2768C2.26946 21.6395 1 20.6803 1 19.3529V10.7931Z" stroke="#191919" stroke-width="1.5" stroke-linecap="round" stroke-linejoin="round"/>
<g filter="url(#filter0_b_465_44)">
<path d="M27.5556 30.5982V22.0357C27.5556 20.7096 26.2884 19.7507 25.0122 20.111L15.278 22.859L10.9536 24.0872C10.0935 24.3314 9.5 25.1169 9.5 26.0111V34.5738C9.5 35.9004 10.7679 36.8594 12.0444 36.4983L26.0999 32.5227C26.961 32.2791 27.5556 31.4931 27.5556 30.5982Z" fill="white" fill-opacity="0.03"/>
<path d="M27.5556 30.5982V22.0357C27.5556 20.7096 26.2884 19.7507 25.0122 20.111L15.278 22.859L10.9536 24.0872C10.0935 24.3314 9.5 25.1169 9.5 26.0111V34.5738C9.5 35.9004 10.7679 36.8594 12.0444 36.4983L26.0999 32.5227C26.961 32.2791 27.5556 31.4931 27.5556 30.5982Z" stroke="#191919" stroke-width="1.5" stroke-linecap="round" stroke-linejoin="round"/>
</g>
<defs>
<filter id="filter0_b_465_44" x="5.35" y="15.8841" width="26.3557" height="24.8414" filterUnits="userSpaceOnUse" color-interpolation-filters="sRGB">
<feFlood flood-opacity="0" result="BackgroundImageFix"/>
<feGaussianBlur in="BackgroundImageFix" stdDeviation="1.7"/>
<feComposite in2="SourceAlpha" operator="in" result="effect1_backgroundBlur_465_44"/>
<feBlend mode="normal" in="SourceGraphic" in2="effect1_backgroundBlur_465_44" result="shape"/>
</filter>
</defs>
</svg>
