<svg width="90" height="92" viewBox="0 0 90 92" fill="none" xmlns="http://www.w3.org/2000/svg">
<circle cx="21" cy="71" r="21" fill="#FFD100"/>
<path d="M75.863 31.8109H77.9178C81.7602 31.8109 83.6794 31.8109 85.1096 32.6377C86.0466 33.1792 86.8247 33.958 87.3657 34.8958C88.1918 36.3272 88.1918 38.2481 88.1918 42.094C88.1918 45.9399 88.1918 47.8608 87.3657 49.2922C86.8247 50.2301 86.0466 51.0089 85.1096 51.5504C83.6794 52.3771 81.7602 52.3771 77.9178 52.3771H75.863M18.3288 31.8109H16.274C12.4315 31.8109 10.5123 31.8109 9.08219 32.6377C8.14516 33.1792 7.36704 33.958 6.82603 34.8958C6 36.3272 6 38.2481 6 42.094C6 45.9399 6 47.8608 6.82603 49.2922C7.36704 50.2301 8.14516 51.0089 9.08219 51.5504C10.5123 52.3771 12.4315 52.3771 16.274 52.3771H18.3288M34.7671 33.8675V37.9808M59.4246 33.8675V37.9808M38.8767 52.3771C38.8767 52.3771 41.6178 54.4338 47.0959 54.4338C52.574 54.4338 55.3151 52.3771 55.3151 52.3771M42.9863 17.4146H51.2055C62.8274 17.4146 68.6424 17.4145 72.2507 21.0301C75.863 24.6415 75.863 30.4618 75.863 42.094C75.863 53.7263 75.863 59.5465 72.2507 63.1579C68.6424 66.7735 62.8274 66.7735 51.2055 66.7735H47.0959C47.0959 66.7735 45.0411 75 30.6575 75C30.6575 75 34.7671 70.8497 34.7671 66.7036C28.3849 66.5102 24.5753 65.7986 21.9411 63.1579C18.3288 59.5465 18.3288 53.7263 18.3288 42.094C18.3288 30.4618 18.3288 24.6415 21.9411 21.0301C25.5493 17.4145 31.3644 17.4146 42.9863 17.4146Z" stroke="#191919" stroke-width="3.5" stroke-linecap="round" stroke-linejoin="round"/>
<path d="M43.975 9.29574L42.737 10.5326L43.975 9.29573C43.147 8.46697 42.6815 7.34259 42.6815 6.16987C42.6815 4.99714 43.147 3.87276 43.975 3.044C44.803 2.21529 45.9256 1.75 47.0959 1.75C48.2662 1.75 49.3888 2.21529 50.2168 3.044C51.0448 3.87277 51.5103 4.99714 51.5103 6.16987C51.5103 7.34259 51.0448 8.46697 50.2168 9.29573C49.3888 10.1244 48.2662 10.5897 47.0959 10.5897C45.9256 10.5897 44.803 10.1244 43.975 9.29574Z" stroke="#191919" stroke-width="3.5" stroke-linecap="round" stroke-linejoin="round"/>
<path d="M47.0959 10.2739V17.4657" stroke="#191919" stroke-width="3.5"/>
</svg>
