<svg width="45" height="37" viewBox="0 0 45 37" fill="none" xmlns="http://www.w3.org/2000/svg">
<circle cx="12.936" cy="27.9057" r="8.33" fill="#6A90F9"/>
<g filter="url(#filter0_b_465_88)">
<path d="M9.21204 17.8485C14.9696 22.4545 25.9091 25.3334 27.6363 25.3334C28.7878 23.99 30.4 18.8849 29.9394 18.4243C29.3636 17.8485 24.1818 13.8183 23.0303 13.2425C22.1091 12.7819 14.5858 11.3233 12.6666 10.3638C9.02017 9.78802 3.31293 13.1293 9.21204 17.8485Z" fill="white" fill-opacity="0.03"/>
</g>
<path d="M44.7935 12.5535C44.7026 12.8285 44.5575 13.0828 44.3668 13.3016C44.1761 13.5204 43.9435 13.6994 43.6826 13.8282L39.1906 16.0612L28.9067 26.2769C28.8153 26.3651 28.7025 26.4284 28.5792 26.4606C28.4559 26.4928 28.3264 26.4929 28.2031 26.4608L16.3528 23.5179C16.262 23.4961 16.1764 23.4567 16.1009 23.402L5.77635 16.0832L1.22879 13.8227C0.967742 13.6931 0.734947 13.5137 0.543696 13.2948C0.352446 13.0758 0.206486 12.8216 0.114154 12.5466C0.0218206 12.2716 -0.0150772 11.9812 0.00556716 11.6921C0.0262116 11.4029 0.103994 11.1206 0.234472 10.8613L4.83388 1.72346C4.96432 1.46414 5.1449 1.23289 5.36531 1.0429C5.58572 0.85292 5.84165 0.707927 6.11847 0.616206C6.3953 0.524485 6.68761 0.487831 6.97869 0.508339C7.26978 0.528847 7.55395 0.606113 7.81498 0.735727L12.1589 2.89328L22.2502 0.0275786C22.3834 -0.00919287 22.5242 -0.00919287 22.6575 0.0275786L32.7488 2.89328L37.0927 0.735727C37.3537 0.606113 37.6379 0.528847 37.929 0.508339C38.2201 0.487831 38.5124 0.524485 38.7892 0.616206C39.066 0.707927 39.3219 0.85292 39.5424 1.0429C39.7628 1.23289 39.9434 1.46414 40.0738 1.72346L44.6732 10.8632C44.8046 11.1221 44.8829 11.4044 44.9036 11.6936C44.9242 11.9828 44.8868 12.2733 44.7935 12.548V12.5535ZM1.88981 12.5076L5.8282 14.4628L11.0905 4.00793L7.15395 2.0527C7.06702 2.00933 6.97235 1.9834 6.87533 1.97639C6.77832 1.96937 6.68086 1.98141 6.58853 2.01181C6.49619 2.04222 6.41079 2.09039 6.3372 2.15358C6.26361 2.21677 6.20328 2.29375 6.15963 2.3801L1.56023 11.5198C1.51657 11.6062 1.49047 11.7002 1.48341 11.7966C1.47634 11.893 1.48846 11.9898 1.51907 12.0815C1.54967 12.1732 1.59817 12.2581 1.66178 12.3312C1.72539 12.4043 1.80288 12.4642 1.88981 12.5076ZM34.6745 18.4542L28.4197 13.4769C24.9887 16.5596 20.4985 17.0655 16.8175 14.7295C16.5362 14.5523 16.2987 14.3146 16.1223 14.034C15.946 13.7533 15.8354 13.4369 15.7988 13.1081C15.7622 12.7792 15.8004 12.4464 15.9107 12.1343C16.0211 11.8221 16.2006 11.5386 16.4361 11.3046L24.898 3.15079C25.0368 3.01689 25.2229 2.94228 25.4164 2.94294H27.5347L22.4538 1.5009L12.6014 4.29671L7.10581 15.2169L16.8453 22.1273L28.1512 24.936L34.6745 18.4542ZM37.8444 15.3052L32.3655 4.41442H25.7164L17.4785 12.3531C17.4018 12.4294 17.3435 12.522 17.3079 12.624C17.2723 12.7259 17.2604 12.8345 17.273 12.9416C17.2848 13.0532 17.3218 13.1608 17.381 13.2563C17.4403 13.3518 17.5205 13.4329 17.6156 13.4934C20.1986 15.1323 24.2443 15.5977 27.8531 11.9852C27.982 11.8564 28.1543 11.7795 28.3369 11.7693C28.5194 11.7591 28.6993 11.8163 28.8419 11.93L35.7318 17.4113L37.8444 15.3052ZM43.3456 11.5198L38.748 2.3801C38.7044 2.29375 38.6441 2.21677 38.5705 2.15358C38.4969 2.09039 38.4115 2.04222 38.3191 2.01181C38.2268 1.98141 38.1293 1.96937 38.0323 1.97639C37.9353 1.9834 37.8406 2.00933 37.7537 2.0527L33.8172 4.00793L39.0795 14.4628L43.0178 12.5076C43.1048 12.4642 43.1823 12.4043 43.2459 12.3312C43.3095 12.2581 43.358 12.1732 43.3886 12.0815C43.4192 11.9898 43.4313 11.893 43.4243 11.7966C43.4172 11.7002 43.3911 11.6062 43.3474 11.5198H43.3456Z" fill="black"/>
<defs>
<filter id="filter0_b_465_88" x="3.26479" y="6.89926" width="30.1552" height="21.8342" filterUnits="userSpaceOnUse" color-interpolation-filters="sRGB">
<feFlood flood-opacity="0" result="BackgroundImageFix"/>
<feGaussianBlur in="BackgroundImageFix" stdDeviation="1.7"/>
<feComposite in2="SourceAlpha" operator="in" result="effect1_backgroundBlur_465_88"/>
<feBlend mode="normal" in="SourceGraphic" in2="effect1_backgroundBlur_465_88" result="shape"/>
</filter>
</defs>
</svg>
