<svg width="84" height="89" viewBox="0 0 84 89" fill="none" xmlns="http://www.w3.org/2000/svg">
<circle cx="21" cy="68" r="21" fill="#FFD100"/>
<path fill-rule="evenodd" clip-rule="evenodd" d="M46.9826 0C26.5798 0 10 16.7659 10 37.5C10 58.2341 26.5798 75 46.9826 75C67.3854 75 83.9652 58.2341 83.9652 37.5C83.9652 16.7659 67.3854 0 46.9826 0ZM42.8115 4.51916C44.1545 4.34342 45.5451 4.22064 46.9826 4.22064C48.4201 4.22064 49.8107 4.34342 51.1538 4.51916L52.4603 4.69012L52.707 5.98445C52.9736 7.38307 54.2183 14.0492 55.2258 21.528L55.504 23.5931H38.4612L38.7394 21.528C39.7469 14.0492 40.9916 7.38307 41.2582 5.98445L41.505 4.69012L42.8115 4.51916ZM34.077 6.90115L37.2827 5.50198L36.5917 8.93079C35.7188 13.2631 34.9943 17.6248 34.4197 22.0081L34.2119 23.5931H16.9974L18.5561 20.867C22.1122 14.6472 27.5531 9.74863 34.077 6.90115ZM57.3735 8.93079L56.6826 5.50198L59.8882 6.90115C66.4122 9.74863 71.8531 14.6472 75.4092 20.867L76.9678 23.5931H59.7533L59.5455 22.0081C58.9709 17.6248 58.2465 13.2631 57.3735 8.93079ZM15.1938 29.1871L15.5427 27.8138H33.7511L33.6035 29.7725C33.4079 32.368 33.2827 34.9786 33.2827 37.5C33.2827 40.0213 33.4079 42.6312 33.6072 45.2248L33.7579 47.1862H15.5448L15.1945 45.8155C14.5172 43.1654 14.1172 40.3906 14.1172 37.5C14.1172 34.6078 14.5215 31.8336 15.1938 29.1871ZM37.8304 29.4701L37.9814 27.8138H55.9838L56.1349 29.4701C56.3935 32.3051 56.5654 35.0712 56.5654 37.5C56.5654 39.9288 56.3935 42.6949 56.1349 45.5299L55.9838 47.1862H37.9814L37.8304 45.5299C37.5717 42.6949 37.3998 39.9288 37.3998 37.5C37.3998 35.0712 37.5717 32.3051 37.8304 29.4701ZM60.3581 29.7752L60.2074 27.8138H78.4166L78.7669 29.1845C79.4437 31.8328 79.8481 34.6077 79.8481 37.5C79.8481 40.3906 79.448 43.1654 78.7708 45.8155L78.4204 47.1862H60.2142L60.3617 45.2275C60.5573 42.632 60.6825 40.0214 60.6825 37.5C60.6825 34.9787 60.5573 32.3688 60.3581 29.7752ZM18.5561 54.133L16.9974 51.4069H34.2132L34.4199 52.9934C35.1424 58.5387 36.0344 63.3157 36.5914 66.0677L37.286 69.4995L34.077 68.0988C27.5531 65.2514 22.1122 60.3528 18.5561 54.133ZM38.7397 53.4743L38.4584 51.4069H55.5075L55.2254 53.4749C54.5163 58.6744 53.6769 63.8547 52.7079 69.0108L52.4639 70.3094L51.1538 70.4808C49.8107 70.6566 48.4201 70.7794 46.9826 70.7794C45.5451 70.7794 44.1545 70.6566 42.8115 70.4808L41.5018 70.3095L41.2574 69.0114C40.2867 63.8552 39.4472 58.6744 38.7397 53.4743ZM59.5453 52.9934L59.752 51.4069H76.9678L75.4092 54.133C71.8531 60.3528 66.4122 65.2514 59.8882 68.0988L56.6792 69.4995L57.3738 66.0677C57.9308 63.3157 58.8228 58.5387 59.5453 52.9934Z" fill="#191919"/>
</svg>
