<svg width="16" height="13" viewBox="0 0 16 13" fill="none" xmlns="http://www.w3.org/2000/svg">
<path fill-rule="evenodd" clip-rule="evenodd" d="M0.000244141 1.59998C0.000244141 0.716334 0.716578 0 1.60022 0H14.4C15.2837 0 16 0.716334 16 1.59998V11.1998C16 12.0835 15.2837 12.7998 14.4 12.7998H1.60022C0.716578 12.7998 0.000244141 12.0835 0.000244141 11.1998V1.59998ZM14.4 1.59998H1.60022V11.1998H14.4V1.59998Z" fill="white"/>
<path fill-rule="evenodd" clip-rule="evenodd" d="M0.117488 1.58266C0.347875 1.20566 0.840259 1.08681 1.21726 1.31719L8 5.4622L14.7827 1.31719C15.1597 1.08681 15.6521 1.20566 15.8825 1.58266C16.1129 1.95965 15.994 2.45204 15.6171 2.68243L8 7.33729L0.382949 2.68243C0.00595101 2.45204 -0.1129 1.95965 0.117488 1.58266Z" fill="white"/>
</svg>
