<svg width="28" height="29" viewBox="0 0 28 29" fill="none" xmlns="http://www.w3.org/2000/svg">
<path fill-rule="evenodd" clip-rule="evenodd" d="M11.1813 0.651123C6.39927 1.58758 2.26111 5.20218 0.734271 9.77651C-1.28746 15.8331 0.962365 22.3299 6.29387 25.8307C8.81775 27.488 11.4061 28.1653 14.6514 28.0176C16.8661 27.9169 18.5651 27.4435 20.4994 26.3882C26.0542 23.3574 28.8559 16.956 27.3173 10.8113C26.6335 8.08105 24.5957 4.99091 22.3677 3.3058C20.9725 2.25052 18.5159 1.09262 16.923 0.739422C15.5816 0.441929 12.4919 0.394502 11.1813 0.651123ZM13.8683 5.37343C13.0069 5.67989 12.1443 6.5196 11.6634 7.5197C11.3591 8.1528 11.2675 8.71467 11.2044 10.337L11.1256 12.3634H9.59188H8.05796V14.1742V15.9851H9.61314H11.1683V20.3828V24.7806H13.1555H15.1427V20.3828V15.9851H16.5173H17.8917L17.9831 15.4246C18.0334 15.1164 18.1537 14.4036 18.2503 13.8407C18.5216 12.2598 18.6244 12.3634 16.7842 12.3634H15.1427V10.8497C15.1427 9.7703 15.2185 9.22774 15.4069 8.95922C15.7207 8.51221 16.6432 8.22661 17.7778 8.2254L18.5986 8.22437V6.78243V5.34066L17.6914 5.23184C16.2287 5.05645 14.5885 5.11715 13.8683 5.37343Z" fill="#242628"/>
</svg>
