<svg width="134" height="61" viewBox="0 0 134 61" fill="none" xmlns="http://www.w3.org/2000/svg">
<path fill-rule="evenodd" clip-rule="evenodd" d="M128.222 0H122.415V5.80649H128.222V11.5848H134V5.80649V0H128.222Z" fill="#E92E32"/>
<path d="M7.24402 11.5847H0V23.5923V30.8082V42.8158H7.24402V30.8082H21.3938V42.8158H28.6378V30.8082V23.5923V11.5847H21.3938V23.5923H7.24402V11.5847Z" fill="#242628"/>
<path d="M46.6777 43.3231C55.5565 43.3231 60.7992 38.2495 60.7992 29.0606V11.5847H53.6679V28.7787C53.6679 34.7261 51.1312 37.1501 46.7059 37.1501C42.3368 37.1501 39.7437 34.6979 39.7437 28.7787V11.5847H32.5278V29.0606C32.5278 38.2495 37.7988 43.3231 46.6777 43.3231Z" fill="#242628"/>
<path d="M87.7456 35.8536C85.9134 36.8402 84.0813 37.1784 82.1364 37.1784C76.1608 37.1784 72.0172 33.035 72.0172 27.2002C72.0172 21.281 76.1608 17.2221 82.2209 17.2221C85.3779 17.2221 88.0274 18.3214 90.2823 20.7455L94.905 16.461C91.889 12.9377 87.3227 11.0774 81.8546 11.0774C71.9046 11.0774 64.6887 17.8141 64.6887 27.2284C64.6887 36.6429 71.9046 43.3513 81.7136 43.3513C86.1671 43.3513 90.9025 41.9702 94.3413 39.3769V26.7211H87.7456V35.8536Z" fill="#242628"/>
<path d="M106.011 37.0092V29.7934H122.331V24.156H106.011V17.3912H122.415V11.5847H98.823V42.8158H123.007V37.0092H106.011Z" fill="#242628"/>
<path d="M1.32494 52.0046H0.394775V60.8271H1.32494V52.0046Z" fill="#242628"/>
<path d="M9.10445 60.7989H10.0346V52.7939H13.1352V52.0046H6.00391V52.7939H9.10445V60.7989Z" fill="#242628"/>
<path d="M27.5953 60.8835C29.8502 60.8835 30.8932 59.7842 30.8932 58.4876C30.8932 55.2743 25.4813 56.74 25.4813 54.3161C25.4813 53.4423 26.186 52.7094 27.8208 52.7094C28.6101 52.7094 29.4839 52.9348 30.2449 53.4423L30.5549 52.7094C29.8502 52.2301 28.8074 51.9202 27.8208 51.9202C25.5941 51.9202 24.5793 53.0476 24.5793 54.3443C24.5793 57.6138 29.9912 56.1199 29.9912 58.544C29.9912 59.4178 29.2865 60.0943 27.6235 60.0943C26.4679 60.0943 25.3403 59.6434 24.7203 59.0231L24.3538 59.728C24.974 60.4044 26.2705 60.8835 27.5953 60.8835Z" fill="#242628"/>
<path d="M39.9127 60.0661C37.7987 60.0661 36.192 58.5158 36.192 56.4019C36.192 54.2879 37.7705 52.7376 39.9127 52.7376C42.0267 52.7376 43.6051 54.2879 43.6051 56.4019C43.6051 58.5158 42.0267 60.0661 39.9127 60.0661ZM39.9127 60.8835C42.5623 60.8835 44.5353 58.9951 44.5353 56.4019C44.5353 53.8086 42.5623 51.9202 39.9127 51.9202C37.235 51.9202 35.29 53.8368 35.29 56.4019C35.29 58.9669 37.2632 60.8835 39.9127 60.8835Z" fill="#242628"/>
<path d="M49.5806 60.7989H55.4434V60.0096H50.5108V52.0046H49.5806V60.7989Z" fill="#242628"/>
<path d="M63.4771 60.8834C65.7321 60.8834 67.085 59.5869 67.085 57.05V52.0046H66.1832V57.0218C66.1832 59.1076 65.1966 60.066 63.4771 60.066C61.7577 60.066 60.7713 59.1076 60.7713 57.0218V52.0046H59.8411V57.05C59.8411 59.5869 61.2222 60.8834 63.4771 60.8834Z" fill="#242628"/>
<path d="M74.2726 60.7989H75.2028V52.7939H78.3033V52.0046H71.2002V52.7939H74.2726V60.7989Z" fill="#242628"/>
<path d="M84.138 52.0046H83.2078V60.8271H84.138V52.0046Z" fill="#242628"/>
<path d="M94.0597 60.0661C91.9457 60.0661 90.339 58.5158 90.339 56.4019C90.339 54.2879 91.9175 52.7376 94.0597 52.7376C96.1736 52.7376 97.7521 54.2879 97.7521 56.4019C97.7521 58.5158 96.1736 60.0661 94.0597 60.0661ZM94.0597 60.8835C96.7093 60.8835 98.6823 58.9951 98.6823 56.4019C98.6823 53.8086 96.7093 51.9202 94.0597 51.9202C91.382 51.9202 89.437 53.8368 89.437 56.4019C89.437 58.9669 91.4102 60.8835 94.0597 60.8835Z" fill="#242628"/>
<path d="M110.154 52.0046V59.1358L104.489 52.0046H103.7V60.7989H104.63V53.6677L110.295 60.7989H111.085V52.0046H110.154Z" fill="#242628"/>
<path d="M119.174 60.8835C121.429 60.8835 122.472 59.7842 122.472 58.4876C122.472 55.2743 117.06 56.74 117.06 54.3161C117.06 53.4423 117.765 52.7094 119.4 52.7094C120.189 52.7094 121.063 52.9348 121.824 53.4423L122.134 52.7094C121.429 52.2301 120.386 51.9202 119.4 51.9202C117.173 51.9202 116.158 53.0476 116.158 54.3443C116.158 57.6138 121.57 56.1199 121.57 58.544C121.57 59.4178 120.865 60.0943 119.203 60.0943C118.047 60.0943 116.919 59.6434 116.299 59.0231L115.933 59.728C116.553 60.4044 117.849 60.8835 119.174 60.8835Z" fill="#242628"/>
</svg>
