<svg width="116" height="39" viewBox="0 0 116 39" fill="none" xmlns="http://www.w3.org/2000/svg">
<path d="M101.088 0.945278L49.0596 25.7179L49.1744 25.9591L101.203 1.18652L101.088 0.945278Z" fill="#404453"/>
<path d="M101.043 1.00529L94.0298 12.9738L94.2603 13.1088L101.274 1.14038L101.043 1.00529Z" fill="#404453"/>
<path d="M113.539 9.08622L94.1191 12.9125L94.1708 13.1746L113.591 9.34836L113.539 9.08622Z" fill="#404453"/>
<path d="M113.486 9.12136L91.1655 26.3723L91.3289 26.5837L113.649 9.33276L113.486 9.12136Z" fill="#404453"/>
<path d="M94.1118 12.932L49.0566 25.6825L49.1294 25.9396L94.1846 13.1891L94.1118 12.932Z" fill="#404453"/>
<path d="M49.1102 25.6717L49.106 25.9388L91.2511 26.6139L91.2554 26.3467L49.1102 25.6717Z" fill="#404453"/>
<path d="M94.0132 13.02L91.1387 26.4762L91.4 26.532L94.2745 13.0758L94.0132 13.02Z" fill="#404453"/>
<path d="M101.235 0.954107L101.088 1.17737L113.498 9.33521L113.644 9.11195L101.235 0.954107Z" fill="#404453"/>
<path d="M113.556 11.3334C114.724 11.3334 115.671 10.3864 115.671 9.21817C115.671 8.04994 114.724 7.10291 113.556 7.10291C112.388 7.10291 111.441 8.04994 111.441 9.21817C111.441 10.3864 112.388 11.3334 113.556 11.3334Z" fill="#FDB813"/>
<path d="M94.1401 16.0092C95.7756 16.0092 97.1014 14.6833 97.1014 13.0478C97.1014 11.4123 95.7756 10.0864 94.1401 10.0864C92.5046 10.0864 91.1787 11.4123 91.1787 13.0478C91.1787 14.6833 92.5046 16.0092 94.1401 16.0092Z" fill="#7FBB42"/>
<path d="M49.096 27.6099C50.0921 27.6099 50.8996 26.8024 50.8996 25.8063C50.8996 24.8103 50.0921 24.0028 49.096 24.0028C48.1 24.0028 47.2925 24.8103 47.2925 25.8063C47.2925 26.8024 48.1 27.6099 49.096 27.6099Z" fill="#F05125"/>
<path d="M101.154 2.13753C101.744 2.13753 102.222 1.65902 102.222 1.06876C102.222 0.478501 101.744 0 101.154 0C100.563 0 100.085 0.478501 100.085 1.06876C100.085 1.65902 100.563 2.13753 101.154 2.13753Z" fill="#32A0DA"/>
<path d="M4.6981 16.6772H0V34.9575H4.6981V16.6772Z" fill="#23439C"/>
<path d="M21.1079 23.1344V34.9576H16.4098V23.1344C16.4098 21.1305 15.2965 20.841 14.6285 20.841C13.9828 20.841 12.8918 21.1305 12.8918 23.1344V34.9576H8.17139V22.934C8.17139 20.8856 8.79483 19.2379 9.99719 18.0355C11.2218 16.8109 12.825 16.2097 14.8957 16.2097C16.8996 16.2097 18.4582 16.8109 19.5047 17.9687C20.5735 19.1265 21.1079 20.8856 21.1079 23.1344Z" fill="#23439C"/>
<path d="M37.1393 23.1342V34.9574H32.4412V23.1342C32.4412 21.1303 31.3279 20.8408 30.6599 20.8408C30.0142 20.8408 28.9232 21.1303 28.9232 23.1342V34.9574H24.2251V22.9338C24.2251 20.8854 24.8485 19.2377 26.0509 18.0131C27.2533 16.8107 28.9009 16.1873 30.9494 16.1873C32.9533 16.1873 34.5119 16.7884 35.5584 17.9463C36.6049 19.1264 37.1393 20.8854 37.1393 23.1342Z" fill="#23439C"/>
<path d="M74.0116 16.6772L68.4229 34.9575H64.3259L58.7817 16.6772H63.3462L66.4189 27.4985L69.692 16.6772H74.0116Z" fill="#23439C"/>
<path d="M80.2235 16.6772H75.5254V34.9575H80.2235V16.6772Z" fill="#23439C"/>
<path d="M110.973 21.4865C110.572 21.9096 110.349 22.4217 110.349 23.0006C110.349 23.4905 110.55 24.0471 110.928 24.7374L111.373 25.4944C112.108 26.7858 112.487 28.0327 112.487 29.2351C112.487 30.9941 111.886 32.4191 110.639 33.6437C109.392 34.8683 107.922 35.4473 106.119 35.4473C105.384 35.4473 104.627 35.2914 103.892 35.0019V30.6156C104.226 30.7492 104.538 30.7937 104.827 30.7937C105.451 30.7937 105.985 30.6156 106.43 30.237C106.876 29.8585 107.121 29.3464 107.121 28.7452C107.121 28.478 107.009 28.0104 106.252 26.63C105.451 25.2049 105.028 23.7799 105.028 22.3549C105.028 20.6627 105.607 19.2377 106.831 18.0131C108.034 16.7884 109.436 16.1873 111.106 16.1873C111.707 16.1873 112.331 16.2763 112.91 16.4544V20.8854C112.754 20.8631 112.598 20.8408 112.464 20.8408C111.886 20.8408 111.373 21.0635 110.973 21.4865Z" fill="#23439C"/>
<path d="M49.0959 16.1873C43.7744 16.1873 39.4771 20.5068 39.4771 25.8061C39.4771 31.1277 43.7966 35.425 49.0959 35.425C54.4175 35.425 58.7148 31.1054 58.7148 25.8061C58.7371 20.4846 54.4175 16.1873 49.0959 16.1873ZM49.0959 30.7714C46.3572 30.7714 44.1306 28.5448 44.1306 25.8061C44.1306 23.0674 46.3572 20.8408 49.0959 20.8408C51.8346 20.8408 54.0612 23.0674 54.0612 25.8061C54.0612 28.5448 51.8346 30.7714 49.0959 30.7714Z" fill="#23439C"/>
<path d="M101.911 24.1364C102.378 24.1364 102.757 23.7576 102.757 23.2903C102.757 22.823 102.378 22.4442 101.911 22.4442C101.443 22.4442 101.064 22.823 101.064 23.2903C101.064 23.7576 101.443 24.1364 101.911 24.1364Z" fill="#23439C"/>
<path d="M96.411 36.6053C96.6324 36.6053 96.8118 36.4258 96.8118 36.2045C96.8118 35.9831 96.6324 35.8037 96.411 35.8037C96.1897 35.8037 96.0103 35.9831 96.0103 36.2045C96.0103 36.4258 96.1897 36.6053 96.411 36.6053Z" fill="#23439C"/>
<path d="M91.2452 30.3887C93.3949 30.3887 95.1375 28.6461 95.1375 26.4965C95.1375 24.3469 93.3949 22.6042 91.2452 22.6042C89.0956 22.6042 87.353 24.3469 87.353 26.4965C87.353 28.6461 89.0956 30.3887 91.2452 30.3887Z" fill="#32B5FF"/>
<path d="M102.445 34.1784L99.6399 31.3729L99.818 31.0389C101.844 27.3205 101.176 22.6224 98.1703 19.6387C94.4074 15.8758 88.3065 15.8758 84.5659 19.6387C80.8029 23.3794 80.8029 29.5025 84.5659 33.2432C87.5718 36.2491 92.2476 36.9171 95.966 34.8909L96.3 34.7127L99.1055 37.5182C99.5508 37.9636 100.13 38.2085 100.775 38.2085C101.399 38.2085 102 37.9636 102.445 37.5182C103.358 36.5831 103.358 35.0913 102.445 34.1784ZM95.298 30.3486C94.207 31.4397 92.782 31.974 91.357 31.974C89.9319 31.974 88.5069 31.4397 87.4159 30.3486C85.2338 28.1666 85.2338 24.6486 87.4159 22.4665C89.598 20.2844 93.116 20.2844 95.298 22.4665C96.3445 23.513 96.9234 24.9157 96.9234 26.4076C96.9457 27.8994 96.3668 29.3021 95.298 30.3486Z" fill="#23439C"/>
</svg>
