<svg width="29" height="29" viewBox="0 0 29 29" fill="none" xmlns="http://www.w3.org/2000/svg">
<path fill-rule="evenodd" clip-rule="evenodd" d="M11.4227 0.692597C7.08494 1.65483 3.57039 4.46391 1.69233 8.46925C0.00448009 12.0694 0.0112433 16.5508 1.70985 20.1738C3.12799 23.1984 5.88357 25.8542 8.90729 27.1103C15.5967 29.8898 23.3554 27.0939 26.6898 20.7021C27.8192 18.5374 28.1668 17.0313 28.1668 14.3029C28.1668 12.3828 28.0956 11.7183 27.7697 10.5886C26.3731 5.74867 22.434 1.94046 17.6378 0.79289C15.9772 0.395526 12.9798 0.347199 11.4227 0.692597ZM8.95675 5.5325C7.92062 5.81831 6.8036 6.58723 6.28518 7.37121C5.41028 8.69426 5.34815 9.15467 5.34815 14.3181C5.34815 18.7508 5.37678 19.2164 5.7029 20.0865C6.1203 21.1996 7.09206 22.2379 8.25767 22.8161C9.06575 23.2167 9.16746 23.2237 14.2864 23.2237C19.3921 23.2237 19.5108 23.2157 20.4029 22.8131C21.431 22.3493 22.4085 21.3629 22.891 20.3027C23.1871 19.6517 23.2169 19.1024 23.2169 14.3029C23.2169 9.36063 23.1942 8.9695 22.8638 8.24025C22.4063 7.23021 21.6171 6.41799 20.5344 5.84308L19.6666 5.38214L14.7203 5.34456C11.0919 5.31701 9.55622 5.36707 8.95675 5.5325ZM8.90607 7.31509C7.12034 8.25307 6.90982 8.9889 6.91121 14.2911C6.91225 18.6474 7.01308 19.3914 7.73144 20.3411C8.60113 21.491 9.02653 21.5699 14.3617 21.5743C18.8634 21.5779 19.1647 21.558 19.8836 21.2107C20.3418 20.9893 20.8293 20.5639 21.11 20.1407L21.5758 19.4381V14.3029V9.16766L21.11 8.46509C20.8293 8.04192 20.3418 7.61649 19.8836 7.39512C19.1632 7.04695 18.8685 7.02807 14.2749 7.03465C10.2029 7.04054 9.34344 7.0854 8.90607 7.31509ZM18.4752 8.77255C18.2237 8.96985 18.0179 9.28528 18.0179 9.47322C18.0179 9.8692 18.7532 10.6653 19.1189 10.6653C19.588 10.6653 20.1439 10.0545 20.1439 9.53939C20.1439 9.03914 19.5917 8.41347 19.1501 8.41347C19.0304 8.41347 18.7267 8.57508 18.4752 8.77255ZM12.6924 9.68247C10.7743 10.3883 9.51353 12.2206 9.51353 14.3029C9.51353 17.213 11.7776 19.323 14.6777 19.1158C16.024 19.0196 16.7071 18.7151 17.7709 17.7364C20.2264 15.4775 19.4284 11.2297 16.2823 9.81221C15.3945 9.41225 13.6027 9.34746 12.6924 9.68247ZM13.1582 11.3791C12.6039 11.5991 11.8088 12.3504 11.494 12.9518C11.125 13.6568 11.1835 15.0917 11.6122 15.8532C13.3113 18.8705 18.0658 17.1226 17.4255 13.716C17.0789 11.872 14.9096 10.6842 13.1582 11.3791Z" fill="#242628"/>
</svg>
