<svg width="29" height="29" viewBox="0 0 29 29" fill="none" xmlns="http://www.w3.org/2000/svg">
<path  fill-rule="evenodd" clip-rule="evenodd" d="M12.1653 0.640043C3.69988 2.27084 -1.2596 11.02 1.69384 19.1135C2.95043 22.5569 5.57894 25.3608 9.02653 26.9349C10.9931 27.8327 12.3977 28.1211 14.7633 28.113C16.3301 28.1074 17.183 28.0139 18.2274 27.7332C23.2612 26.3793 27.1019 22.4299 28.2942 17.3814C28.7004 15.6619 28.6543 12.5996 28.1964 10.8573C27.7343 9.09948 26.6816 6.97274 25.6264 5.66554C23.8627 3.48054 20.8975 1.54516 18.2274 0.836071C16.7787 0.451276 13.6673 0.350669 12.1653 0.640043ZM7.45489 6.4417C5.89035 7.39383 6.65331 9.94116 8.50311 9.94116C9.27819 9.94116 9.7706 9.66163 10.1821 8.98798C10.5878 8.32401 10.603 7.97275 10.2573 7.24569C9.74532 6.16909 8.49341 5.80971 7.45489 6.4417ZM16.8655 11.5427C16.4976 11.6736 15.9771 11.9906 15.7089 12.247L15.2213 12.7132L15.1655 12.131L15.1097 11.5488L13.5076 11.499L11.9055 11.4494V16.7065V21.9638L12.4468 22.0719C13.1278 22.2078 14.2966 22.2074 14.8066 22.071C15.1927 21.9676 15.1963 21.9374 15.1963 18.8122C15.1963 15.8751 15.2213 15.6261 15.558 15.1988C15.9879 14.6534 16.7562 14.228 17.3094 14.2289C17.8333 14.2297 18.753 14.7988 19.039 15.2992C19.1942 15.571 19.2941 16.7141 19.3532 18.8955L19.4398 22.0935L20.9553 22.1192L22.4708 22.145V18.0932C22.4708 13.5526 22.4071 13.2595 21.1867 12.1901C20.1766 11.3049 18.3171 11.0262 16.8655 11.5427ZM6.88262 16.7131V21.9638L7.35893 22.0517C7.62099 22.0999 8.34186 22.1258 8.96106 22.1094L10.0869 22.0795L10.1326 16.771L10.1785 11.4624H8.53047H6.88262V16.7131Z" fill="#242628"/>
</svg>
