<svg width="54" height="47" viewBox="0 0 54 47" fill="none" xmlns="http://www.w3.org/2000/svg">
<path fill-rule="evenodd" clip-rule="evenodd" d="M45.5143 32.0922C45.7424 31.9603 45.9321 31.7702 46.0643 31.5412C46.1964 31.3122 46.2664 31.0522 46.2673 30.7873L46.2943 22.0471C46.2951 21.7823 46.3651 21.5222 46.4973 21.2932C46.6295 21.0642 46.8192 20.8742 47.0473 20.7422L51.7529 18.0207C51.981 17.8888 52.2395 17.8196 52.5025 17.8201C52.7655 17.8205 53.0237 17.8906 53.2514 18.0232C53.479 18.1559 53.668 18.3464 53.7994 18.5758C53.9308 18.8052 54 19.0653 54 19.3301V35.22C54 35.4857 53.9303 35.7466 53.7981 35.9765C53.6659 36.2064 53.4758 36.3971 53.247 36.5294L35.488 46.7995C35.2612 46.9306 35.0042 46.9997 34.7427 47C34.4811 47.0003 34.224 46.9317 33.9969 46.801L20.0601 38.7753C19.8305 38.6432 19.6396 38.4524 19.5069 38.2222C19.3741 37.992 19.3041 37.7305 19.304 37.4643V29.4522C19.304 29.4431 19.3145 29.4371 19.3235 29.4416C19.331 29.4461 19.3415 29.4416 19.3415 29.431V29.422C19.3415 29.4159 19.3445 29.4099 19.3505 29.4069L30.8289 22.7676C30.8394 22.7615 30.8349 22.7449 30.8229 22.7449C30.8197 22.7449 30.8166 22.7436 30.8144 22.7414C30.8121 22.7391 30.8109 22.736 30.8109 22.7328L30.8334 14.8777C30.8344 14.6121 30.7659 14.3509 30.6346 14.1205C30.5034 13.89 30.3141 13.6985 30.0859 13.5653C29.8577 13.432 29.5986 13.3617 29.3348 13.3614C29.071 13.3612 28.8118 13.431 28.5833 13.5638L20.0526 18.513C19.8249 18.645 19.5668 18.7145 19.304 18.7145C19.0413 18.7145 18.7832 18.645 18.5555 18.513L9.99778 13.5517C9.76979 13.4195 9.51127 13.35 9.24819 13.3502C8.9851 13.3504 8.72668 13.4203 8.49888 13.5528C8.27107 13.6853 8.08189 13.8758 7.95031 14.1052C7.81873 14.3345 7.74938 14.5947 7.74922 14.8596V29.0565C7.74939 29.3211 7.68052 29.5811 7.54949 29.8105C7.41847 30.0398 7.22988 30.2305 7.00263 30.3634C6.77538 30.4964 6.51743 30.5668 6.25462 30.5678C5.99181 30.5687 5.73336 30.5002 5.50516 30.3689L0.756023 27.6353C0.525993 27.503 0.334864 27.3117 0.20207 27.0809C0.0692774 26.8501 -0.000442063 26.588 2.10911e-06 26.3213L0.0420033 1.50702C0.0425749 1.24248 0.112148 0.98273 0.24376 0.753772C0.375371 0.524813 0.564403 0.334676 0.791936 0.202391C1.01947 0.0701064 1.27752 0.000314523 1.54026 1.06059e-06C1.80301 -0.000312402 2.06122 0.0688635 2.28907 0.200605L18.557 9.60828C18.7843 9.73972 19.0419 9.80889 19.304 9.80889C19.5662 9.80889 19.8237 9.73972 20.0511 9.60828L36.3145 0.200605C36.5427 0.068673 36.8013 -0.000508426 37.0644 4.57141e-06C37.3276 0.000517568 37.5859 0.0707069 37.8136 0.203528C38.0412 0.336348 38.2302 0.527127 38.3615 0.756716C38.4928 0.986305 38.5618 1.24662 38.5616 1.51155V26.3319C38.5617 26.5974 38.4923 26.8582 38.3603 27.0881C38.2284 27.318 38.0386 27.5088 37.8101 27.6413L29.2928 32.58C29.064 32.7128 28.8741 32.904 28.7423 33.1344C28.6104 33.3647 28.5413 33.6261 28.5419 33.8919C28.5426 34.1578 28.6129 34.4188 28.7458 34.6486C28.8787 34.8783 29.0694 35.0687 29.2988 35.2004L33.9969 37.8932C34.224 38.0234 34.4809 38.0916 34.7421 38.091C35.0034 38.0905 35.26 38.0213 35.4865 37.8902L45.5143 32.0922ZM46.4998 9.82728C46.5 10.0944 46.5706 10.3566 46.7043 10.5873C46.838 10.818 47.03 11.0089 47.2609 11.1404C47.4918 11.272 47.7531 11.3396 48.0184 11.3363C48.2837 11.333 48.5433 11.2589 48.7709 11.1216L53.271 8.40306C53.4931 8.26904 53.677 8.07938 53.8048 7.85256C53.9325 7.62574 53.9998 7.36949 54 7.10873V1.56894C53.9995 1.30198 53.9288 1.03991 53.795 0.809434C53.6611 0.578961 53.469 0.388317 53.2382 0.256925C53.0074 0.125533 52.7461 0.0580874 52.481 0.0614593C52.2159 0.0648311 51.9564 0.1389 51.7289 0.27612L47.2288 2.99467C47.0067 3.12869 46.8228 3.31835 46.695 3.54517C46.5672 3.77199 46.5 4.02824 46.4998 4.289V9.82728Z" fill="#007FFF"/>
</svg>
