<svg width="269" height="21" viewBox="0 0 269 21" fill="none" xmlns="http://www.w3.org/2000/svg">
<path d="M13.8163 8.576C13.8163 9.552 13.5923 10.448 13.1443 11.264C12.6963 12.064 12.0083 12.712 11.0803 13.208C10.1523 13.704 9.00028 13.952 7.62428 13.952H5.08028V20H0.976281V3.152H7.62428C8.96828 3.152 10.1043 3.384 11.0323 3.848C11.9603 4.312 12.6563 4.952 13.1203 5.768C13.5843 6.584 13.8163 7.52 13.8163 8.576ZM7.31228 10.688C8.09628 10.688 8.68028 10.504 9.06428 10.136C9.44828 9.768 9.64028 9.248 9.64028 8.576C9.64028 7.904 9.44828 7.384 9.06428 7.016C8.68028 6.648 8.09628 6.464 7.31228 6.464H5.08028V10.688H7.31228ZM15.1368 13.28C15.1368 11.904 15.3928 10.696 15.9048 9.656C16.4328 8.616 17.1448 7.816 18.0408 7.256C18.9368 6.696 19.9368 6.416 21.0408 6.416C21.9848 6.416 22.8088 6.608 23.5128 6.992C24.2328 7.376 24.7848 7.88 25.1688 8.504V6.608H29.2728V20H25.1688V18.104C24.7688 18.728 24.2088 19.232 23.4888 19.616C22.7848 20 21.9608 20.192 21.0168 20.192C19.9288 20.192 18.9368 19.912 18.0408 19.352C17.1448 18.776 16.4328 17.968 15.9048 16.928C15.3928 15.872 15.1368 14.656 15.1368 13.28ZM25.1688 13.304C25.1688 12.28 24.8808 11.472 24.3048 10.88C23.7448 10.288 23.0568 9.992 22.2408 9.992C21.4248 9.992 20.7288 10.288 20.1528 10.88C19.5928 11.456 19.3128 12.256 19.3128 13.28C19.3128 14.304 19.5928 15.12 20.1528 15.728C20.7288 16.32 21.4248 16.616 22.2408 16.616C23.0568 16.616 23.7448 16.32 24.3048 15.728C24.8808 15.136 25.1688 14.328 25.1688 13.304ZM40.4019 6.464C41.9699 6.464 43.2179 6.976 44.1459 8C45.0899 9.008 45.5619 10.4 45.5619 12.176V20H41.4819V12.728C41.4819 11.832 41.2499 11.136 40.7859 10.64C40.3219 10.144 39.6979 9.896 38.9139 9.896C38.1299 9.896 37.5059 10.144 37.0419 10.64C36.5779 11.136 36.3459 11.832 36.3459 12.728V20H32.2419V6.608H36.3459V8.384C36.7619 7.792 37.3219 7.328 38.0259 6.992C38.7299 6.64 39.5219 6.464 40.4019 6.464ZM47.5978 13.28C47.5978 11.904 47.8538 10.696 48.3658 9.656C48.8938 8.616 49.6058 7.816 50.5018 7.256C51.3978 6.696 52.3978 6.416 53.5018 6.416C54.3818 6.416 55.1818 6.6 55.9018 6.968C56.6378 7.336 57.2138 7.832 57.6298 8.456V2.24H61.7338V20H57.6298V18.08C57.2458 18.72 56.6938 19.232 55.9738 19.616C55.2698 20 54.4458 20.192 53.5018 20.192C52.3978 20.192 51.3978 19.912 50.5018 19.352C49.6058 18.776 48.8938 17.968 48.3658 16.928C47.8538 15.872 47.5978 14.656 47.5978 13.28ZM57.6298 13.304C57.6298 12.28 57.3418 11.472 56.7658 10.88C56.2058 10.288 55.5178 9.992 54.7018 9.992C53.8858 9.992 53.1898 10.288 52.6138 10.88C52.0538 11.456 51.7738 12.256 51.7738 13.28C51.7738 14.304 52.0538 15.12 52.6138 15.728C53.1898 16.32 53.8858 16.616 54.7018 16.616C55.5178 16.616 56.2058 16.32 56.7658 15.728C57.3418 15.136 57.6298 14.328 57.6298 13.304ZM66.7668 5.216C66.0468 5.216 65.4548 5.008 64.9908 4.592C64.5428 4.16 64.3188 3.632 64.3188 3.008C64.3188 2.368 64.5428 1.84 64.9908 1.424C65.4548 0.991999 66.0468 0.775999 66.7668 0.775999C67.4708 0.775999 68.0468 0.991999 68.4948 1.424C68.9588 1.84 69.1908 2.368 69.1908 3.008C69.1908 3.632 68.9588 4.16 68.4948 4.592C68.0468 5.008 67.4708 5.216 66.7668 5.216ZM68.8068 6.608V20H64.7028V6.608H68.8068ZM79.245 16.52V20H77.157C75.669 20 74.509 19.64 73.677 18.92C72.845 18.184 72.429 16.992 72.429 15.344V10.016H70.797V6.608H72.429V3.344H76.533V6.608H79.221V10.016H76.533V15.392C76.533 15.792 76.629 16.08 76.821 16.256C77.013 16.432 77.333 16.52 77.781 16.52H79.245ZM97.1049 17.024H90.8169L89.8089 20H85.5129L91.6089 3.152H96.3609L102.457 20H98.1129L97.1049 17.024ZM96.0489 13.856L93.9609 7.688L91.8969 13.856H96.0489ZM109.76 20.192C108.592 20.192 107.552 19.992 106.64 19.592C105.728 19.192 105.008 18.648 104.48 17.96C103.952 17.256 103.656 16.472 103.592 15.608H107.648C107.696 16.072 107.912 16.448 108.296 16.736C108.68 17.024 109.152 17.168 109.712 17.168C110.224 17.168 110.616 17.072 110.888 16.88C111.176 16.672 111.32 16.408 111.32 16.088C111.32 15.704 111.12 15.424 110.72 15.248C110.32 15.056 109.672 14.848 108.776 14.624C107.816 14.4 107.016 14.168 106.376 13.928C105.736 13.672 105.184 13.28 104.72 12.752C104.256 12.208 104.024 11.48 104.024 10.568C104.024 9.8 104.232 9.104 104.648 8.48C105.08 7.84 105.704 7.336 106.52 6.968C107.352 6.6 108.336 6.416 109.472 6.416C111.152 6.416 112.472 6.832 113.432 7.664C114.408 8.496 114.968 9.6 115.112 10.976H111.32C111.256 10.512 111.048 10.144 110.696 9.872C110.36 9.6 109.912 9.464 109.352 9.464C108.872 9.464 108.504 9.56 108.248 9.752C107.992 9.928 107.864 10.176 107.864 10.496C107.864 10.88 108.064 11.168 108.464 11.36C108.88 11.552 109.52 11.744 110.384 11.936C111.376 12.192 112.184 12.448 112.808 12.704C113.432 12.944 113.976 13.344 114.44 13.904C114.92 14.448 115.168 15.184 115.184 16.112C115.184 16.896 114.96 17.6 114.512 18.224C114.08 18.832 113.448 19.312 112.616 19.664C111.8 20.016 110.848 20.192 109.76 20.192ZM125.927 6.464C127.463 6.464 128.695 6.976 129.623 8C130.551 9.008 131.015 10.4 131.015 12.176V20H126.935V12.728C126.935 11.832 126.703 11.136 126.239 10.64C125.775 10.144 125.151 9.896 124.367 9.896C123.583 9.896 122.959 10.144 122.495 10.64C122.031 11.136 121.799 11.832 121.799 12.728V20H117.695V2.24H121.799V8.408C122.215 7.816 122.783 7.344 123.503 6.992C124.223 6.64 125.031 6.464 125.927 6.464ZM139.963 20.192C138.651 20.192 137.467 19.912 136.411 19.352C135.371 18.792 134.547 17.992 133.939 16.952C133.347 15.912 133.051 14.696 133.051 13.304C133.051 11.928 133.355 10.72 133.963 9.68C134.571 8.624 135.403 7.816 136.459 7.256C137.515 6.696 138.699 6.416 140.011 6.416C141.323 6.416 142.507 6.696 143.563 7.256C144.619 7.816 145.451 8.624 146.059 9.68C146.667 10.72 146.971 11.928 146.971 13.304C146.971 14.68 146.659 15.896 146.035 16.952C145.427 17.992 144.587 18.792 143.515 19.352C142.459 19.912 141.275 20.192 139.963 20.192ZM139.963 16.64C140.747 16.64 141.411 16.352 141.955 15.776C142.515 15.2 142.795 14.376 142.795 13.304C142.795 12.232 142.523 11.408 141.979 10.832C141.451 10.256 140.795 9.968 140.011 9.968C139.211 9.968 138.547 10.256 138.019 10.832C137.491 11.392 137.227 12.216 137.227 13.304C137.227 14.376 137.483 15.2 137.995 15.776C138.523 16.352 139.179 16.64 139.963 16.64ZM157.332 20L153.252 14.384V20H149.148V2.24H153.252V12.056L157.308 6.608H162.372L156.804 13.328L162.42 20H157.332ZM179.27 11.36C180.246 11.568 181.03 12.056 181.622 12.824C182.214 13.576 182.51 14.44 182.51 15.416C182.51 16.824 182.014 17.944 181.022 18.776C180.046 19.592 178.678 20 176.918 20H169.07V3.152H176.654C178.366 3.152 179.702 3.544 180.662 4.328C181.638 5.112 182.126 6.176 182.126 7.52C182.126 8.512 181.862 9.336 181.334 9.992C180.822 10.648 180.134 11.104 179.27 11.36ZM173.174 9.968H175.862C176.534 9.968 177.046 9.824 177.398 9.536C177.766 9.232 177.95 8.792 177.95 8.216C177.95 7.64 177.766 7.2 177.398 6.896C177.046 6.592 176.534 6.44 175.862 6.44H173.174V9.968ZM176.198 16.688C176.886 16.688 177.414 16.536 177.782 16.232C178.166 15.912 178.358 15.456 178.358 14.864C178.358 14.272 178.158 13.808 177.758 13.472C177.374 13.136 176.838 12.968 176.15 12.968H173.174V16.688H176.198ZM193.122 6.464C194.658 6.464 195.89 6.976 196.818 8C197.746 9.008 198.21 10.4 198.21 12.176V20H194.13V12.728C194.13 11.832 193.898 11.136 193.434 10.64C192.97 10.144 192.346 9.896 191.562 9.896C190.778 9.896 190.154 10.144 189.69 10.64C189.226 11.136 188.994 11.832 188.994 12.728V20H184.89V2.24H188.994V8.408C189.41 7.816 189.978 7.344 190.698 6.992C191.418 6.64 192.226 6.464 193.122 6.464ZM200.246 13.28C200.246 11.904 200.502 10.696 201.014 9.656C201.542 8.616 202.254 7.816 203.15 7.256C204.046 6.696 205.046 6.416 206.15 6.416C207.094 6.416 207.918 6.608 208.622 6.992C209.342 7.376 209.894 7.88 210.278 8.504V6.608H214.382V20H210.278V18.104C209.878 18.728 209.318 19.232 208.598 19.616C207.894 20 207.07 20.192 206.126 20.192C205.038 20.192 204.046 19.912 203.15 19.352C202.254 18.776 201.542 17.968 201.014 16.928C200.502 15.872 200.246 14.656 200.246 13.28ZM210.278 13.304C210.278 12.28 209.99 11.472 209.414 10.88C208.854 10.288 208.166 9.992 207.35 9.992C206.534 9.992 205.838 10.288 205.262 10.88C204.702 11.456 204.422 12.256 204.422 13.28C204.422 14.304 204.702 15.12 205.262 15.728C205.838 16.32 206.534 16.616 207.35 16.616C208.166 16.616 208.854 16.32 209.414 15.728C209.99 15.136 210.278 14.328 210.278 13.304ZM221.455 8.84C221.935 8.104 222.535 7.528 223.255 7.112C223.975 6.68 224.775 6.464 225.655 6.464V10.808H224.527C223.503 10.808 222.735 11.032 222.223 11.48C221.711 11.912 221.455 12.68 221.455 13.784V20H217.351V6.608H221.455V8.84ZM231.721 8.84C232.201 8.104 232.801 7.528 233.521 7.112C234.241 6.68 235.041 6.464 235.921 6.464V10.808H234.793C233.769 10.808 233.001 11.032 232.489 11.48C231.977 11.912 231.721 12.68 231.721 13.784V20H227.617V6.608H231.721V8.84ZM237.067 13.28C237.067 11.904 237.323 10.696 237.835 9.656C238.363 8.616 239.075 7.816 239.971 7.256C240.867 6.696 241.867 6.416 242.971 6.416C243.915 6.416 244.739 6.608 245.443 6.992C246.163 7.376 246.715 7.88 247.099 8.504V6.608H251.203V20H247.099V18.104C246.699 18.728 246.139 19.232 245.419 19.616C244.715 20 243.891 20.192 242.947 20.192C241.859 20.192 240.867 19.912 239.971 19.352C239.075 18.776 238.363 17.968 237.835 16.928C237.323 15.872 237.067 14.656 237.067 13.28ZM247.099 13.304C247.099 12.28 246.811 11.472 246.235 10.88C245.675 10.288 244.987 9.992 244.171 9.992C243.355 9.992 242.659 10.288 242.083 10.88C241.523 11.456 241.243 12.256 241.243 13.28C241.243 14.304 241.523 15.12 242.083 15.728C242.659 16.32 243.355 16.616 244.171 16.616C244.987 16.616 245.675 16.32 246.235 15.728C246.811 15.136 247.099 14.328 247.099 13.304ZM261.636 16.52V20H259.548C258.06 20 256.9 19.64 256.068 18.92C255.236 18.184 254.82 16.992 254.82 15.344V10.016H253.188V6.608H254.82V3.344H258.924V6.608H261.612V10.016H258.924V15.392C258.924 15.792 259.02 16.08 259.212 16.256C259.404 16.432 259.724 16.52 260.172 16.52H261.636ZM265.986 5.216C265.266 5.216 264.674 5.008 264.21 4.592C263.762 4.16 263.538 3.632 263.538 3.008C263.538 2.368 263.762 1.84 264.21 1.424C264.674 0.991999 265.266 0.775999 265.986 0.775999C266.69 0.775999 267.266 0.991999 267.714 1.424C268.178 1.84 268.41 2.368 268.41 3.008C268.41 3.632 268.178 4.16 267.714 4.592C267.266 5.008 266.69 5.216 265.986 5.216ZM268.026 6.608V20H263.922V6.608H268.026Z" fill="#801717"/>
</svg>
