<svg width="501" height="404" viewBox="0 0 501 404" fill="none" xmlns="http://www.w3.org/2000/svg">
<path d="M416.5 42L364 29V48L362.5 49.5L362 52.5L363 61L365 62L362 69L362.5 71L366 72L369 80.5L376 88L388 91.5L389 96L388 96.5L382 98.5L372 102.5L362.5 108.5L356 115.5L349 126L328 166L322.5 174L264.5 190.5L264 193L254 196.5L254.5 200L235.5 197.5L230.5 198.5L226.5 203L223.5 202.5L211 205L199 208.5L198.5 206.5L195 206L187.5 205C187 213.833 186 231.7 186 232.5C186 233.3 187.667 236.167 188.5 237.5L190.5 236L198.5 235.5L199 234L212.5 230L217 231H221L223 234.5L226.5 236L229.5 234.5L232.5 235L236.5 233L237.5 231L242 230L246 227L261.5 220L262.5 221.5L265.5 223.5L273.5 221L276.5 226L278.5 226.5L322.5 217L334.5 214.5L346.5 208.5L361.5 196L365.5 192V199.5V220L361.5 247.5L353 253L335 261.5V277.5L339.5 282L345 282.5L351.5 285V299C374 298.833 420.4 298.1 426 296.5C431.6 294.9 472.667 292.5 492.5 291.5L498 292.5L499 290L500 279.5V265.5L498 208.5L493 156L490 147L486.5 132L482 122.5L478 115.5L470.5 108L457 99.5L444.5 93L434 89C426.4 86.6 424.5 87.6667 424.5 88.5L423.5 84.5L420.5 70L416.5 42Z" fill="white"/>
<path d="M147 38.5L140.5 29C137.5 30.8333 131.3 34.6 130.5 35C129.5 35.5 123 44 119 46.5C115 49 109.5 49.5 108.5 50C107.7 50.4 100.5 59.1667 97 63.5L98 68.5L93.5 76.5C85.9 76.9 79.6667 80.6667 77.5 82.5L70.5 99C65.3333 100.667 54.8 104.2 54 105C53 106 41 115 32.5 129C24 143 36.5 190.5 36 193C35.5 195.5 62.5 232.5 63.5 233C64.5 233.5 96.5 241 101.5 244C105.5 246.4 118.833 245 125 244L129 241L134 235L144 201.5L151 175C147.5 155.5 140.5 116.4 140.5 116C140.5 115.6 132.167 104.5 128 99L125 91.5L137 91L144 87.5L146.5 75L148.5 72L152 69.5V68.5L151 67L146.5 57C146.667 55.1667 147.1 50.5 147.5 46.5C147.9 42.5 147.333 39.5 147 38.5Z" fill="white"/>
<path fill-rule="evenodd" clip-rule="evenodd" d="M138.666 60.8514V62.7217C138.666 63.2456 138.874 63.7481 139.244 64.1186C139.615 64.4891 140.117 64.6973 140.641 64.6973C141.165 64.6973 141.668 64.4891 142.038 64.1186C142.409 63.7481 142.617 63.2456 142.617 62.7217V60.746C142.59 60.2265 142.364 59.7373 141.987 59.3794C141.609 59.0215 141.109 58.8224 140.589 58.8231C140.328 58.8264 140.071 58.8819 139.832 58.9863C139.593 59.0907 139.378 59.242 139.199 59.4311C139.019 59.6202 138.88 59.8433 138.788 60.0872C138.697 60.3312 138.655 60.591 138.666 60.8514ZM137.902 55.3459C140.799 54.6611 143.17 52.7118 138.955 52.9752C137.911 53.1208 136.881 53.3498 135.873 53.6601C131.922 55.2933 135.347 55.9518 137.902 55.3459ZM379.588 73.6799C378.374 76.2267 376.344 78.2944 373.819 79.5541C373.721 79.589 373.639 79.6568 373.585 79.746C373.532 79.8352 373.511 79.9402 373.527 80.043C373.542 80.1458 373.593 80.24 373.67 80.3094C373.748 80.3788 373.847 80.4191 373.951 80.4234C374.803 80.5735 375.68 80.5112 376.503 80.242C377.325 79.9728 378.069 79.5051 378.668 78.88C379.267 78.255 379.703 77.492 379.937 76.6585C380.171 75.825 380.196 74.9467 380.01 74.1013C380.01 73.9895 379.965 73.8823 379.886 73.8033C379.807 73.7243 379.7 73.6799 379.588 73.6799ZM369.104 52.7908C368.598 52.6612 368.061 52.7346 367.608 52.9955C367.155 53.2563 366.822 53.6839 366.681 54.1869C366.442 55.0444 366.397 55.9441 366.549 56.8211C366.549 57.3451 366.757 57.8476 367.127 58.2181C367.498 58.5886 368 58.7967 368.524 58.7967C369.048 58.7967 369.551 58.5886 369.921 58.2181C370.292 57.8476 370.5 57.3451 370.5 56.8211C370.5 54.9245 370.922 53.2913 369.104 52.7908ZM278.514 311.599C276.381 310.519 235.577 313.18 234.55 317.763C234.339 318.764 234.998 322.61 236.157 323.242C238.449 324.454 277.698 322.241 279.858 317.974C280.472 316.936 280.675 315.706 280.426 314.525C280.177 313.345 279.495 312.301 278.514 311.599ZM236.657 322.136C235.845 320.86 235.407 319.381 235.393 317.869C235.92 315.498 257.652 314.207 260.049 314.049C259.992 316.177 260.54 318.278 261.629 320.108C258.626 320.582 238.08 322.9 236.657 322.215V322.136ZM277.935 316.868C275.854 318.343 265.291 319.686 262.762 320.002C262.983 317.917 262.541 315.815 261.498 313.996C264.632 313.786 274.669 313.232 277.645 313.496C278.435 314.075 278.462 315.867 277.935 316.92V316.868ZM209.288 317.842C209.217 317.798 209.135 317.774 209.051 317.774C208.967 317.774 208.885 317.798 208.814 317.842C208.814 317.579 158.501 345.923 156.973 348.926C156.905 349.07 156.87 349.227 156.87 349.387C156.87 349.546 156.905 349.703 156.973 349.848C158.58 354.457 211.079 401.925 213.266 403.005C213.898 403.322 214.688 402.768 217.164 401.451C222.433 398.633 267.398 374.609 272.034 370.737C273.325 369.42 274.115 357.566 273.404 356.222C272.693 354.879 209.288 318.106 209.288 317.842ZM213.845 400.819C208.234 396.367 163.796 356.328 158.87 349.532C163.453 345.211 207.787 319.528 209.13 318.738C215.926 322.874 264.843 352.64 271.112 356.855C267.799 357.812 264.647 359.259 261.761 361.148C260.26 362.597 264 365.284 269.189 370.315C261.261 375.426 221.932 396.499 213.845 400.819ZM270.691 368.814C270.427 368.55 264.079 362.36 263.789 362.123C266.348 360.525 268.986 359.057 271.692 357.724C271.7 361.446 271.347 365.16 270.638 368.814H270.691Z" fill="#191919"/>
<path fill-rule="evenodd" clip-rule="evenodd" d="M248.8 363.967C246.956 364.757 224.461 372.212 218.112 374.793C216.246 375.723 214.213 376.27 212.133 376.4C211.764 376.4 213.897 372.291 230.045 359.699C231.731 358.382 234.971 355.88 235.313 353.825C236.868 347.029 218.455 357.197 201.991 363.624C200.288 364.539 198.43 365.128 196.512 365.363C196.327 364.283 200.042 360.885 200.279 360.621C210.104 349.768 222.564 345.29 221.721 341.286C220.43 335.017 197.566 347.213 192.745 349.189C188.688 350.901 182.208 352.956 182.603 352.956C181.734 353.298 182.603 353.904 182.761 353.825C182.919 353.746 191.27 351.191 193.298 350.295C196.327 349.136 216.584 339.363 219.956 341.655C221.3 342.603 206.97 350.322 198.883 359.252C197.46 360.779 193.614 363.888 194.8 366.417C195.017 366.807 195.347 367.124 195.746 367.326C196.145 367.528 196.595 367.606 197.039 367.549C200.964 367.549 227.727 354.141 233.232 353.72C231.969 355.387 230.459 356.853 228.754 358.066C224.829 361.175 213.45 370.447 210.815 374.714C209.446 376.927 210.578 378.244 212.37 378.27C214.74 378.27 217.638 376.663 224.777 373.977C248.985 364.652 249.749 365.073 249.354 364.204C249.333 364.152 249.303 364.104 249.264 364.064C249.225 364.023 249.178 363.991 249.127 363.969C249.075 363.947 249.02 363.935 248.964 363.935C248.908 363.935 248.852 363.945 248.8 363.967Z" fill="#191919"/>
<path fill-rule="evenodd" clip-rule="evenodd" d="M500.971 263.525C500.628 235.972 498.152 179.732 492.699 152.468C489.828 138.006 483.611 118.224 472.047 108.661C467.148 104.631 459.93 100.759 446.838 93.5149C446.996 93.1725 426.16 84.7431 425.185 87.5353C424.376 82.731 423.241 77.9873 421.787 73.3371C423.736 72.7049 422.867 67.0151 423.684 63.8013C424.5 60.5876 427.582 58.2959 429.163 55.6617C432.719 49.7875 433.325 39.5405 432.666 32.718C432.034 26.3696 422.762 12.1977 416.65 9.87962C410.539 7.56154 404.27 7.64056 397.816 6.34981C392.548 5.2698 388.649 2.34586 382.749 1.60828C376.848 0.870713 373.318 4.24247 368.261 4.24247C363.203 4.24247 357.513 0.317533 352.218 0.00143085C349.342 -0.0431992 346.547 0.957544 344.352 2.81785C342.158 4.67815 340.713 7.27161 340.285 10.1167C339.646 14.3573 340.149 18.6916 341.742 22.6734C343.335 26.6552 345.96 30.1406 349.347 32.7707C353.471 35.3798 358.106 37.0773 362.939 37.7493C362.623 51.21 364.046 47.6011 362.465 48.7865C360.885 49.9719 361.385 58.2696 361.938 60.5613C362.176 61.4833 362.413 61.8257 363.545 62.1945C362.913 64.8287 358.461 70.5185 362.465 71.9146C362.992 72.099 365.1 72.4678 365.31 72.5468C365.85 75.0449 366.644 77.4811 367.681 79.8172C368.703 82.1658 370.195 84.2799 372.067 86.0288C373.938 87.7777 376.148 89.1242 378.56 89.9851C382.353 91.4603 385.356 91.8554 387.569 92.6193C387.874 93.7087 388.033 94.8335 388.043 95.9647C378.636 98.4372 369.774 102.645 361.912 108.372C347.661 119.936 327.404 167.904 322.11 173.173C320.055 175.201 271.665 184.579 264.526 189.426C263.13 190.374 263.078 191.19 263.262 192.876C261.523 193.192 254.2 194.562 253.384 196.116C253.143 197.245 253.206 198.418 253.568 199.514C247.05 198.297 240.473 197.418 233.864 196.88C232.655 196.908 231.465 197.19 230.371 197.708C229.278 198.225 228.305 198.966 227.516 199.883C225.303 202.517 227.095 202.07 224.75 201.701C219.772 200.99 201.938 206.969 199.699 208.023C199.699 207.075 199.699 206.416 198.698 205.889C195.758 205.037 192.686 204.734 189.637 204.994C187.793 206.232 194.905 205.81 197.855 207.338C197.855 209.366 198.119 230.176 197.855 234.259C197.855 234.997 197.855 234.892 197.302 234.971C194.668 235.339 190.875 234.971 189.716 235.814C190.137 226.647 189.716 204.203 188.451 202.886C187.687 202.096 173.621 200.41 158.316 198.566C158.37 187.493 157.755 176.427 156.472 165.428C153.654 140.983 147.753 112.165 129.314 97.5452C130.382 97.9816 131.558 98.0826 132.685 97.835C134.191 97.2376 135.811 96.9855 137.427 97.0974C140.061 97.8086 140.404 99.7316 146.989 95.3062C147.411 95.0164 148.517 95.0954 149.386 94.2262C152.363 91.2495 150.861 87.2192 150.861 84.2163C151.298 82.1747 151.439 80.0813 151.283 77.9996C151.202 77.6893 151.051 77.4018 150.84 77.1596C150.63 76.9174 150.367 76.7271 150.071 76.6035C150.071 75.7342 150.993 74.18 149.676 72.4941C151.573 71.4932 153.627 70.3341 152.574 68.2795C150.561 65.0602 148.9 61.6336 147.621 58.0588C146.805 55.0032 147.911 51.1046 147.858 47.8119C147.858 45.5465 148.095 42.8332 147.858 40.3571C149.89 38.9385 151.443 36.9358 152.31 34.6146C152.502 33.6763 152.461 32.7052 152.19 31.7866C151.919 30.868 151.427 30.03 150.756 29.3462C149.887 28.7931 149.702 29.3462 149.729 27.713C149.824 27.1399 149.798 26.5532 149.653 25.9906C149.508 25.4281 149.246 24.9021 148.886 24.4466C147.779 23.3666 145.251 22.1813 144.46 21.0749C143.117 19.0993 142.327 17.1236 139.798 16.3334C138.007 15.7538 136.321 16.8865 135.109 16.4914C133.449 15.9646 131.737 14.1733 129.841 16.0699C129.417 16.2995 128.952 16.4433 128.473 16.493C127.994 16.5428 127.51 16.4975 127.048 16.3597C125.468 15.0163 125.073 12.6982 122.386 12.1977C120.858 11.9343 117.855 12.6719 116.696 12.1977C114.797 10.8 112.702 9.6905 110.479 8.90497C107.994 8.66829 105.486 8.88246 103.077 9.53718C101.391 9.87962 99.2314 9.69523 97.4665 9.95864C93.805 10.5382 92.7513 13.6992 90.3278 15.227C87.9044 16.7548 83.8214 16.7812 81.5033 20.2056C79.554 23.1032 79.9755 26.2379 79.2116 29.1355C78.8955 30.3736 77.2096 31.7697 76.5774 33.0341C75.1022 35.958 76.2349 38.9083 76.2086 41.4371C76.1823 43.9659 74.4174 46.284 74.9179 49.3397C75.3245 50.8658 75.993 52.3097 76.8935 53.6071C76.9044 54.0341 76.8511 54.4603 76.7354 54.8715C75.9318 56.9444 75.7667 59.2104 76.2613 61.3779C76.6924 63.456 77.6961 65.372 79.1589 66.9097C81.0028 68.5165 81.9511 68.0951 83.2946 70.3868C83.8596 71.5986 84.7091 72.656 85.7707 73.4688C87.72 74.7859 90.1171 73.6532 91.2761 74.2327C91.9972 74.6135 92.7837 74.8548 93.5942 74.9439C92.9457 75.2716 92.3856 75.7505 91.961 76.3401C77.6311 78.1576 58.7176 88.6153 47.1799 102.919C42.6228 108.793 34.9573 117.275 32.086 124.071C16.6497 158.948 24.1835 213.634 17.9668 230.519L2.58318 270.637C1.84561 272.56 -0.0509996 282.122 0.633888 285.415C1.74024 290.315 6.8769 284.177 10.0116 280.7C8.06228 287.628 8.08863 289.445 7.0613 316.709C6.74519 325.244 6.45543 334.543 6.32372 342.366C6.31617 342.422 6.32077 342.479 6.33722 342.534C6.35366 342.588 6.38157 342.638 6.41904 342.68C6.45651 342.723 6.50268 342.757 6.55441 342.78C6.60613 342.803 6.66222 342.814 6.71885 342.814C7.45642 342.814 6.98227 343.657 8.06229 321.899C8.8262 306.594 9.69548 292.317 9.7745 291.158C10.1644 286.655 11.1567 282.225 12.7248 277.987C20.0812 272.491 28.3594 268.352 37.17 265.764C46.9757 263.141 57.3305 263.406 66.989 266.528C69.6232 267.397 76.7091 269.162 79.2379 267.977C84.5063 265.343 98.0723 256.624 100.311 251.329C101.418 248.695 102.313 246.561 103.183 244.585C107.213 244.954 112.165 245.981 116.564 246.034C121.49 246.034 124.651 245.244 130.104 240.423C150.15 240.871 172.251 240.265 182.788 239.87C189.821 242.504 211.421 250.223 216.663 255.412C218.718 257.414 219.93 262.998 220.667 269.215C221.638 276.646 221.894 284.152 221.431 291.632C206.996 294.398 188.609 298.771 174.385 302.3C173.588 302.079 172.756 302.016 171.935 302.116C168.168 302.511 169.933 304.039 168.695 300.219C168.754 300.233 168.816 300.232 168.875 300.216C168.934 300.201 168.988 300.171 169.032 300.129C169.076 300.087 169.11 300.035 169.129 299.977C169.148 299.919 169.153 299.858 169.143 299.798C169.104 294.735 168.512 289.691 167.378 284.757C167.193 284.019 165.903 283.65 165.112 283.413C156.578 280.937 123.624 277.618 116.38 279.488C111.665 280.726 79.0272 297.585 77.552 301.168C76.0769 304.75 72.0729 326.298 71.3354 330.275C54.2659 335.254 40.8052 339.363 34.2197 341.602C34.1651 341.62 34.1147 341.649 34.0716 341.686C34.0285 341.724 33.9935 341.77 33.9688 341.822C33.9442 341.874 33.9303 341.93 33.9282 341.988C33.926 342.045 33.9356 342.102 33.9563 342.155C34.2724 343.13 42.9125 338.652 131.421 315.392C132.311 317.663 133.45 319.828 134.819 321.846C132.185 322.478 129.208 323.637 128.339 326.061C128.185 326.572 128.159 327.114 128.265 327.638C128.37 328.162 128.604 328.652 128.945 329.064C131.106 331.484 133.987 333.146 137.164 333.805C142.734 335.201 148.521 335.505 154.207 334.701C159.666 334.224 165.046 333.074 170.223 331.276C175.86 328.906 175.491 325.376 173.331 323.769C171.105 322.46 168.659 321.567 166.113 321.135C168.51 316.788 166.271 318.711 169.854 317.842C171.881 317.358 173.733 316.318 175.201 314.839C177.519 312.468 179.073 306.62 176.861 303.802C187.977 301.168 232.679 290.104 243.611 290.921C263.446 292.369 407.668 351.665 441.807 363.097C441.861 363.115 441.917 363.121 441.973 363.117C442.029 363.112 442.084 363.096 442.134 363.071C442.184 363.045 442.229 363.01 442.265 362.967C442.302 362.924 442.33 362.874 442.347 362.821C442.364 362.767 442.371 362.71 442.366 362.654C442.362 362.598 442.346 362.544 442.32 362.493C442.295 362.443 442.259 362.399 442.217 362.362C442.174 362.326 442.124 362.298 442.07 362.281C433.14 359.172 413.226 351.243 389.387 341.708C390.546 338.915 393.601 329.907 395.972 326.798C396.947 325.534 396.894 325.428 405.587 325.929C428.373 327.246 448.445 326.64 470.309 319.66C483.664 315.366 490.223 305.461 494.016 292.211C494.78 292.448 496.861 293.133 497.599 293.291C497.809 293.342 498.029 293.343 498.24 293.292C498.45 293.242 498.646 293.142 498.811 293.002C501.418 290.341 500.971 268.714 500.971 263.525ZM140.667 82.3987C139.954 82.6584 139.185 82.7221 138.439 82.5831C137.693 82.4441 136.998 82.1075 136.426 81.6084C135.857 81.1533 135.412 80.5627 135.132 79.8907C134.851 79.2187 134.743 78.4869 134.819 77.7625C134.784 77.6542 134.794 77.5365 134.846 77.4352C134.898 77.334 134.987 77.2574 135.096 77.2225C135.204 77.1876 135.322 77.1971 135.423 77.249C135.524 77.3008 135.601 77.3908 135.636 77.4991C136.936 79.3697 138.773 80.8024 140.904 81.6084C140.972 81.6645 141.022 81.7394 141.047 81.8237C141.073 81.9079 141.073 81.9978 141.048 82.0822C141.022 82.1665 140.973 82.2415 140.905 82.2978C140.837 82.3541 140.755 82.3892 140.667 82.3987ZM115.932 59.3232C116.022 58.5494 116.333 57.8178 116.828 57.2159C117.407 56.6364 119.172 57.0052 120.41 56.1622C121.336 55.4304 122.039 54.4541 122.439 53.3436C123.914 50.4197 126.258 52.6851 129.524 47.8645C130.358 46.5089 131.005 45.0469 131.447 43.5181C133.291 42.6489 135.688 43.9133 138.007 40.0937C138.77 38.803 139.271 37.4595 140.641 37.0907C141.668 38.1971 142.695 42.3591 146.857 40.7523C146.857 42.1747 146.541 49.366 146.462 49.9455C146.121 51.6816 145.936 53.4448 145.909 55.2139C145.909 60.4823 148.333 63.3799 151.019 68.8853C151.441 69.7546 149.228 70.5975 148.122 71.2034C146.561 70.6285 144.946 70.2137 143.301 69.9653C138.191 68.7273 134.108 71.3878 129.709 72.5995C128.963 72.6042 128.22 72.5157 127.496 72.3361C125.837 72.178 124.098 73.8639 121.754 74.18C121.142 74.3 120.509 74.2336 119.936 73.9893C119.363 73.7451 118.877 73.3343 118.54 72.8102C118.256 71.8455 118.053 70.8586 117.934 69.86C117.697 68.9117 117.407 67.9634 117.197 67.0414C116.775 65.1448 118.013 64.4072 116.564 61.773C115.563 59.9818 115.59 60.772 115.932 59.3232ZM116.933 113.061C118.707 109.695 120.153 106.166 121.253 102.524C122.728 111.691 123.519 116.327 123.887 118.645C121.964 117.038 121.78 116.432 116.933 112.955V113.061ZM124.836 123.782C126.126 131.684 125.837 129.893 126.074 131.526C125.444 130.341 124.675 129.235 123.782 128.233C124.077 126.493 124.209 124.73 124.177 122.965L124.836 123.782ZM115.3 128.523C113.727 126.888 112.291 125.126 111.006 123.255C112.309 120.209 113.777 117.237 115.405 114.351C120.937 118.592 120.516 118.54 121.885 120.252C122.086 122.495 122.086 124.752 121.885 126.995L115.3 128.523ZM115.642 130.235C118.777 137.216 120.041 148.675 120.7 156.314C117.412 146.692 112.99 137.496 107.529 128.918C108.597 127.459 109.548 125.918 110.374 124.309C111.459 126.329 112.757 128.228 114.246 129.972C114.436 130.092 114.651 130.168 114.874 130.195C115.097 130.223 115.323 130.2 115.537 130.13L115.642 130.235ZM99.9953 73.8639C100.21 73.9305 100.43 73.9747 100.654 73.9956C101.267 73.9681 101.855 73.7428 102.33 73.3535C102.805 72.9642 103.141 72.4317 103.288 71.8356C103.709 71.5722 104.026 71.2824 103.999 70.7819C103.973 70.2814 98.3094 62.5369 105.527 58.5593C106.164 58.4903 106.803 58.6554 107.327 59.0239C107.851 59.3923 108.222 59.9389 108.372 60.5613C108.713 61.9664 109.433 63.2511 110.453 64.2755C110.533 65.9593 110.753 67.6334 111.112 69.2804C111.322 70.2551 110.585 71.5195 110.427 72.8629C110.058 75.4971 112.613 78.3947 113.535 80.7655C114.773 83.9528 113.93 87.3773 116.88 90.1959C119.831 93.0144 119.278 90.6964 120.305 97.0184C119.076 101.987 117.383 106.829 115.247 111.48C112.271 107.265 97.203 82.6621 94.1737 77.0513C95.3064 76.3664 98.8363 74.3644 99.8899 73.7586L99.9953 73.8639ZM92.0927 77.3674C94.0157 81.8455 113.166 112.191 113.166 112.455C112.244 115.379 106.95 127.496 104.447 128.813C98.9416 124.888 83.8477 83.6104 82.7677 79.8699C85.7396 78.5967 88.8659 77.72 92.0664 77.262L92.0927 77.3674ZM119.277 193.667C116.38 192.745 107.029 161.003 98.6782 143.433C93.6732 132.896 83.8477 115.484 73.1266 110.848C61.5362 105.869 39.9886 117.802 37.6968 133.291C36.2975 143.506 37.1242 153.903 40.1203 163.769C52.5536 201.358 69.3861 231.335 105.343 239.923C106.186 238.237 103.209 239.633 126.864 240.265C125.705 241.167 124.471 241.969 123.176 242.662C118.751 245.059 110.348 243.137 104.131 242.452L104.921 240.739C67.8846 232.468 50.5517 201.227 38.1447 164.348C35.0112 154.185 34.1126 143.465 35.5105 132.922C37.8812 116.169 60.1928 104.157 72.5471 108.319C75.6971 109.493 78.5809 111.284 81.0292 113.587C79.8544 103.032 79.5636 92.3967 80.1599 81.7928C80.6439 81.3629 81.1639 80.9751 81.7141 80.6338C83.9794 88.5363 96.8869 126.31 103.446 130.499C103.862 130.745 104.349 130.842 104.828 130.775C105.306 130.708 105.748 130.481 106.08 130.13C112.007 140.324 117.539 150.756 119.752 161.74C121.003 167.803 121.323 174.021 120.7 180.18C116.959 164.691 106.607 142.3 94.8323 131.579C106.871 152.363 115.642 185.606 119.567 192.165C121.137 192.598 122.741 192.897 124.361 193.061C123.677 177.256 123.15 144.302 116.459 129.998C117.276 129.998 123.044 128.76 123.044 128.76C124.085 130.009 124.969 131.381 125.679 132.843C126.759 134.924 126.39 133.344 128.023 144.407C135.926 195.484 135.478 195.221 136.505 195.774C131.342 195.115 122.254 194.562 119.277 193.667ZM136.768 183.13C126.495 124.809 126.39 123.176 122.07 98.836C122.412 97.6769 122.676 96.7286 122.86 96.0437C124.493 98.1247 133.397 109.531 134.371 112.033C132.923 113.324 127.707 115.537 129.287 117.302C129.999 118.118 135.873 123.202 137.717 125.046C138.718 129.287 137.137 175.754 136.768 183.13ZM72.389 329.933C73.1266 326.587 77.9472 304.829 79.2906 301.773C80.2652 299.508 112.034 282.649 117.038 281.385C124.256 279.488 163.558 283.387 166.298 285.152C167.534 289.747 168.259 294.464 168.458 299.218C164.032 293.95 129.788 295.346 129.419 302.774C129.412 303.018 129.463 303.26 129.568 303.48C129.674 303.7 129.83 303.892 130.025 304.039C130.008 307.223 130.37 310.397 131.105 313.496C110.874 318.948 90.6439 324.638 72.389 329.933ZM172.83 325.824C174.174 330.17 158.395 332.04 153.838 332.567C148.427 333.338 142.918 333.061 137.611 331.75C135.293 331.118 131 329.432 130.183 327.325C129.788 326.324 131.079 325.376 132.027 324.875C133.228 324.248 134.502 323.77 135.82 323.453C137.255 325.43 139.18 327.001 141.405 328.01C144.039 329.169 155.287 328.352 159.185 327.509C160.898 327.141 162.715 326.64 165.297 322.504C166.877 322.742 172.383 324.375 172.83 325.824ZM160.239 324.902C158.263 326.087 144.302 327.035 142.169 326.166C135.109 323.347 131.263 312.337 130.973 304.566C136.712 305.828 142.602 306.263 148.464 305.856C152.863 305.277 163.268 303.486 167.088 301.563C169.38 310.203 164.533 322.399 160.239 324.902ZM174.964 311.309C174.251 312.72 173.249 313.965 172.024 314.963C170.799 315.961 169.377 316.691 167.852 317.104C169.23 313.409 169.883 309.483 169.775 305.54C169.983 305.105 170.285 304.721 170.659 304.416C171.033 304.111 171.47 303.893 171.938 303.777C172.407 303.661 172.895 303.65 173.368 303.746C173.841 303.841 174.287 304.04 174.674 304.329C176.65 305.619 175.781 309.07 174.964 311.309ZM446.285 94.2788C464.092 104.104 471.995 108.214 477.684 116.827C474.105 113.75 469.55 112.042 464.83 112.007C447.945 111.427 439.647 136.426 435.327 152.6C428.162 179.574 432.561 213.713 432.166 218.718C427.609 222.959 404.27 235.076 393.838 240.739C395.287 234.628 400.45 211.052 403.822 201.754C408.353 189.268 421.392 160.186 422.261 153.864C422.498 151.994 422.13 151.757 416.598 148.174C418.731 148.174 424.5 147.595 426.292 147.252C427.055 147.252 427.451 146.91 427.74 145.303C428.715 139.719 430.612 93.6993 430.77 88.7997C430.585 88.6944 444.02 92.9881 446.364 94.2788H446.285ZM425.975 87.9831C427.175 87.8967 428.38 88.0306 429.532 88.3783C428.215 107.476 426.897 141.062 425.659 145.356C424.263 145.619 419.311 145.962 417.388 146.093C413.279 146.33 413.173 146.093 412.752 146.673C412.33 147.252 412.91 148.043 413.674 148.569C415.017 149.518 419.495 152.336 420.128 153.074C419.52 156.21 418.584 159.274 417.335 162.214C402.452 201.727 403.348 189.584 393.338 232.916C394.007 212.159 395.924 191.46 399.08 170.934C401.188 159.633 403.743 149.017 412.251 124.835C415.597 115.484 422.525 97.5716 422.788 97.6769C424.11 94.5288 425.201 91.289 426.054 87.9831H425.975ZM380.22 249.643C380.72 251.592 380.72 251.329 380.562 251.355L379.746 251.197C379.746 250.934 378.323 224.487 379.008 213.555C380.246 194.193 381.827 173.199 383.302 152.968C384.013 143.169 386.7 122.122 386.621 122.912L389.255 120.963C390.348 123.144 391.589 125.247 392.969 127.259C393.496 127.97 394.207 128.866 395.05 128.945C394.471 133.713 385.699 192.534 383.117 230.124C381.695 250.591 383.117 246.245 381.036 248.115C380.789 248.282 380.591 248.511 380.461 248.78C380.332 249.048 380.276 249.346 380.299 249.643H380.22ZM395.867 128.971C397.869 128.971 400.029 124.756 402.663 122.965C403.69 124.045 406.799 129.208 408.853 129.893C400.134 153.811 390.809 187.16 390.835 242.215C388.596 243.426 385.567 245.165 383.328 246.456C384.645 224.039 394.181 150.466 395.946 128.971H395.867ZM423.526 93.5676C422.683 96.2018 410.17 126.416 409.301 127.812C407.943 126.48 406.733 125.005 405.692 123.413C403.48 120.436 402.716 119.462 398.949 123.703C404.533 113.166 415.439 102.471 420.022 97.1501C424.395 92.1452 423.815 92.5666 423.526 93.5676ZM364.52 38.2498C366.485 38.855 368.587 38.855 370.552 38.2498C372.056 37.5816 373.716 37.3444 375.346 37.5649C377.649 38.626 380.015 39.541 382.432 40.3044C385.422 40.2781 388.406 40.0404 391.362 39.5932C392.717 40.2262 393.864 41.2304 394.671 42.4894C395.478 43.7483 395.91 45.2103 395.919 46.7055C391.01 47.4184 386.271 49.016 381.932 51.4207C381.666 50.5558 381.137 49.7949 380.42 49.2428C379.703 48.6908 378.832 48.3749 377.928 48.3387C373.609 47.819 369.246 47.766 364.915 48.1806C364.531 44.8147 364.399 41.4247 364.52 38.039V38.2498ZM363.493 60.7194C362.834 59.5603 361.543 50.5778 362.86 49.6031C363.071 49.8665 362.149 49.0499 367.154 49.1026C370.682 49.214 374.2 49.5306 377.691 50.0509C380.062 50.4724 380.457 51.5524 380.325 53.8441C380.325 58.0852 380.457 57.6637 380.325 58.9808C380.325 59.3496 380.167 60.3242 379.877 60.535C374.459 61.5155 368.908 61.5066 363.493 60.5086V60.7194ZM387.701 90.4066C380.483 88.3519 373.871 88.0885 369.42 78.9216C366.548 73.021 368.129 71.3088 365.521 70.5449C364.554 70.4296 363.601 70.2178 362.676 69.9127C362.676 68.1478 364.889 64.4599 365.31 62.5896C369.685 63.1126 374.106 63.1126 378.481 62.5896C381.115 62.1945 382.511 61.7467 382.09 56.3993V52.3163C386.226 51.0519 394.997 48.9709 396.051 48.6811C396.057 50.1141 396.252 51.54 396.631 52.9222C397.042 53.7913 397.753 54.4832 398.633 54.8715C398.773 54.934 398.927 54.9632 399.08 54.9569C399.234 54.9506 399.385 54.9088 399.52 54.8349C399.655 54.761 399.771 54.6569 399.859 54.5307C399.948 54.4046 400.006 54.2598 400.029 54.1076C400.635 51.6578 401.109 49.4714 401.293 48.4177C401.293 48.9972 401.53 46.5738 403.269 45.6255C405.903 44.2557 409.986 47.3114 410.276 51.6314C410.434 53.7388 408.326 57.5583 406.746 61.9574C405.798 64.5916 411.54 65.7243 413.542 66.6989C414.28 68.4112 413.832 70.3341 414.833 71.3615C416.336 72.2875 417.983 72.9553 419.706 73.3371C421.523 79.1596 422.845 85.1253 423.657 91.1705C416.967 98.2038 415.465 99.8896 413.674 101.707C406.676 108.357 400.741 116.041 396.077 124.493C394.207 113.508 390.651 103.815 390.256 100.627C389.94 98.1511 390.467 93.7783 389.308 91.4339C389.132 91.1549 388.897 90.9182 388.619 90.7406C388.341 90.563 388.028 90.449 387.701 90.4066ZM388.465 99.3365C389.729 104.025 393.101 119.251 394.076 125.362C392.469 122.939 390.493 118.935 390.493 118.935C390.425 118.792 390.325 118.666 390.201 118.567C390.077 118.468 389.933 118.399 389.779 118.363C389.624 118.328 389.464 118.328 389.309 118.363C389.155 118.398 389.01 118.467 388.886 118.566L386.963 120.041C387.701 113.192 388.438 106.212 388.544 99.3365H388.465ZM387.701 96.9921C387.464 116.38 383.591 133.66 382.011 152.968C376.743 217.875 376.743 214.687 377.269 237.657C374.424 216.9 370.447 176.518 368.261 154.628C369.815 153.443 377.322 147.726 378.165 145.988C378.56 145.145 378.165 144.276 376.268 144.276C372.972 144.524 369.661 144.524 366.364 144.276C368.366 136.11 379.825 106.317 382.88 98.4145C384.434 97.9667 385.725 97.5189 387.701 96.9921ZM265.238 191.401C269.321 187.107 320.555 177.098 323.348 174.384C327.273 170.433 338.073 145.909 349.084 127.311C358.435 111.506 363.519 105.659 381.721 98.9414C377.348 109.768 368.814 130.947 364.968 143.275C364.731 144.039 364.388 144.882 364.968 145.382C366.417 146.804 372.475 145.962 375.952 146.014C373.503 148.464 366.759 153.443 366.759 153.443C366.629 153.538 366.527 153.667 366.462 153.815C366.397 153.963 366.373 154.125 366.39 154.286C367.497 166.508 374.293 239.449 377.243 250.038L372.502 248.826C369.437 247.322 366.109 246.427 362.702 246.192C368.708 216.321 366.548 207.97 367.286 191.691C367.286 190.005 360.174 156.129 360.121 155.866C360.121 155.754 360.077 155.647 359.997 155.568C359.918 155.489 359.811 155.445 359.699 155.445C359.588 155.445 359.48 155.489 359.401 155.568C359.322 155.647 359.278 155.754 359.278 155.866C359.726 167.404 362.992 178.388 365.231 190.98C356.802 198.882 347.977 209.814 333.621 213.37C324.744 215.609 283.176 224.671 277.645 225.066C273.114 220.008 264.526 194.773 265.238 191.401ZM260.233 194.905C260.233 194.905 263.394 194.141 263.341 193.64C265.801 202.896 268.899 211.971 272.613 220.799C270.219 221.539 267.77 222.094 265.29 222.458C263.789 222.458 264.842 223.775 261.181 215.082C258.925 209.678 256.99 204.146 255.386 198.513C254.938 196.696 254.174 196.88 260.233 194.905ZM229.386 200.463C231.467 198.171 232.969 197.829 253.779 200.463C255.63 206.744 257.873 212.902 260.496 218.902C256.214 222.24 251.305 224.686 246.061 226.093C245.903 224.961 245.534 225.303 246.43 225.382C247.186 225.404 247.938 225.255 248.629 224.947C249.32 224.639 249.934 224.18 250.424 223.604C250.915 223.028 251.269 222.349 251.463 221.617C251.656 220.885 251.682 220.12 251.54 219.376C251.329 216.742 243.795 211.263 241.662 209.761C242.928 210.022 244.243 209.922 245.455 209.472C245.563 209.437 245.653 209.36 245.705 209.259C245.757 209.158 245.766 209.04 245.731 208.932C245.697 208.823 245.62 208.733 245.519 208.682C245.417 208.63 245.3 208.62 245.191 208.655C240.766 209.814 236.288 204.546 235.708 204.388C233.68 203.887 234.945 208.602 230.44 211.421C229.781 211.842 227.253 210.894 227.095 209.603C226.763 208.006 226.797 206.354 227.194 204.771C227.591 203.188 228.34 201.715 229.386 200.463ZM199.936 208.76C203.308 207.549 220.483 202.228 225.435 203.492C224.878 205.596 224.752 207.792 225.066 209.946C225.234 210.63 225.547 211.27 225.984 211.823C226.421 212.375 226.972 212.826 227.6 213.147C228.227 213.467 228.916 213.647 229.62 213.677C230.324 213.707 231.026 213.584 231.678 213.318C233.514 212.093 234.894 210.297 235.603 208.207C237.947 209.63 249.591 217.348 249.432 220.087C249.432 221.931 248.458 223.486 246.614 223.327C245.057 222.77 243.586 221.998 242.241 221.036C240.888 219.955 239.462 218.969 237.974 218.085C237.737 217.963 237.463 217.932 237.205 217.999C236.947 218.066 236.723 218.226 236.576 218.448C236.428 218.67 236.369 218.939 236.408 219.203C236.447 219.467 236.583 219.707 236.788 219.877C236.788 219.877 238.764 221.352 240.95 222.774C244.243 225.409 245.376 227.832 241.293 229.07C240.654 229.26 239.982 229.316 239.32 229.234C238.659 229.152 238.021 228.935 237.447 228.596C236.776 227.27 235.885 226.068 234.813 225.04C234.334 223.809 233.476 222.763 232.363 222.052C231.25 221.342 229.94 221.004 228.622 221.088C227.253 221.246 227.147 221.931 227.279 221.299C227.911 218.164 223.907 216.268 221.115 216.795C216.611 217.69 214.108 223.644 212.633 227.99C211.737 229.887 215.267 227.779 199.857 233.258C200.291 225.608 200.291 217.939 199.857 210.288C199.725 208.471 199.673 208.892 199.936 208.76ZM213.371 228.28C214.819 225.171 218.007 219.35 221.405 218.823C222.722 218.586 225.382 219.482 225.093 220.825C224.522 224.392 222.877 227.7 220.377 230.308C220.694 230.835 212.449 230.993 213.371 228.28ZM228.28 223.248C228.912 222.616 232.6 223.907 232.705 225.883C232.89 229.175 229.755 233.1 227.042 234.918C226.173 235.524 222.748 232.732 221.958 231.599C223.839 228.651 225.954 225.859 228.28 223.248ZM232.732 232.02C232.916 231.757 235.55 225.909 235.998 230.756C236.183 232.652 233.364 233.653 231.52 233.39C231.949 232.956 232.353 232.499 232.732 232.02ZM291.316 266.265C280.226 274.878 278.646 286.205 280.463 299.719C262.656 293.397 249.064 289.182 243.769 288.734C236.603 288.882 229.471 289.765 222.485 291.368C223.196 284.282 222.88 259.416 217.849 254.305C212.817 249.195 194.562 242.215 187.687 239.58H189.241C189.847 239.264 188.846 236.498 191.138 236.34C193.904 236.182 197.776 237.236 199.041 236.13C199.418 235.556 199.636 234.892 199.673 234.207C202.57 233.285 209.393 231.204 212.844 230.308C214.004 231.229 215.362 231.868 216.811 232.174C218.26 232.48 219.761 232.446 221.194 232.073C221.984 233.838 225.672 237.71 227.964 236.446C228.6 236.079 229.207 235.665 229.781 235.208C231.448 235.669 233.217 235.596 234.839 234.997C235.697 234.763 236.463 234.271 237.033 233.588C237.603 232.905 237.95 232.064 238.026 231.177C239.406 231.573 240.876 231.51 242.216 230.997C243.556 230.484 244.693 229.549 245.455 228.332C251.23 227.035 256.635 224.44 261.26 220.746C261.76 221.826 262.235 222.748 262.63 223.38C262.761 223.602 262.945 223.789 263.165 223.922C263.386 224.055 263.637 224.132 263.894 224.144C266.528 224.408 272.745 221.51 273.008 221.51C273.911 223.392 275.034 225.161 276.354 226.778C276.828 227.252 277.618 227.121 278.356 227.042C285.995 226.12 323.927 217.954 334.069 215.425C347.24 212.132 355.827 202.886 364.862 194.088C364.362 209.208 366.338 216.584 360.358 246.271C347.924 247.817 335.605 250.176 323.479 253.331C312.864 256.36 300.22 259.363 291.316 266.291V266.265ZM329.749 318.237L328.827 317.868C328.616 304.487 331.935 292.159 341.734 283.018C342.601 283.239 343.481 283.406 344.368 283.519C334.28 292.159 330.302 304.75 329.749 318.237ZM371.342 274.325C363.44 278.961 365.758 281.464 358.514 282.228C352.711 282.626 346.88 282.174 341.207 280.884C336.624 279.409 339.047 277.644 343.842 277.117C344.658 277.249 351.086 277.302 354.115 277.117C354.362 277.078 354.588 276.952 354.751 276.761C354.913 276.57 355.003 276.328 355.003 276.077C355.003 275.826 354.913 275.584 354.751 275.393C354.588 275.202 354.362 275.076 354.115 275.036C350.698 274.742 347.266 274.69 343.842 274.878C341.661 274.847 339.49 274.591 337.362 274.115C337.15 273.769 337.027 273.377 337.004 272.972C336.981 272.568 337.058 272.164 337.23 271.796C339.996 270.137 353.035 270.769 355.195 270.69C355.449 270.65 355.681 270.521 355.848 270.325C356.015 270.129 356.107 269.881 356.107 269.623C356.107 269.366 356.015 269.117 355.848 268.922C355.681 268.726 355.449 268.596 355.195 268.556C350.873 268.648 346.55 268.419 342.261 267.872C340.417 267.555 336.123 266.633 336.44 264.763C337.019 261.391 343.947 264.289 348.82 263.947C352.258 263.895 355.662 263.254 358.883 262.05C359.124 261.977 359.326 261.811 359.444 261.588C359.563 261.366 359.588 261.106 359.515 260.865C359.442 260.624 359.276 260.422 359.053 260.303C358.831 260.184 358.571 260.159 358.33 260.232C355.034 261.025 351.69 261.605 348.32 261.971C348.106 261.927 347.916 261.806 347.785 261.631C347.654 261.457 347.591 261.24 347.609 261.023C347.646 260.53 347.771 260.049 347.977 259.6C349.336 257.829 351.16 256.47 353.246 255.675C360.727 252.567 366.417 255.675 374.978 256.228C376.052 261.099 377.415 265.902 379.061 270.611C376.435 271.661 373.891 272.902 371.448 274.325H371.342ZM381.405 271.112C380.483 268.003 377.059 256.729 376.716 254.095C378.076 253.431 379.508 252.927 380.984 252.593C382.195 257.098 384.434 264.921 385.883 269.294C384.47 270.001 383.009 270.608 381.51 271.112H381.405ZM388.86 271.112C387.464 267.951 383.328 253.225 382.38 249.538C386.911 245.823 427.582 225.83 433.641 219.745C435.538 217.848 429.137 182.155 436.644 152.784C440.648 136.979 448.498 112.139 464.698 112.692C475.814 113.061 482.163 121.543 485.771 132.132C492.383 151.625 489.749 178.678 489.749 178.415C489.749 200.515 481.847 233.732 466.041 249.538C454.109 261.497 396.288 272.455 388.965 271.191L388.86 271.112ZM497.467 291.131C494.385 290.315 480.24 285.099 474.26 284.599C443.203 281.964 445.126 276.064 425.923 267.634C436.46 265 459.877 258.889 467.648 251.197C484.059 234.918 491.646 201.358 491.567 178.652C492.176 170.699 492.176 162.712 491.567 154.76C497.388 187.792 500.971 281.121 497.467 291.131Z" fill="#191919"/>
<path fill-rule="evenodd" clip-rule="evenodd" d="M90.1699 113.061L81.5298 114.062C84.1638 116.539 86.5624 119.255 88.6948 122.175L91.0919 114.272C91.165 114.131 91.1965 113.971 91.1826 113.812C91.1688 113.654 91.1102 113.502 91.0137 113.375C90.9172 113.248 90.7867 113.151 90.6373 113.096C90.488 113.04 90.3259 113.028 90.1699 113.061ZM340.049 353.456C337.876 352.081 335.477 351.1 332.963 350.559C338.942 340.838 337.862 329.485 336.282 328.484C334.794 326.968 332.813 326.034 330.697 325.85C322.795 324.19 303.644 324.059 298.586 328.273C297.48 329.195 296.822 330.697 297.902 331.698C297.387 337.942 298.696 344.201 301.668 349.716C299.034 350.216 295.979 351.217 294.978 353.588C294.805 354.098 294.758 354.642 294.84 355.174C294.923 355.706 295.133 356.21 295.452 356.643C297.474 359.151 300.242 360.95 303.354 361.78C308.852 363.453 314.621 364.052 320.345 363.545C325.814 363.322 331.236 362.438 336.492 360.911C342.314 358.751 342.261 355.195 340.049 353.456ZM298.824 332.172C304.486 333.719 310.341 334.446 316.209 334.332C322.608 333.894 328.927 332.655 335.017 330.644C335.545 334.268 335.351 337.96 334.447 341.509C333.543 345.058 331.946 348.393 329.749 351.322C329.218 352.253 328.452 353.027 327.527 353.568C326.602 354.109 325.552 354.398 324.48 354.404C320.793 354.879 310.73 355.142 308.675 354.22C302.011 351.138 298.718 339.943 298.824 332.172ZM320.239 361.148C314.802 361.663 309.316 361.108 304.092 359.515C301.727 358.87 299.55 357.669 297.744 356.011C297.322 355.564 296.637 354.668 296.848 354.115C297.533 352.376 300.878 351.48 302.722 351.164C304.042 353.178 305.856 354.819 307.991 355.932C310.625 357.276 325.218 357.118 327.931 355.722C329.623 354.689 331.055 353.284 332.12 351.612C333.674 352.06 339.1 353.904 339.469 355.379C340.654 359.91 324.981 360.99 320.239 361.28V361.148Z" fill="#191919"/>
</svg>
