<svg width="92" height="90" viewBox="0 0 92 90" fill="none" xmlns="http://www.w3.org/2000/svg">
<circle cx="21" cy="69" r="21" fill="#FFD100"/>
<path d="M47.4133 50.257L57.003 19.5723C57.5368 17.8623 59.8507 17.6515 60.6921 19.1376L60.8598 19.4924L69.163 40.2503L76.6919 40.2503L76.6943 40.2503C77.2003 40.2514 77.6868 40.4455 78.0548 40.7929C78.4234 41.1408 78.6452 41.6164 78.6749 42.1224C78.7046 42.6284 78.54 43.1266 78.2147 43.5153C77.9017 43.8892 77.4627 44.1346 76.9817 44.206L76.6214 44.2275H67.8463C67.4818 44.2278 67.1239 44.13 66.8102 43.9444C66.5135 43.769 66.2667 43.5212 66.0924 43.2246L65.9315 42.8843L59.1708 25.9719L49.7731 56.0455C49.2612 57.6803 47.0977 57.9625 46.1779 56.6221L45.9853 56.285L39.9491 44.2275H32.3081C31.8013 44.227 31.3137 44.0329 30.9452 43.685C30.5766 43.337 30.3548 42.8615 30.3251 42.3555C30.2954 41.8495 30.46 41.3512 30.7853 40.9625C31.0983 40.5886 31.5373 40.3432 32.0183 40.2718L32.3786 40.2503H41.1566C41.8203 40.2503 42.4314 40.5702 42.8085 41.0972L43.0043 41.4391L47.4133 50.257Z" fill="#191919"/>
<path fill-rule="evenodd" clip-rule="evenodd" d="M85.5724 0.299988C87.2771 0.299988 88.912 0.977174 90.1174 2.18258C91.3228 3.38798 92 5.02285 92 6.72754V68.8724C92 70.5771 91.3228 72.212 90.1174 73.4174C88.912 74.6228 87.2771 75.3 85.5724 75.3H23.4276C21.7229 75.3 20.088 74.6228 18.8826 73.4174C17.6772 72.212 17 70.5771 17 68.8724V6.72754C17 5.02285 17.6772 3.38798 18.8826 2.18258C20.088 0.977175 21.7229 0.299988 23.4276 0.299988H85.5724ZM85.0227 71.3227C86.6796 71.3227 88.0227 69.9796 88.0227 68.3227V7.27726C88.0227 5.62041 86.6796 4.27726 85.0227 4.27726H23.9773C22.3204 4.27726 20.9773 5.62041 20.9773 7.27726V68.3227C20.9773 69.9796 22.3204 71.3227 23.9773 71.3227H85.0227Z" fill="#191919"/>
</svg>
