<svg width="16" height="16" viewBox="0 0 16 16" fill="none" xmlns="http://www.w3.org/2000/svg">
<path d="M4.0004 0.223898C5.01256 0.961829 5.77869 1.99862 6.43102 2.95128L6.94231 3.70283C7.10108 3.93484 7.17373 4.21504 7.14768 4.49494C7.12163 4.77485 6.99852 5.03684 6.79966 5.23558L5.71297 6.32204L5.82757 6.56562C6.10806 7.13369 6.5921 7.95174 7.32056 8.68086C7.82358 9.17618 8.39066 9.60194 9.00669 9.9468L9.3008 10.1046L9.56286 10.2344L9.67986 10.2881L10.7657 9.20166C10.9653 9.0024 11.2285 8.87953 11.5094 8.85449C11.7904 8.82945 12.0711 8.90383 12.3028 9.06465L13.1154 9.62791C14.0386 10.2769 15.0027 11.0164 15.752 11.9763C15.8815 12.1429 15.9639 12.3412 15.9906 12.5505C16.0172 12.7598 15.9871 12.9724 15.9035 13.1661C15.2327 14.7309 13.5354 16.0634 11.7699 15.9977L11.5295 15.9848L11.3427 15.9688L11.136 15.9448L10.9108 15.9143L10.6664 15.8735L10.4051 15.8222L10.1278 15.7605L9.83453 15.6852L9.526 15.5971L9.20384 15.4929C7.72447 14.9913 5.8468 14.0058 3.92026 12.0797C1.99451 10.1543 1.0088 8.27704 0.50713 6.79797L0.402949 6.47588L0.314796 6.16741L0.239465 5.87416L0.176956 5.59693C0.158902 5.51011 0.142071 5.42303 0.126469 5.33573L0.086399 5.09136L0.0543433 4.86621L0.031103 4.65949L0.0150751 4.47281L0.00225286 4.23244C-0.0626599 2.47294 1.28448 0.763926 2.84239 0.0965031C3.02989 0.0155526 3.23523 -0.0152677 3.43825 0.00706651C3.64126 0.0294007 3.83498 0.104122 4.0004 0.223898ZM3.25751 1.67252C2.39841 2.12121 1.56657 3.14678 1.60424 4.17315L1.62026 4.43595L1.63789 4.6002L1.66113 4.78449L1.69319 4.9872L1.73406 5.20914L1.78615 5.4479L1.85026 5.7043L1.9272 5.97591L2.01855 6.26275C2.05221 6.3605 2.08747 6.46066 2.12594 6.56321L2.24936 6.87729L2.3904 7.20339C2.89368 8.31069 3.7143 9.60708 5.05503 10.9467C6.39496 12.2864 7.69161 13.1076 8.79913 13.6108L9.1253 13.7518L9.43944 13.8752C9.54202 13.9137 9.6422 13.9489 9.73997 13.9826L10.0269 14.0739L10.2993 14.1508L10.555 14.2149L10.7938 14.267L11.0158 14.3079L11.2193 14.3399L11.4037 14.364L11.5671 14.38L11.83 14.396C12.843 14.4337 13.8768 13.6068 14.3239 12.7591C13.7533 12.0901 13.0449 11.5412 12.2635 10.9884L11.6641 10.571L11.5118 10.7304L11.1865 11.0853L11.0142 11.2664C10.5446 11.7448 9.99641 12.151 9.33927 11.8858L9.15816 11.8097L8.93697 11.7103L8.81356 11.6518L8.54269 11.5164L8.24537 11.3562C7.49296 10.9375 6.80091 10.4187 6.1882 9.81379C5.58321 9.20119 5.06424 8.50929 4.64552 7.75704L4.48524 7.46059L4.349 7.18897L4.19193 6.84444L4.115 6.66176C3.86576 6.04562 4.20876 5.52562 4.64712 5.07533L4.82663 4.89906L5.27301 4.48803L5.43329 4.3358L5.05423 3.78055C4.49085 2.9633 3.94029 2.22617 3.25671 1.67172L3.25751 1.67252ZM10.5205 3.10431L10.6135 3.11473C11.1968 3.2176 11.7326 3.50248 12.1441 3.92852C12.5555 4.35456 12.8215 4.89989 12.9039 5.48636C12.9332 5.68922 12.8837 5.89561 12.7655 6.06309C12.6473 6.23056 12.4694 6.34638 12.2684 6.38672C12.0674 6.42706 11.8586 6.38884 11.6849 6.27994C11.5113 6.17103 11.3859 5.99972 11.3347 5.80124L11.3163 5.7091C11.2841 5.47923 11.1859 5.26361 11.0338 5.0883C10.8816 4.91299 10.6819 4.78548 10.4588 4.72119L10.3346 4.69315C10.1334 4.65749 9.95337 4.54631 9.83141 4.38235C9.70945 4.2184 9.65475 4.01405 9.6785 3.81111C9.70225 3.60817 9.80265 3.42197 9.95916 3.29058C10.1157 3.1592 10.3165 3.09257 10.5205 3.10431ZM10.5261 0.66858C11.8014 0.66858 13.0244 1.17507 13.9262 2.07662C14.8279 2.97818 15.3345 4.20095 15.3345 5.47595C15.3343 5.68016 15.256 5.87659 15.1158 6.02508C14.9756 6.17358 14.784 6.26294 14.5801 6.27491C14.3762 6.28688 14.1754 6.22055 14.0187 6.08947C13.8621 5.9584 13.7614 5.77248 13.7373 5.56969L13.7317 5.47595C13.732 4.66223 13.4226 3.87891 12.8662 3.28501C12.3098 2.69111 11.5483 2.33116 10.7361 2.27825L10.5261 2.27104C10.3136 2.27104 10.1098 2.18662 9.95946 2.03636C9.80917 1.8861 9.72474 1.68231 9.72474 1.46981C9.72474 1.25731 9.80917 1.05351 9.95946 0.903254C10.1098 0.752995 10.3136 0.66858 10.5261 0.66858Z" fill="white"/>
</svg>
