<svg width="79" height="40" viewBox="0 0 79 40" fill="none" xmlns="http://www.w3.org/2000/svg">
<path d="M6.20209 8.25769H17.7885C21.1892 8.28624 23.6535 9.26673 25.1814 11.1975C26.7092 13.1283 27.2133 15.7655 26.6945 19.1092C26.493 20.637 26.046 22.1355 25.3543 23.6054C24.6911 25.0753 23.7694 26.4008 22.5874 27.5828C21.146 29.0813 19.6043 30.0324 17.9615 30.4362C16.3186 30.84 14.6178 31.0415 12.86 31.0415H7.67201L6.02916 39.2557H0.0197754L6.20209 8.25769ZM11.2603 13.1862L8.66637 26.1561C8.8393 26.1847 9.01223 26.1994 9.18516 26.1994C9.38664 26.1994 9.58894 26.1994 9.79042 26.1994C12.5573 26.2279 14.8634 25.9547 16.7077 25.3779C18.552 24.7727 19.7919 22.6689 20.4257 19.0659C20.9445 16.0396 20.4257 14.2956 18.8693 13.8347C17.3415 13.3739 15.4254 13.1577 13.1194 13.1862C12.7735 13.2148 12.4423 13.2295 12.125 13.2295C11.8371 13.2295 11.5344 13.2295 11.2171 13.2295L11.2603 13.1862Z" fill="#777BB3"/>
<path d="M33.54 0H39.5061L37.8201 8.25749H43.1809C46.1208 8.31541 48.311 8.92067 49.7524 10.0733C51.2223 11.2259 51.6546 13.4169 51.0493 16.6447L48.1527 31.0413H42.1001L44.867 17.2932C45.155 15.8518 45.0685 14.8289 44.6076 14.2236C44.1468 13.6184 43.1524 13.3157 41.6246 13.3157L36.8257 13.2725L33.2806 31.0413H27.3145L33.54 0Z" fill="#777BB3"/>
<path d="M57.4559 8.25769H69.0424C72.4431 8.28624 74.9074 9.26673 76.4352 11.1975C77.963 13.1283 78.4671 15.7655 77.9484 19.1092C77.7469 20.637 77.2999 22.1355 76.6081 23.6054C75.945 25.0753 75.0232 26.4008 73.8412 27.5828C72.3999 29.0813 70.8582 30.0324 69.2153 30.4362C67.5724 30.84 65.8717 31.0415 64.1138 31.0415H58.9259L57.283 39.2557H51.2736L57.4559 8.25769ZM62.5142 13.1862L59.9202 26.1561C60.0931 26.1847 60.2661 26.1994 60.439 26.1994C60.6405 26.1994 60.8428 26.1994 61.0443 26.1994C63.8112 26.2279 66.1172 25.9547 67.9615 25.3779C69.8059 24.7727 71.0458 22.6689 71.6796 19.0659C72.1984 16.0396 71.6796 14.2956 70.1232 13.8347C68.5954 13.3739 66.6792 13.1577 64.3732 13.1862C64.0273 13.2148 63.6962 13.2295 63.3788 13.2295C63.0909 13.2295 62.7883 13.2295 62.471 13.2295L62.5142 13.1862Z" fill="#777BB3"/>
</svg>
