<svg width="54" height="54" viewBox="0 0 54 54" fill="none" xmlns="http://www.w3.org/2000/svg">
<path d="M48.3687 10.4972C45.1046 6.27046 40.6605 3.10665 35.5982 1.40587C30.536 -0.294913 25.0831 -0.456272 19.9291 0.942201C14.7751 2.34067 10.1517 5.23616 6.6434 9.26246C3.13513 13.2888 0.899678 18.265 0.21975 23.5619C-0.460179 28.8587 0.445963 34.2383 2.82357 39.0201C5.20118 43.8019 8.94346 47.7713 13.5771 50.4261C18.2108 53.081 23.5277 54.3021 28.8553 53.935C34.183 53.5679 39.2822 51.6292 43.508 48.3639C55.3033 39.2482 57.481 22.2968 48.3687 10.4972Z" fill="#FF6C37"/>
<path d="M36.1058 20.2032L24.7213 31.678L21.5042 28.3706C32.7089 17.1658 33.8328 18.1783 36.1058 20.2032Z" fill="white"/>
<path d="M24.7213 31.9919C24.6205 31.9894 24.5242 31.9494 24.4513 31.8797L21.2114 28.6397C21.1384 28.5642 21.0977 28.4633 21.0977 28.3583C21.0977 28.2534 21.1384 28.1525 21.2114 28.077C32.2584 17.03 33.7661 17.5472 36.3758 19.9096C36.4195 19.9446 36.4544 19.9893 36.4779 20.0401C36.5013 20.0909 36.5126 20.1465 36.5108 20.2024C36.5276 20.3121 36.4855 20.4243 36.3986 20.4952L25.0141 31.8805C24.9342 31.9537 24.8296 31.993 24.7213 31.9919ZM22.0661 28.3697L24.7213 31.025L35.5211 20.2252C35.1482 19.7579 34.6161 19.4444 34.0266 19.3448C33.4371 19.2452 32.8316 19.3664 32.3259 19.6852C30.3684 20.5627 27.2187 23.2398 22.0661 28.3697Z" fill="#FF6C37"/>
<path d="M27.9841 34.8504L24.8792 31.6779L36.2636 20.4276C39.3238 23.4203 34.7787 28.4161 27.9841 34.8504Z" fill="white"/>
<path d="M27.9842 35.2553C27.8846 35.2474 27.7901 35.2081 27.7142 35.1431L24.5418 32.0382C24.4942 31.9228 24.4942 31.7933 24.5418 31.6779C24.5081 31.5832 24.5081 31.4798 24.5418 31.3851L35.9263 20.0007C36.0054 19.9263 36.11 19.8849 36.2186 19.8849C36.3273 19.8849 36.4318 19.9263 36.511 20.0007C36.8797 20.34 37.1709 20.7547 37.365 21.2167C37.5591 21.6787 37.6514 22.177 37.6357 22.6778C37.6357 25.7153 34.1705 29.5399 28.2761 35.1203C28.1974 35.1983 28.0946 35.2461 27.9842 35.2553ZM25.464 31.6779L28.0062 34.2192C32.5058 29.9668 36.8038 25.5794 36.8257 22.6095C36.8502 21.9799 36.642 21.3633 36.241 20.8773L25.464 31.6779Z" fill="#FF6C37"/>
<path d="M21.5938 28.4381L23.844 30.6884C23.8584 30.701 23.8699 30.7166 23.8778 30.7341C23.8857 30.7515 23.8897 30.7705 23.8897 30.7896C23.8897 30.8088 23.8857 30.8277 23.8778 30.8451C23.8699 30.8626 23.8584 30.8782 23.844 30.8909L19.0963 31.9033C19.0005 31.924 18.9005 31.9128 18.8117 31.8714C18.7228 31.83 18.6498 31.7608 18.604 31.6741C18.5581 31.5874 18.5418 31.4882 18.5576 31.3914C18.5734 31.2946 18.6203 31.2057 18.6914 31.1381L21.4588 28.3934C21.4588 28.3934 21.5491 28.3934 21.5938 28.4381Z" fill="white"/>
<path d="M18.984 32.3529C18.834 32.3511 18.687 32.3107 18.557 32.2359C18.427 32.161 18.3184 32.054 18.2415 31.9252C18.155 31.762 18.1236 31.5752 18.152 31.3927C18.1805 31.2102 18.2672 31.0418 18.3993 30.9127L21.1439 28.1453C21.2429 28.0568 21.371 28.0079 21.5038 28.0079C21.6366 28.0079 21.7647 28.0568 21.8636 28.1453L24.1139 30.3955C24.2472 30.522 24.2995 30.7136 24.2489 30.8908C24.1983 31.0679 24.0498 31.2088 23.8667 31.251L19.119 32.2635L18.984 32.3529ZM21.5042 28.9333L18.9621 31.4755L23.1697 30.5752L21.5042 28.9333Z" fill="#FF6C37"/>
<path d="M42.1587 13.8803C40.5303 12.3092 37.9721 12.2434 36.2644 13.7259C34.5567 15.2083 34.2648 17.753 35.5945 19.5839C36.9242 21.4148 39.4309 21.9278 41.3715 20.7651L38.3113 17.7049L42.1587 13.8803Z" fill="white"/>
<path d="M39.1214 21.7996C38.1858 21.7876 37.2745 21.5006 36.5009 20.9742C35.7273 20.4479 35.1258 19.7056 34.7711 18.8398C34.4167 17.9746 34.3238 17.0245 34.5037 16.107C34.6837 15.1896 35.1286 14.345 35.7836 13.6778C36.6844 12.7936 37.8963 12.2982 39.1585 12.2982C40.4208 12.2982 41.6327 12.7936 42.5335 13.6778C42.6195 13.7504 42.6685 13.8575 42.6685 13.9706C42.6683 14.0262 42.6561 14.0811 42.6328 14.1317C42.6095 14.1822 42.5756 14.2271 42.5335 14.2634L38.8885 17.7058L41.656 20.4285C41.7008 20.4713 41.7345 20.5245 41.754 20.5833C41.7736 20.6421 41.7785 20.7049 41.7682 20.766C41.7615 20.825 41.742 20.8818 41.7109 20.9324C41.6799 20.983 41.6381 21.0261 41.5885 21.0588C40.845 21.5235 39.9903 21.7799 39.1138 21.8013L39.1214 21.7996ZM39.1214 13.0695C37.5183 13.0779 36.084 14.0423 35.4824 15.5163C34.8808 16.9903 35.2082 18.6871 36.332 19.8193C36.891 20.3816 37.6068 20.7619 38.3856 20.9105C39.1644 21.0591 39.9699 20.969 40.6967 20.6521L38.0414 17.9969C37.9992 17.9631 37.9651 17.9203 37.9417 17.8716C37.9183 17.8229 37.9061 17.7695 37.9061 17.7155C37.9061 17.6615 37.9183 17.6081 37.9417 17.5594C37.9651 17.5107 37.9992 17.4679 38.0414 17.4341L41.5514 13.9014C40.8536 13.3667 40.0005 13.0751 39.1214 13.0695Z" fill="#FF6C37"/>
<path d="M42.2263 13.9478L38.3789 17.7725L41.4391 20.8327C41.7471 20.6559 42.0339 20.4444 42.2938 20.2024C43.0959 19.3547 43.5372 18.2285 43.5246 17.0615C43.512 15.8945 43.0465 14.7781 42.2263 13.9478Z" fill="white"/>
<path d="M41.3708 21.1702C41.3202 21.1729 41.2697 21.1643 41.223 21.1448C41.1763 21.1254 41.1345 21.0957 41.1008 21.058L38.0406 17.9978C37.9983 17.964 37.9643 17.9212 37.9409 17.8725C37.9174 17.8238 37.9053 17.7704 37.9053 17.7164C37.9053 17.6623 37.9174 17.609 37.9409 17.5603C37.9643 17.5116 37.9983 17.4688 38.0406 17.435L41.8652 13.6779C41.9021 13.6222 41.9523 13.5765 42.0112 13.5449C42.0701 13.5133 42.1359 13.4967 42.2027 13.4967C42.2695 13.4967 42.3353 13.5133 42.3942 13.5449C42.4531 13.5765 42.5032 13.6222 42.5402 13.6779C42.9892 14.1178 43.3459 14.6429 43.5894 15.2224C43.8329 15.8019 43.9583 16.4242 43.9583 17.0528C43.9583 17.6814 43.8329 18.3037 43.5894 18.8832C43.3459 19.4627 42.9892 19.9878 42.5402 20.4277C42.2753 20.7086 41.9723 20.9509 41.6399 21.1474C41.5562 21.1896 41.4603 21.1978 41.3708 21.1702ZM38.8961 17.7058L41.4383 20.248C41.6131 20.1254 41.7787 19.9901 41.9335 19.843C42.6809 19.0977 43.1018 18.0863 43.1038 17.0309C43.1055 16.0863 42.7612 15.1739 42.136 14.4659L38.8961 17.7058Z" fill="#FF6C37"/>
<path d="M36.5784 20.6757C36.2737 20.3895 35.8713 20.2302 35.4533 20.2302C35.0352 20.2302 34.6329 20.3895 34.3282 20.6757L24.1367 30.8443L25.8242 32.5546L36.6012 23.1048C36.7655 22.9472 36.8959 22.7578 36.9843 22.548C37.0726 22.3382 37.1171 22.1125 37.115 21.8849C37.1128 21.6572 37.0641 21.4324 36.9718 21.2243C36.8796 21.0162 36.7457 20.8301 36.5784 20.6757Z" fill="white"/>
<path d="M25.7339 32.9605C25.633 32.958 25.5367 32.918 25.4639 32.8483L23.7536 31.138C23.6807 31.0625 23.6399 30.9617 23.6399 30.8567C23.6399 30.7517 23.6807 30.6508 23.7536 30.5753L33.9459 20.4277C34.2395 20.1345 34.6144 19.9362 35.022 19.8587C35.4296 19.7811 35.8511 19.8278 36.2318 19.9926C36.6126 20.1575 36.935 20.433 37.1573 20.7833C37.3796 21.1336 37.4916 21.5427 37.4786 21.9574C37.4669 22.2389 37.3992 22.5152 37.2794 22.7702C37.1596 23.0252 36.9901 23.2537 36.7808 23.4424L26.0038 32.8922C25.9255 32.9476 25.8291 32.9726 25.7339 32.9605ZM24.5417 30.8444L25.6664 31.9919L36.2408 22.7893C36.5024 22.5615 36.6585 22.2358 36.6686 21.8891C36.6787 21.5423 36.5421 21.2031 36.2864 20.9669C36.0503 20.7318 35.7307 20.5998 35.3975 20.5998C35.0644 20.5998 34.7448 20.7318 34.5087 20.9669L24.5417 30.8444Z" fill="#FF6C37"/>
<path d="M16.2393 42.4322C16.2105 42.4713 16.195 42.5186 16.195 42.5672C16.195 42.6158 16.2105 42.6631 16.2393 42.7022L16.689 44.6596C16.7071 44.7748 16.69 44.8928 16.64 44.9981C16.59 45.1035 16.5095 45.1913 16.4089 45.2503C16.3087 45.3089 16.1924 45.3342 16.0769 45.3225C15.9613 45.3108 15.8525 45.2628 15.766 45.1853L12.6838 42.2153L22.2914 32.5318H25.6216L27.8719 34.7821C24.3617 37.8511 20.4478 40.425 16.2393 42.4322Z" fill="white"/>
<path d="M16.037 45.7396C15.7822 45.7345 15.5307 45.6299 15.362 45.4468L12.4148 42.4997C12.3726 42.4659 12.3385 42.4231 12.3151 42.3744C12.2917 42.3257 12.2795 42.2723 12.2795 42.2183C12.2795 42.1642 12.2917 42.1109 12.3151 42.0622C12.3385 42.0135 12.3726 41.9706 12.4148 41.9369L22.0891 32.2399C22.1432 32.1823 22.214 32.1431 22.2916 32.1277H25.6437C25.7311 32.0968 25.8264 32.0968 25.9137 32.1277L28.1639 34.3779C28.2067 34.4173 28.2393 34.4666 28.2588 34.5214C28.2784 34.5762 28.2843 34.635 28.2762 34.6926C28.2777 34.7485 28.2664 34.804 28.243 34.8548C28.2195 34.9056 28.1847 34.9503 28.1412 34.9854L27.9614 35.1432C24.4371 38.0813 20.5597 40.5679 16.4192 42.5452L16.847 44.3677C16.88 44.5083 16.8813 44.6545 16.8507 44.7956C16.82 44.9367 16.7583 45.0693 16.6699 45.1835C16.5815 45.2977 16.4688 45.3908 16.3399 45.4559C16.211 45.521 16.0691 45.5566 15.9248 45.5599L16.037 45.7396ZM13.2923 42.2069L15.9467 44.884C15.9714 44.9061 16.0034 44.9183 16.0365 44.9183C16.0697 44.9183 16.1017 44.9061 16.1264 44.884C16.143 44.8611 16.1519 44.8335 16.1519 44.8052C16.1519 44.7768 16.143 44.7492 16.1264 44.7263L15.6767 42.7688C15.6413 42.6283 15.6555 42.4799 15.717 42.3487C15.7785 42.2176 15.8835 42.1117 16.0142 42.0491C20.0434 40.0982 23.8208 37.6653 27.2637 34.804L25.4184 32.9587H22.4038L13.2923 42.2069Z" fill="#FF6C37"/>
<path d="M10.367 44.5247L12.6173 42.2745L16.0825 45.7397L10.5704 45.3575C10.4757 45.3501 10.3859 45.3129 10.3136 45.2514C10.2413 45.1899 10.1903 45.1071 10.1678 45.0149C10.1454 44.9226 10.1526 44.8256 10.1885 44.7378C10.2245 44.6499 10.2872 44.5756 10.3679 44.5256L10.367 44.5247Z" fill="white"/>
<path d="M16.1491 46.0771L10.6589 45.6949C10.3333 45.6645 10.0531 45.4418 9.9384 45.144C9.82365 44.8461 9.89368 44.4926 10.119 44.2547L12.3692 42.0044C12.4447 41.9315 12.5456 41.8907 12.6506 41.8907C12.7556 41.8907 12.8564 41.9315 12.932 42.0044L16.3744 45.4469C16.422 45.5121 16.4477 45.5909 16.4477 45.6717C16.4477 45.7525 16.422 45.8313 16.3744 45.8966C16.3223 45.9807 16.2427 46.0451 16.1491 46.0771ZM10.6589 44.8174L15.1586 45.1102L12.6839 42.7925L10.6589 44.8174Z" fill="#FF6C37"/>
<path d="M25.9363 32.8035L21.3911 33.5013L24.0236 30.8916L25.9363 32.8035Z" fill="white"/>
<path d="M21.3913 33.9274C21.3158 33.9294 21.2413 33.9091 21.1772 33.869C21.1132 33.829 21.0623 33.7709 21.031 33.7021C20.9831 33.637 20.9573 33.5582 20.9573 33.4773C20.9573 33.3964 20.9831 33.3176 21.031 33.2524L23.6407 30.62C23.7199 30.5456 23.8244 30.5042 23.933 30.5042C24.0417 30.5042 24.1462 30.5456 24.2254 30.62L26.139 32.5319C26.1772 32.5925 26.1975 32.6627 26.1975 32.7344C26.1975 32.8061 26.1772 32.8763 26.139 32.9369C26.1202 33.0108 26.0805 33.0777 26.0247 33.1296C25.9689 33.1815 25.8993 33.2163 25.8243 33.2297L21.3246 33.9274H21.3913ZM24.0237 31.4747L22.5615 32.9369L25.0818 32.5547L24.0237 31.4747Z" fill="#FF6C37"/>
<path d="M25.9364 32.8018L22.7639 33.2068C22.679 33.2261 22.5902 33.2175 22.5106 33.1823C22.4309 33.1471 22.3648 33.0872 22.3219 33.0114C22.279 32.9357 22.2616 32.8481 22.2724 32.7617C22.2832 32.6753 22.3215 32.5947 22.3817 32.5318L24.0245 30.8891L25.9364 32.8018Z" fill="white"/>
<path d="M22.6737 33.6354C22.5266 33.634 22.3826 33.5937 22.2561 33.5186C22.1297 33.4434 22.0255 33.3361 21.954 33.2076C21.868 33.0536 21.8347 32.8758 21.8591 32.7011C21.8835 32.5265 21.9642 32.3645 22.089 32.2399L23.7317 30.5971C23.8109 30.5228 23.9154 30.4813 24.024 30.4813C24.1327 30.4813 24.2372 30.5228 24.3164 30.5971L26.2291 32.5099C26.286 32.5638 26.3261 32.633 26.3444 32.7092C26.3627 32.7854 26.3585 32.8653 26.3323 32.9391C26.3062 33.013 26.2591 33.0777 26.1969 33.1253C26.1347 33.173 26.0601 33.2016 25.9819 33.2076L22.8323 33.6126L22.6737 33.6354ZM22.6737 32.8027L25.0589 32.5099L24.0017 31.4527L22.6517 32.8027H22.6737ZM42.2482 16.5355C42.2059 16.4645 42.1389 16.4115 42.06 16.3866C41.9812 16.3618 41.8959 16.3667 41.8205 16.4005C41.7832 16.4194 41.7502 16.4455 41.7232 16.4774C41.6962 16.5093 41.676 16.5463 41.6635 16.5861C41.6385 16.6666 41.6464 16.7536 41.6855 16.8283C41.8433 17.1599 41.7994 17.5522 41.5733 17.8408C41.5452 17.8685 41.5232 17.9019 41.5086 17.9386C41.4941 17.9754 41.4874 18.0147 41.4889 18.0542C41.4897 18.1333 41.5198 18.2094 41.5733 18.2677C41.631 18.2905 41.6952 18.2905 41.753 18.2677C41.8054 18.2809 41.8604 18.2794 41.912 18.2635C41.9636 18.2476 42.0099 18.2178 42.0458 18.1774C42.231 17.9506 42.3484 17.6759 42.3842 17.3853C42.42 17.0946 42.3729 16.8005 42.2482 16.5355Z" fill="#FF6C37"/>
</svg>
