<svg width="114" height="50" viewBox="0 0 114 50" fill="none" xmlns="http://www.w3.org/2000/svg">
<path fill-rule="evenodd" clip-rule="evenodd" d="M45.3916 43.5253H44.6948V40.3474C45.463 40.3474 45.8121 40.2244 46.1703 40.7574C46.4884 41.229 46.6935 43.5253 45.3916 43.5253ZM41.7129 48.9926H44.3979C44.9209 48.9926 44.6955 47.865 44.6955 46.4109C45.403 46.4109 45.1874 46.3387 45.5973 47.5894C45.7348 48.0665 45.899 48.5354 46.0892 48.9941H49.1626C49.1381 48.7005 49.0469 48.4164 48.8961 48.1634C48.7526 47.8459 48.6814 47.6205 48.5585 47.313C48.2886 46.7636 48.0603 46.1948 47.8753 45.6113C48.3741 45.2295 48.7541 44.7139 48.9714 44.1245C49.8527 42.1562 49.4624 37.4718 45.5895 37.4718H41.7129V48.9926Z" fill="#C4030A"/>
<path fill-rule="evenodd" clip-rule="evenodd" d="M37.5427 28.528H36.8596V25.3501C38.2328 25.3501 38.5402 25.4428 38.5402 27.2364C38.5364 27.8925 38.188 28.528 37.5427 28.528ZM33.874 33.9953H36.559C37.0813 33.9953 36.8557 32.8677 36.8557 31.4136C37.3681 31.4136 37.3165 31.3618 37.4706 31.7825C37.6806 32.5359 37.9373 33.2754 38.2396 33.9968H41.3237C41.1629 33.4265 40.9539 32.8709 40.699 32.3361C40.4294 31.7816 40.2068 31.2056 40.0333 30.614C41.7853 29.4453 41.9182 25.3744 40.4023 23.5922C40.0398 23.2325 39.6093 22.9486 39.1362 22.7568C38.663 22.5651 38.1565 22.4693 37.646 22.4752H33.874V33.9953Z" fill="#C4030A"/>
<path fill-rule="evenodd" clip-rule="evenodd" d="M3.39774 30.7113V25.8422C3.39774 24.8786 5.08824 24.8786 5.08824 25.8422V30.7113C5.089 31.5215 3.39774 31.5215 3.39774 30.7113ZM0.416016 26.1399V30.4143C0.429417 31.428 0.844804 32.3951 1.5708 33.1026C2.2968 33.81 3.27397 34.1999 4.2874 34.1867C4.66695 34.1867 4.47185 34.1252 4.88176 34.0842L6.24815 35.4989L8.28705 33.5208C8.14358 33.0386 7.70332 32.855 7.46724 32.4958C7.82964 31.8231 8.03297 31.0763 8.0616 30.3127V26.1407C8.06085 21.0037 0.416016 21.0037 0.416016 26.1399Z" fill="#C4030A"/>
<path fill-rule="evenodd" clip-rule="evenodd" d="M28.2172 26.0482C28.2172 25.3822 28.4321 24.9508 29.1092 24.9508C29.216 24.944 29.3229 24.9602 29.423 24.9979C29.523 25.0357 29.6139 25.0943 29.6895 25.17C29.7651 25.2456 29.8237 25.3365 29.8615 25.4366C29.8992 25.5367 29.9153 25.6437 29.9085 25.7504V27.0413H28.2172V26.0482ZM25.4405 25.9456V33.7874H28.2172V29.5229H29.9085L30.0012 33.7874H32.7779V26.3457C32.7779 22.3272 28.7609 20.892 26.4016 23.3318C25.7759 24.0582 25.4344 24.9868 25.4405 25.9456Z" fill="#C4030A"/>
<path fill-rule="evenodd" clip-rule="evenodd" d="M12.0375 25.9456C12.0375 24.5788 13.7181 24.5788 13.7181 25.9456V27.0422H12.0375V25.9456ZM9.2501 25.8431V33.7874H12.0375V29.5229H13.7181V33.7874H16.5973C16.5973 31.1942 16.4949 28.9391 16.5055 26.3459C16.5055 25.0132 16.3006 24.1216 15.6348 23.4344C15.2882 22.9801 14.8286 22.6248 14.3018 22.4036C13.775 22.1824 13.1996 22.1032 12.6327 22.1739C11.703 22.2265 10.8301 22.6387 10.1989 23.3235C9.5676 24.0083 9.22732 24.9119 9.2501 25.8431Z" fill="#C4030A"/>
<path fill-rule="evenodd" clip-rule="evenodd" d="M10.4485 40.7383C10.4544 40.6219 10.4842 40.5081 10.536 40.4037C10.5878 40.2993 10.6606 40.2068 10.7498 40.1317C10.8389 40.0567 10.9425 40.0007 11.0542 39.9675C11.1658 39.9343 11.2832 39.9245 11.3989 39.9386C11.5145 39.9527 11.626 39.9905 11.7264 40.0496C11.8269 40.1087 11.914 40.1878 11.9826 40.2821C12.0511 40.3764 12.0994 40.4837 12.1246 40.5974C12.1498 40.7112 12.1514 40.829 12.1292 40.9434V42.0299H10.4485V40.7383ZM7.66113 40.6466V48.7861H10.4485V44.419H12.1292V48.7861H14.9165V40.7369C14.9141 39.8228 14.5627 38.9441 13.934 38.2806C13.3054 37.6172 12.4472 37.2193 11.5348 37.1679C11.0025 37.1129 10.4646 37.18 9.96214 37.3643C9.45966 37.5485 9.00574 37.8449 8.63502 38.231C8.04475 38.9007 7.70114 39.7522 7.66113 40.6442V40.6466Z" fill="#C4030A"/>
<path fill-rule="evenodd" clip-rule="evenodd" d="M35.4623 44.612C35.4623 43.2589 35.1647 40.4197 36.0566 40.1319C36.6001 39.9474 37.2455 40.163 37.2455 40.8396V45.5036C37.2326 45.698 37.1544 45.8824 37.0236 46.0269C36.8929 46.1714 36.7171 46.2674 36.5249 46.2994C36.3327 46.3315 36.1354 46.2978 35.9649 46.2036C35.7943 46.1094 35.6606 45.9605 35.5853 45.7807C35.5002 45.3971 35.4588 45.005 35.4623 44.612ZM32.583 40.9421V45.3091C32.5793 46.3391 32.9803 47.3294 33.6996 48.0664C34.2473 48.6019 34.9425 48.9616 35.6959 49.0992C36.4494 49.2368 37.2267 49.1461 37.9282 48.8387C38.6297 48.5313 39.2234 48.0212 39.6332 47.374C40.0429 46.7267 40.2501 45.9716 40.2279 45.2058V41.1351C40.2542 40.1506 39.895 39.1946 39.227 38.4712C38.5589 37.7478 37.635 37.314 36.6519 37.2623C36.105 37.2202 35.5553 37.2932 35.0382 37.4762C34.5212 37.6593 34.0482 37.9485 33.6496 38.3253C33.0144 39.0555 32.6393 39.9758 32.583 40.9421Z" fill="#C4030A"/>
<path fill-rule="evenodd" clip-rule="evenodd" d="M16.1044 41.4338C16.1044 43.9761 15.7453 46.3234 17.1292 47.9643C17.5527 48.4079 18.0754 48.7445 18.6544 48.9463C19.2334 49.1482 19.852 49.2097 20.4594 49.1256C21.0667 49.0415 21.6455 48.8143 22.1479 48.4627C22.6503 48.1111 23.062 47.6451 23.3492 47.1032C23.732 46.2633 23.8704 45.3323 23.7484 44.4173H21.1676C20.3683 44.4173 21.5668 46.3036 19.8771 46.3036C19.7709 46.3102 19.6645 46.294 19.5651 46.256C19.4657 46.218 19.3756 46.1592 19.3009 46.0834C19.2262 46.0076 19.1685 45.9167 19.1319 45.8168C19.0952 45.7169 19.0804 45.6102 19.0884 45.504V40.9426C19.085 40.7856 19.1242 40.6306 19.2019 40.4943C19.2797 40.3579 19.3932 40.2454 19.5301 40.1686C19.6669 40.0917 19.822 40.0535 19.9789 40.0581C20.1358 40.0627 20.2885 40.11 20.4206 40.1947C21.2405 40.5941 20.5125 41.8348 21.1683 41.8348H23.7493C23.7493 40.4202 23.7804 39.4672 22.6865 38.3289C22.119 37.7784 21.3971 37.4139 20.6173 37.2843C19.8374 37.1546 19.0366 37.266 18.3216 37.6033C17.6065 37.9406 17.0112 38.4879 16.6151 39.1723C16.219 39.8567 16.0408 40.6456 16.1044 41.4338Z" fill="#C4030A"/>
<path fill-rule="evenodd" clip-rule="evenodd" d="M0.416016 48.9896H3.10092C3.32865 48.9896 3.39774 48.9182 3.39774 48.6821V44.5208H5.8815C5.8815 43.0545 6.10921 41.9389 5.58468 41.9389H3.40228V40.3496H6.57909V37.4672H0.416016V48.9896Z" fill="#C4030A"/>
<path fill-rule="evenodd" clip-rule="evenodd" d="M52.7386 45.3089V48.9889H55.6178V45.3089C55.7428 44.6091 55.9634 43.9297 56.2731 43.2899L58.497 37.4672H55.5155L54.1219 41.4341C53.7613 40.0902 53.3305 38.766 52.8313 37.4672H49.8594L50.5973 39.405C50.9458 40.317 52.7386 44.725 52.7386 45.3089Z" fill="#C4030A"/>
<path fill-rule="evenodd" clip-rule="evenodd" d="M24.7432 40.049C24.7432 40.5305 25.4605 40.346 26.7206 40.346V48.9874H29.4056C29.6333 48.9874 29.703 48.9161 29.703 48.68V40.346C32.101 40.346 31.5887 40.9535 31.5887 37.4658H24.7432V40.049Z" fill="#C4030A"/>
<path fill-rule="evenodd" clip-rule="evenodd" d="M17.5908 25.3502H19.4763V33.6947C19.4763 33.9225 19.5478 33.9917 19.7732 33.9917H22.4582V25.3502C24.9587 25.3502 24.4462 25.9137 24.4462 22.7684C24.4462 22.5406 24.3748 22.4714 24.1486 22.4714H17.5908V25.3502Z" fill="#C4030A"/>
<path fill-rule="evenodd" clip-rule="evenodd" d="M103.72 30.957C103.72 27.7898 104.068 26.385 103.568 22.92C102.877 17.8145 101.03 12.9341 98.1676 8.65104L94.407 4.01899C93.7716 3.37354 90.6758 0.318683 89.8461 0.103027C90.4921 1.07652 93.3379 3.0645 91.7438 7.09438C91.0288 8.75416 89.9462 10.2297 88.5777 11.4098C88.1799 11.8456 87.7556 12.2564 87.3071 12.6399C85.1657 14.3006 84.0278 15.3356 81.5995 16.9143C81.0681 17.2629 80.5748 17.5393 80.0624 17.8779C79.55 18.2166 79.048 18.4854 78.5553 18.8651C77.5722 19.5303 76.6341 20.2596 75.7469 21.0482L74.4967 22.1964C72.1033 24.417 70.0703 26.9971 68.471 29.8438L67.1593 32.3246C66.0655 34.7342 65.234 37.2546 64.6792 39.8422C64.356 41.288 64.1604 42.7595 64.0947 44.2396V49.0372C64.73 48.9349 65.3591 48.798 65.9795 48.6271C67.3527 48.3401 70.2534 47.479 71.616 47.069C72.262 46.8844 72.7742 46.6893 73.4096 46.4744C75.6944 45.7264 79.9576 44.6701 81.3619 42.7429C82.7351 40.8567 81.3718 39.0221 79.8437 38.2627C79.5401 38.1192 78.6451 38.0068 77.946 37.7608C76.7269 37.3409 76.0914 37.8223 74.7076 37.6173C74.367 37.5385 74.0214 37.4837 73.6731 37.4533C73.6264 37.6529 73.5466 37.8434 73.437 38.0167L73.2624 38.4366C73.2526 38.4571 73.2427 38.4883 73.232 38.5088L73.1705 38.6523C73.0885 37.6378 72.3195 36.2535 73.8536 34.4394C74.0667 34.22 74.2997 34.021 74.5497 33.8448C75.1226 33.448 75.7466 33.1308 76.4048 32.9017C78.0239 32.3071 76.9173 32.7992 77.8396 31.6412C79.6022 29.4474 84.0082 29.3631 86.6733 29.7345C87.8763 29.8546 89.0686 30.0635 90.2408 30.3594C92.9258 31.1279 94.3293 32.9526 95.887 34.3984C97.0707 35.5732 98.0919 36.9012 98.9234 38.347C103.549 35.8777 107.989 33.0751 112.208 29.9615L114.001 28.6706C113.961 27.994 113.865 27.3219 113.714 26.6614C113.082 23.6146 112.026 20.6714 110.578 17.9174C110.047 16.8852 109.423 15.9038 108.713 14.9856C108.589 18.693 107.816 22.3499 106.428 25.7896C105.735 27.5127 104.888 29.1697 103.897 30.7406C103.842 30.8158 103.783 30.8881 103.72 30.957Z" fill="#C4030A"/>
<path fill-rule="evenodd" clip-rule="evenodd" d="M79.2598 34.0531C79.7911 33.9095 80.0387 33.3355 80.4592 33.0484C80.544 33.232 80.6726 33.3919 80.8339 33.5138C80.9952 33.6356 81.1843 33.7158 81.384 33.7472C81.5837 33.7786 81.788 33.7601 81.9789 33.6936C82.1698 33.6271 82.3415 33.5145 82.4785 33.3658C82.6543 33.0216 82.7185 32.6313 82.6627 32.2489C83.3759 32.1643 84.0771 31.9993 84.7532 31.7568H80.6642L79.2598 34.0531Z" fill="#C4030A"/>
<path fill-rule="evenodd" clip-rule="evenodd" d="M76.5654 33.4479V33.8482C77.1803 34.0122 77.5699 34.7502 77.5699 33.653C77.5699 33.0174 76.9139 33.3659 76.5654 33.4479Z" fill="#C4030A"/>
<path fill-rule="evenodd" clip-rule="evenodd" d="M89.8447 0.10252V0L89.7217 0.0820113L89.8447 0.10252Z" fill="#C4030A"/>
</svg>
