<svg width="124" height="89" viewBox="0 0 124 89" fill="none" xmlns="http://www.w3.org/2000/svg">
<circle cx="21" cy="68" r="21" fill="#FFD100"/>
<path fill-rule="evenodd" clip-rule="evenodd" d="M16.0025 0.611293C14.6659 1.27738 13.5821 2.54898 13.1869 3.91399C13.0256 4.47257 12.9694 13.6267 13.0156 31.928L13.0841 59.1121L13.7837 60.2438C14.2174 60.9451 14.914 61.6417 15.615 62.0754L16.7465 62.775L30.5792 62.8381C38.1871 62.8728 44.4117 62.932 44.4117 62.9694C44.4117 63.0071 44.2468 63.6029 44.0452 64.2935C43.5428 66.0146 42.7094 67.3881 41.2137 68.9596L39.9486 70.289H38.0588C36.3823 70.289 36.1123 70.3493 35.6663 70.824C34.9776 71.5574 34.9928 72.8223 35.6987 73.4856L36.2339 73.9882H48.1433H60.0526L60.5555 73.4532C61.2426 72.7217 61.229 71.4549 60.5266 70.7951C60.008 70.308 59.8149 70.2941 52.6914 70.2344L45.3878 70.1734L46.2458 68.7543C47.1953 67.1842 48.1109 64.6438 48.1109 63.5793V62.8906H54.0819C60.0242 62.8906 60.0551 62.8881 60.5555 62.3556C61.2442 61.6222 61.229 60.3573 60.5231 59.694L59.9879 59.1914H39.0037H18.0193L17.3435 58.5156L16.6677 57.8398V52.9668V48.0938H38.3602H60.0526L60.5555 47.5588C61.2442 46.8254 61.229 45.5605 60.5231 44.8972L59.9879 44.3946H38.3279H16.6677V24.869C16.6677 11.0516 16.7428 5.17888 16.9243 4.78006C17.0656 4.47025 17.4346 4.10126 17.7444 3.96C18.1494 3.7755 28.2434 3.70336 53.6597 3.70336C79.076 3.70336 89.17 3.7755 89.575 3.96C90.1946 4.24229 90.6517 5.05334 90.6517 5.8704C90.6517 7.26824 92.8527 7.92693 93.8779 6.8359C94.3354 6.34899 94.3953 6.09074 94.3045 4.9967C94.1634 3.29599 93.1961 1.74186 91.7041 0.819373L90.5724 0.119761L53.9008 0.0598797L17.2292 0L16.0025 0.611293ZM67.7953 11.707C66.4545 12.375 65.3714 13.645 64.9758 15.0116C64.8144 15.5702 64.7582 24.7243 64.8045 43.0257L64.8729 70.2097L65.5725 71.3414C66.0062 72.0427 66.7028 72.7393 67.4038 73.173L68.5353 73.8726L80.9018 73.9364L93.2682 74L93.8094 73.4914C94.5465 72.7989 94.5498 71.4811 93.8159 70.7916C93.2812 70.2895 93.2724 70.289 81.6888 70.289C73.6856 70.289 69.9223 70.2095 69.5332 70.0324C68.57 69.5936 68.4565 68.9487 68.4565 63.9201V59.1914H80.9011H93.3454L93.8483 58.6564C94.537 57.923 94.5218 56.6581 93.8159 55.9948L93.2807 55.4922H80.8687H68.4565V38.8458V22.1994H86.9525H105.449V25.3959C105.449 28.4383 105.474 28.6166 105.984 29.0952C106.722 29.789 107.982 29.7686 108.655 29.0519C109.164 28.5102 109.167 28.4559 109.1 21.6926L109.032 14.8791L108.333 13.7479C107.899 13.0476 107.202 12.3502 106.501 11.917L105.369 11.2174L87.1978 11.1554L69.0259 11.0937L67.7953 11.707ZM20.8695 15.336C20.4136 15.8215 20.3669 16.1183 20.3669 18.5325C20.3669 21.0156 20.4027 21.2276 20.9019 21.6967C21.6352 22.3855 22.9001 22.3702 23.5634 21.6644C24.0194 21.1789 24.0661 20.882 24.0661 18.4678C24.0661 15.9847 24.0302 15.7727 23.5311 15.3036C22.7977 14.6149 21.5328 14.6301 20.8695 15.336ZM69.4655 15.0715C68.8054 15.391 68.4565 16.2205 68.4565 17.4706V18.5002H86.9525H105.449V17.4706C105.449 16.178 105.096 15.3875 104.372 15.0576C103.612 14.7115 70.1815 14.7247 69.4655 15.0715ZM20.8695 26.4336C20.3787 26.9563 20.3669 27.117 20.3669 33.3293C20.3669 39.679 20.3678 39.6908 20.9019 40.1928C21.6352 40.8815 22.9001 40.8662 23.5634 40.1604C24.0543 39.6376 24.0661 39.477 24.0661 33.2646C24.0661 26.9149 24.0651 26.9031 23.5311 26.4012C22.7977 25.7125 21.5328 25.7277 20.8695 26.4336ZM72.6583 26.4336C72.2024 26.9191 72.1557 27.216 72.1557 29.6301C72.1557 32.1132 72.1915 32.3252 72.6907 32.7944C73.4241 33.4831 74.689 33.4678 75.3523 32.762C75.8082 32.2765 75.8549 31.9796 75.8549 29.5654C75.8549 27.0823 75.8191 26.8703 75.3199 26.4012C74.5865 25.7125 73.3216 25.7277 72.6583 26.4336ZM101.092 33.8993C99.7481 34.57 98.6653 35.8379 98.2677 37.2068C98.1079 37.7578 98.0501 43.4446 98.0964 54.1233L98.1657 70.2099L98.8653 71.3417C99.2991 72.0429 99.9954 72.7393 100.697 73.173L101.829 73.8726H110.997H120.166L121.298 73.173C121.999 72.7393 122.696 72.0429 123.129 71.3414L123.829 70.2097V53.6426V37.0755L123.129 35.9438C122.696 35.2425 121.999 34.5457 121.298 34.1122L120.167 33.4126L111.247 33.3478L102.327 33.2831L101.092 33.8993ZM72.6583 37.5312C72.1675 38.0539 72.1557 38.2146 72.1557 44.427C72.1557 50.7766 72.1566 50.7884 72.6907 51.2904C73.4241 51.9791 74.689 51.9639 75.3523 51.258C75.8431 50.7353 75.8549 50.5746 75.8549 44.3622C75.8549 38.0125 75.854 38.0008 75.3199 37.4988C74.5865 36.8101 73.3216 36.8253 72.6583 37.5312ZM102.758 37.2667C102.098 37.5862 101.749 38.4158 101.749 39.6659V40.6954H110.997H120.245V39.6659C120.245 38.3732 119.893 37.5827 119.169 37.2528C118.423 36.9132 103.462 36.9259 102.758 37.2667ZM101.749 53.6426V62.8906H110.997H120.245V53.6426V44.3946H110.997H101.749V53.6426ZM50.6266 52.0258C50.4208 52.146 50.1221 52.559 49.9628 52.9435C49.6236 53.7621 49.9681 54.8938 50.6705 55.2698C50.8992 55.3921 52.2713 55.4922 53.7198 55.4922C56.1738 55.4922 56.3879 55.4557 56.8563 54.9572C57.545 54.2238 57.5298 52.9589 56.8239 52.2956C56.3377 51.839 56.0464 51.7937 53.6449 51.7999C52.1906 51.8039 50.8326 51.9054 50.6266 52.0258ZM83.7559 63.4256C83.0672 64.159 83.0825 65.4239 83.7883 66.0872C84.2738 66.5431 84.5707 66.5898 86.9849 66.5898C89.468 66.5898 89.68 66.554 90.1491 66.0548C90.8378 65.3214 90.8226 64.0565 90.1167 63.3932C89.6312 62.9373 89.3343 62.8906 86.9201 62.8906C84.437 62.8906 84.225 62.9264 83.7559 63.4256ZM101.749 67.7636C101.749 68.7527 101.856 69.0438 102.425 69.6132L103.101 70.289H110.967H118.832L119.459 69.7501C119.967 69.3133 120.106 68.9635 120.194 67.9005L120.303 66.5898H111.026H101.749V67.7636Z" fill="#191919"/>
</svg>
