<svg width="32" height="39" viewBox="0 0 32 39" fill="none" xmlns="http://www.w3.org/2000/svg">
<circle cx="8.33" cy="30.33" r="8.33" fill="#0CC8B3"/>
<g filter="url(#filter0_b_465_72)">
<path d="M14.625 1C8.5545 1.01048 5.37627 1.16018 3.34328 3.19167C1.15161 5.38335 1.15161 8.91188 1.15161 15.9689C1.15161 23.026 1.15161 26.5546 3.34328 28.7477C5.53795 30.9394 9.06499 30.9394 16.1221 30.9394C23.1791 30.9394 26.7077 30.9394 28.8993 28.7477C30.9323 26.7162 31.0805 23.538 31.091 17.466" fill="white" fill-opacity="0.03"/>
<path d="M14.625 1C8.5545 1.01048 5.37627 1.16018 3.34328 3.19167C1.15161 5.38335 1.15161 8.91188 1.15161 15.9689C1.15161 23.026 1.15161 26.5546 3.34328 28.7477C5.53795 30.9394 9.06499 30.9394 16.1221 30.9394C23.1791 30.9394 26.7077 30.9394 28.8993 28.7477C30.9323 26.7162 31.0805 23.538 31.091 17.466" stroke="black" stroke-width="1.5" stroke-linecap="round"/>
<path d="M17.6191 14.4734L31.0925 1M31.0925 1H23.0923M31.0925 1V9.00021M29.5955 2.49704L16.1221 15.9704M16.1221 15.9704H22.1102M16.1221 15.9704V9.98227" stroke="black" stroke-width="1.5" stroke-linecap="round" stroke-linejoin="round"/>
</g>
<defs>
<filter id="filter0_b_465_72" x="-2.99839" y="-3.15" width="38.2409" height="38.2394" filterUnits="userSpaceOnUse" color-interpolation-filters="sRGB">
<feFlood flood-opacity="0" result="BackgroundImageFix"/>
<feGaussianBlur in="BackgroundImageFix" stdDeviation="1.7"/>
<feComposite in2="SourceAlpha" operator="in" result="effect1_backgroundBlur_465_72"/>
<feBlend mode="normal" in="SourceGraphic" in2="effect1_backgroundBlur_465_72" result="shape"/>
</filter>
</defs>
</svg>
