<svg width="79" height="92" viewBox="0 0 79 92" fill="none" xmlns="http://www.w3.org/2000/svg">
<circle cx="21" cy="71" r="21" fill="#FFD100"/>
<path fill-rule="evenodd" clip-rule="evenodd" d="M27.9689 4.13433C32.1713 1.95694 36.9065 0 42.7099 0C48.5133 0 53.251 1.95683 57.4563 4.13406C58.6941 4.7749 59.8617 5.41853 60.9892 6.04008C63.8067 7.5932 66.374 9.00845 69.1616 9.89783C69.1618 9.89788 69.1619 9.89793 69.1621 9.89797L69.2395 9.92266C70.847 10.4351 72.1429 10.8481 73.1167 11.2293C74.0516 11.5953 75.0155 12.0469 75.6779 12.7825C76.2831 13.4545 76.6074 14.2214 76.8335 15.0127C77.0444 15.7507 77.2078 16.6575 77.3931 17.6863L77.4064 17.7602C77.4065 17.7603 77.4065 17.7605 77.4065 17.7606C81.766 41.9255 72.2488 64.6641 49.1385 73.5109C49.1384 73.511 49.1384 73.511 49.1384 73.511L49.0457 73.5465C46.725 74.4352 45.2501 75 42.7206 75C40.1834 75 38.712 74.4357 36.3781 73.5407L36.3099 73.5145C36.3096 73.5144 36.3093 73.5143 36.309 73.5142C13.1964 64.6638 3.66789 41.926 8.02762 17.7606C8.03407 17.7248 8.04049 17.6892 8.04688 17.6536C8.22947 16.6398 8.39079 15.7441 8.59829 15.0151C8.82303 14.2255 9.1464 13.4568 9.75418 12.7843C10.4169 12.0493 11.3817 11.5982 12.3155 11.2325C13.28 10.8548 14.5608 10.4452 16.1461 9.93828C16.1874 9.92505 16.229 9.91176 16.2708 9.89839L16.2719 9.89805C19.0582 9.00874 21.6233 7.59359 24.4386 6.04041C25.5652 5.41887 26.7319 4.77523 27.9689 4.13433ZM17.4265 13.5157C15.7306 14.0581 14.5491 14.4361 13.7001 14.7686C13.2821 14.9322 12.9976 15.0649 12.8034 15.1749C12.6277 15.2744 12.5728 15.3294 12.5727 15.3292L12.5716 15.3305C12.504 15.4052 12.3916 15.5597 12.2507 16.0547C12.0997 16.5853 11.9695 17.2988 11.7649 18.434L11.7648 18.4344C7.65158 41.2336 16.6354 61.9147 37.6678 69.9681L37.6686 69.9684C40.0295 70.8737 40.9252 71.2025 42.7206 71.2025C44.5152 71.2025 45.4131 70.871 47.7806 69.9645L47.7807 69.9645C68.8086 61.9149 77.7827 41.2345 73.6693 18.4344L73.6692 18.434C73.465 17.3005 73.3338 16.5866 73.1822 16.0563C73.0419 15.5654 72.929 15.4053 72.8577 15.3255C72.8557 15.3238 72.7999 15.269 72.6272 15.1711C72.4335 15.0613 72.1496 14.9289 71.7324 14.7655C70.8849 14.4337 69.7041 14.0565 68.0083 13.5159L68.0079 13.5158C64.8401 12.5052 61.7795 10.8179 58.8408 9.19774C57.7813 8.61359 56.7375 8.03817 55.7103 7.50637C51.7087 5.43458 47.6155 3.79747 42.7099 3.79747C37.8046 3.79747 33.7142 5.43447 29.7159 7.5061C28.6897 8.03779 27.647 8.61311 26.5884 9.19719C23.6519 10.8174 20.5932 12.505 17.4265 13.5157Z" fill="#191919"/>
<path fill-rule="evenodd" clip-rule="evenodd" d="M46.8705 24.4527C45.6409 20.9396 40.5651 20.5069 38.7748 24.0723C38.7657 24.0904 38.7563 24.1083 38.7467 24.1261C38.41 24.7464 38.4131 25.3756 38.4194 26.6425C38.4203 26.8283 38.4213 27.0279 38.4213 27.2432V27.2519H38.4213C38.4161 28.3854 38.4015 29.2323 38.3927 29.7426C38.3922 29.7743 38.3916 29.8047 38.3911 29.8338H47.0979C47.0957 29.6987 47.0933 29.5365 47.0911 29.3529C47.0843 28.7947 47.0789 28.0345 47.0843 27.2303L47.0844 27.2268C47.0896 26.6149 47.086 26.0356 47.0491 25.5223C47.0105 24.9856 46.943 24.6509 46.8802 24.4798L46.8705 24.4527ZM50.9026 30.1907V30.1907L49.0232 30.2333L50.9026 30.1907ZM50.901 30.1109L50.898 29.9539C50.8952 29.8 50.8916 29.5779 50.8883 29.3068C50.8817 28.7644 50.8765 28.0301 50.8817 27.2577M50.4503 23.1856C48.0871 16.4664 38.6693 15.8712 35.3942 22.3424C34.5653 23.8903 34.5965 25.5969 34.6178 26.7674C34.6209 26.9365 34.6238 27.0944 34.6239 27.239C34.6191 28.2587 34.6029 29.2737 34.5941 29.8252C34.5923 29.9351 34.5908 30.0265 34.5898 30.0959C31.1055 30.9639 29.2495 33.7999 28.7601 35.7578C28.6078 36.3667 28.5207 37.2257 28.4644 38.0908C28.4054 38.9967 28.3726 40.0477 28.3617 41.1118C28.34 43.2228 28.4037 45.4916 28.5419 46.874C28.552 46.9754 28.5703 47.0758 28.5966 47.1743C29.6662 51.1854 32.4562 52.9544 35.1354 53.5011C35.2053 53.5154 35.2759 53.5257 35.347 53.532C37.0381 53.6823 43.0428 53.6617 46.3116 53.6505C46.9648 53.6482 47.5087 53.6463 47.8872 53.6463C49.8175 53.6801 51.7296 53.3402 53.3559 52.2669C55.0193 51.169 56.1542 49.4563 56.7828 47.1932C56.8008 47.1287 56.8153 47.0633 56.8263 46.9972C56.9617 46.1846 57.0658 43.9545 57.079 41.7836C57.0858 40.6658 57.069 39.5049 57.0147 38.4747C56.9624 37.484 56.8701 36.4838 56.6886 35.7578C56.6771 35.7118 56.6639 35.6662 56.649 35.6212C55.5529 32.3123 53.1758 30.7023 50.901 30.1109M36.7967 33.6312C34.0288 33.6312 32.7144 35.5976 32.4441 36.6788C32.3828 36.9243 32.3097 37.4804 32.2538 38.3375C32.2007 39.1539 32.1694 40.1321 32.159 41.1507C32.1388 43.1171 32.1971 45.1347 32.3057 46.3394C32.9496 48.5746 34.35 49.4382 35.791 49.7582C37.4264 49.8809 42.8871 49.8635 46.1351 49.8531C46.8558 49.8508 47.4675 49.8488 47.9043 49.8488C47.9106 49.8488 47.9168 49.8488 47.9231 49.8489C47.9287 49.849 47.9343 49.849 47.9399 49.8491C49.421 49.8769 50.4924 49.6067 51.2641 49.0975C51.9868 48.6205 52.6533 47.7974 53.0934 46.2842C53.1702 45.6938 53.2689 43.8492 53.2816 41.7605C53.2882 40.6888 53.2716 39.6069 53.2225 38.6746C53.1742 37.7598 53.0994 37.1019 53.0195 36.7426C52.1944 34.3518 50.2829 33.6312 48.7587 33.6312H36.7967Z" fill="#191919"/>
</svg>
