<svg width="85" height="89" viewBox="0 0 85 89" fill="none" xmlns="http://www.w3.org/2000/svg">
<circle cx="21" cy="68" r="21" fill="#FFD100"/>
<path fill-rule="evenodd" clip-rule="evenodd" d="M25.7898 4.94641C31.9722 2.41722 40.3721 0.899963 49.5453 0.899963C58.7185 0.899963 67.1184 2.41722 73.3009 4.94641C76.3871 6.20895 79.0199 7.76398 80.9134 9.59536C82.8138 11.4335 84.0906 13.6796 84.0906 16.2405C84.0906 16.5225 84.0752 16.7999 84.0455 17.0724L84.0309 17.2062L84.0556 17.3384C84.0785 17.4607 84.0906 17.5875 84.0906 17.7179V60.6459C84.0906 63.2001 82.8083 65.436 80.9074 67.262C79.0129 69.0818 76.3797 70.6264 73.294 71.8804C67.1122 74.3926 58.7139 75.8999 49.5453 75.8999C40.3767 75.8999 31.9785 74.3926 25.7966 71.8804C22.7109 70.6264 20.0777 69.0818 18.1832 67.262C16.2823 65.436 15 63.2001 15 60.6459V17.7179C15 17.5875 15.0121 17.4607 15.035 17.3384L15.0597 17.2062L15.0451 17.0724C15.0154 16.7998 15 16.5225 15 16.2405C15 13.6796 16.2768 11.4335 18.1773 9.59536C20.0708 7.76398 22.7036 6.20895 25.7898 4.94641ZM49.5453 4.98973C40.769 4.98973 32.9187 6.4488 27.3383 8.73168C24.5431 9.87516 22.4163 11.1851 21.0206 12.5351C19.6285 13.8815 19.0898 15.1334 19.0898 16.2405C19.0898 17.3476 19.6285 18.5995 21.0206 19.9459C22.4163 21.2959 24.5431 22.6058 27.3383 23.7493C32.9187 26.0322 40.769 27.4912 49.5453 27.4912C58.3217 27.4912 66.172 26.0322 71.7523 23.7493C74.5475 22.6058 76.6743 21.2959 78.0701 19.9459C79.4621 18.5995 80.0009 17.3476 80.0009 16.2405C80.0009 15.1334 79.4621 13.8815 78.0701 12.5351C76.6743 11.1851 74.5475 9.87516 71.7523 8.73168C66.172 6.4488 58.3217 4.98973 49.5453 4.98973ZM20.5116 24.7657L19.0898 23.7971V32.4908C19.0898 33.5021 19.6002 34.6838 20.994 35.9828C22.3879 37.2818 24.5161 38.5457 27.3165 39.6498C32.9053 41.8533 40.7644 43.2609 49.5453 43.2609C58.3262 43.2609 66.1854 41.8533 71.7741 39.6498C74.5746 38.5457 76.7028 37.2818 78.0966 35.9828C79.4905 34.6838 80.0009 33.5021 80.0009 32.4908V23.7971L78.579 24.7657C77.0501 25.8072 75.2648 26.7311 73.3009 27.5346C67.1184 30.0637 58.7185 31.581 49.5453 31.581C40.3721 31.581 31.9722 30.0637 25.7898 27.5346C23.8258 26.7311 22.0405 25.8072 20.5116 24.7657ZM20.5005 40.7607L19.0898 39.8299V46.267C19.0898 47.2783 19.6002 48.46 20.994 49.759C22.3879 51.058 24.5161 52.3219 27.3165 53.426C32.9053 55.6295 40.7644 57.0371 49.5453 57.0371C58.3262 57.0371 66.1854 55.6295 71.7741 53.426C74.5746 52.3219 76.7028 51.058 78.0966 49.759C79.4905 48.46 80.0009 47.2783 80.0009 46.267V39.8299L78.5902 40.7607C77.0516 41.7759 75.2528 42.6745 73.2742 43.4546C67.0984 45.8894 58.7074 47.3507 49.5453 47.3507C40.3832 47.3507 31.9922 45.8894 25.8165 43.4546C23.8379 42.6745 22.039 41.7759 20.5005 40.7607ZM20.5005 54.5369L19.0898 53.6061V60.6459C19.0898 61.7355 19.6237 62.9747 21.0164 64.3126C22.4123 65.6534 24.5398 66.9551 27.3364 68.0916C32.919 70.3602 40.7709 71.8102 49.5453 71.8102C58.3197 71.8102 66.1717 70.3602 71.7543 68.0916C74.5508 66.9551 76.6784 65.6534 78.0742 64.3126C79.467 62.9747 80.0009 61.7355 80.0009 60.6459V53.6061L78.5902 54.5369C77.0516 55.5521 75.2528 56.4507 73.2742 57.2308C67.0984 59.6656 58.7074 61.1269 49.5453 61.1269C40.3832 61.1269 31.9922 59.6656 25.8165 57.2308C23.8379 56.4507 22.039 55.5521 20.5005 54.5369Z" fill="#191919"/>
</svg>
