<svg width="100" height="99" viewBox="0 0 100 99" fill="none" xmlns="http://www.w3.org/2000/svg">
<circle cx="21" cy="78" r="21" fill="#FFD100"/>
<path fill-rule="evenodd" clip-rule="evenodd" d="M80.486 0.0995051C76.8486 0.511272 73.474 2.17451 70.8236 4.86175C69.5582 6.14488 68.6958 7.35158 67.9115 8.93658C66.903 10.9749 66.418 12.6916 66.2295 14.8907C65.9838 17.7586 66.5232 20.5453 67.8545 23.2839C70.1047 27.9131 74.3699 31.119 79.5772 32.0955C80.7602 32.3173 83.7917 32.3456 84.8388 32.1447C88.1481 31.5096 90.5743 30.3776 92.8881 28.3891C96.4903 25.2934 98.4713 20.9496 98.4714 16.1466C98.4715 9.97341 95.1518 4.58418 89.59 1.72773C86.8808 0.336427 83.5908 -0.252004 80.486 0.0995051ZM18.5895 3.1C15.6754 3.7507 13.3829 5.8544 12.4372 8.74528C11.4829 11.6629 12.1604 14.9068 14.1986 17.1783C14.7779 17.8242 19.6153 22.8084 22.9079 26.1522C24.1518 27.4153 25.2869 28.5904 25.4305 28.7632C25.5741 28.936 25.8135 29.1405 25.9624 29.2175C26.3094 29.3969 27.0361 29.3974 27.3819 29.2187C27.5298 29.1423 29.6895 26.9794 32.1815 24.4123C34.6733 21.8452 37.26 19.1853 37.9296 18.5014C38.5992 17.8176 39.2401 17.1504 39.3539 17.0189C40.0434 16.2219 40.7791 14.8068 41.0753 13.7079C41.3382 12.7323 41.4258 11.0581 41.2658 10.0656C40.7348 6.77253 38.4221 4.13626 35.2628 3.22262C34.6215 3.03716 34.3054 3.00837 32.9874 3.01478C31.521 3.02205 31.4193 3.03534 30.5656 3.33061C29.1648 3.81507 28.2937 4.34783 27.3025 5.32632L26.6879 5.93292L26.0619 5.33043C25.7176 4.99911 25.413 4.70642 25.385 4.67993C25.258 4.56017 24.2346 3.91942 23.8941 3.7464C23.6863 3.6409 23.1504 3.43716 22.7032 3.29379C22.0159 3.07341 21.6827 3.0275 20.5507 2.99708C19.611 2.97183 19.0257 3.00254 18.5895 3.1ZM80.3903 3.19029C78.1614 3.59183 76.6113 4.21555 74.8895 5.4037C73.351 6.4653 72.0338 7.87603 71.0762 9.4879C69.2665 12.534 68.7674 16.1867 69.6945 19.6014C70.4906 22.5336 72.5318 25.3785 75.033 27.0422C78.4873 29.3398 82.9303 29.8842 86.7936 28.4834C90.4563 27.1554 93.4204 24.1547 94.7168 20.4622C96.9119 14.2103 94.0242 7.26598 88.0251 4.37031C86.9994 3.87523 86.2433 3.61431 85.0302 3.33664C83.9117 3.08068 81.4327 3.00244 80.3903 3.19029ZM19.8332 5.98926C18.6106 6.1093 17.6267 6.59338 16.6722 7.54451C15.4806 8.73179 14.9717 10.0718 15.0761 11.7474C15.1762 13.3535 15.7151 14.4451 17.0927 15.8323C17.5213 16.2638 19.2479 18.0309 20.9295 19.7591C22.6111 21.4873 24.5985 23.5228 25.3459 24.2824L26.7046 25.6636L27.4543 24.8842C27.8667 24.4556 29.6456 22.6288 31.4076 20.8248C33.1696 19.0209 35.1765 16.9639 35.8674 16.2537C37.8742 14.1909 38.3211 13.2859 38.3037 11.3198C38.2613 6.53714 32.6478 4.252 29.2967 7.65316C29.0252 7.92882 28.7043 8.42055 28.4519 8.94758C27.847 10.2107 27.815 10.2607 27.4942 10.4522C26.5849 10.9948 25.5974 10.5759 25.1844 9.47221C24.9225 8.77235 24.2249 7.73523 23.726 7.30414C22.647 6.37157 21.1364 5.86138 19.8332 5.98926ZM77.1279 7.57435C76.9491 7.69315 76.705 7.98373 76.5856 8.21998L76.3683 8.64963L76.3942 16.2537C76.4197 23.7283 76.4235 23.8635 76.6167 24.1922C77.0659 24.9569 78.0199 25.1923 78.8118 24.7339C79.0223 24.6121 81.5192 23.0562 84.3605 21.2764C87.2018 19.4965 89.7418 17.9141 90.0049 17.7598C90.685 17.361 90.9974 17.0358 91.1132 16.6062C91.2701 16.0233 91.1404 15.5227 90.728 15.1197C90.5318 14.928 88.6098 13.677 86.457 12.3398C84.3043 11.0025 82.3276 9.77149 82.0645 9.6043C80.4759 8.59473 78.9299 7.6371 78.6801 7.50797C78.2461 7.28358 77.5187 7.31466 77.1279 7.57435ZM79.4337 16.1208C79.4337 20.1713 79.4498 20.6678 79.5802 20.6178C79.8046 20.5317 86.7034 16.2126 86.7036 16.158C86.7037 16.1317 85.3597 15.2709 83.717 14.2451C82.0742 13.2192 80.4384 12.1971 80.0819 11.9738L79.4337 11.5678V16.1208ZM43.544 14.8199C42.4965 15.3755 42.4973 16.8893 43.5455 17.4783L43.9245 17.6912L53.1577 17.6659C62.3143 17.6408 62.3932 17.639 62.6551 17.4434C63.1572 17.0686 63.3138 16.7629 63.3138 16.158C63.3138 15.5532 63.1572 15.2475 62.6551 14.8727C62.3931 14.677 62.3182 14.6753 53.1422 14.655C44.1556 14.6351 43.8834 14.6398 43.544 14.8199ZM25.8585 32.4555C25.1556 32.9377 25.1829 32.6609 25.2121 38.988L25.2383 44.6489L25.5253 44.9538C25.851 45.2999 26.3058 45.5222 26.6879 45.5222C27.0943 45.5222 27.7468 45.1576 27.9612 44.8106C28.1516 44.5027 28.1562 44.3634 28.1558 38.8633C28.1555 33.4122 28.1494 33.2213 27.9653 32.9196C27.5387 32.2199 26.5269 31.9971 25.8585 32.4555ZM81.8566 35.2115C81.6898 35.2663 81.41 35.459 81.2348 35.6396L80.9165 35.9679L80.8897 45.2644C80.875 50.3775 80.8862 54.6561 80.9145 54.7724C80.9429 54.8888 81.1209 55.1343 81.3103 55.3181C81.929 55.919 82.8225 55.8796 83.4586 55.2234L83.7865 54.8851L83.8119 45.5626C83.8397 35.277 83.8767 35.9278 83.2365 35.4465C82.8708 35.1715 82.2831 35.0714 81.8566 35.2115ZM25.621 48.3636C22.2525 48.8207 19.4076 51.1183 18.346 54.2389C17.3872 57.0573 17.9081 60.312 19.6749 62.5429C19.8604 62.777 19.9867 63.0096 19.9557 63.0598C19.9246 63.11 19.9417 63.1249 19.9936 63.0927C20.1179 63.016 21.0078 63.9217 20.9117 64.0272C20.871 64.0721 20.8894 64.079 20.9527 64.0427C21.0168 64.0059 21.2681 64.1296 21.5201 64.3219C22.385 64.982 23.9243 65.6439 25.1093 65.8654C25.3381 65.9082 26.1065 65.9411 26.8168 65.9385C27.8403 65.9348 28.274 65.8896 28.9067 65.7203C30.994 65.1619 32.8595 63.8287 34.0569 62.0393C35.5605 59.7925 35.9349 56.8132 35.0383 54.2294C34.315 52.1451 32.6768 50.2776 30.6914 49.274C29.1478 48.4937 27.2169 48.1471 25.621 48.3636ZM25.1905 51.5816C23.5218 52.0776 22.2675 53.098 21.5581 54.5371C20.9115 55.8486 20.7581 56.9628 21.0372 58.3192C21.6185 61.1427 24.1419 63.0693 27.0446 62.9058C30.0529 62.7364 32.4612 60.2024 32.4612 57.2064C32.4612 54.6894 30.9667 52.5678 28.5867 51.7059C27.5261 51.3217 26.2249 51.2742 25.1905 51.5816ZM67.6927 58.817C67.1224 59.0206 66.3049 59.5381 65.9271 59.9348C65.4623 60.4228 64.9999 61.3092 64.8447 62.0095C64.7121 62.6083 64.6972 63.7427 64.7225 71.3473C64.7547 81.0812 64.7055 80.4266 65.4922 81.6C65.9827 82.3316 66.8397 83.0021 67.6794 83.3112C68.2812 83.5328 68.3426 83.5358 72.8376 83.5679L77.3868 83.6005L79.4386 85.661C80.5671 86.7944 81.5725 87.7656 81.6728 87.8193C81.9571 87.9718 82.7027 87.9441 83.0387 87.7685C83.2061 87.6809 84.2465 86.705 85.3507 85.5998L87.3581 83.5903H91.5624C93.9372 83.5903 95.9908 83.549 96.282 83.4954C98.1752 83.1461 99.6347 81.6259 99.8987 79.7279C100.03 78.7825 100.035 63.4707 99.9044 62.4627C99.6992 60.8821 98.8079 59.6768 97.281 58.9152L96.7972 58.6739L82.495 58.6562C68.7511 58.6391 68.1733 58.6454 67.6927 58.817ZM68.5446 61.7515C68.3698 61.838 68.1222 62.0625 67.9945 62.2504L67.7623 62.592V70.9964C67.7623 80.2908 67.7307 79.8111 68.372 80.2685C68.6699 80.4809 68.6915 80.4819 73.602 80.5296L78.5329 80.5774L78.9115 80.8818C79.1198 81.0491 79.9785 81.8777 80.8198 82.7231L82.3494 84.2601L84.0725 82.5418C85.1586 81.4588 85.927 80.7693 86.1512 80.6766C86.4544 80.5513 87.1877 80.5296 91.1196 80.5296C95.5509 80.5296 95.7476 80.522 96.1212 80.3368C96.3351 80.2309 96.5963 80.0265 96.7015 79.8825C96.889 79.6263 96.8934 79.449 96.9184 71.2038C96.9362 65.3214 96.9127 62.7113 96.8403 62.5362C96.7832 62.3985 96.5864 62.1403 96.4029 61.9624L96.0691 61.639L82.4658 61.6167C70.0129 61.5963 68.8356 61.6077 68.5446 61.7515ZM74.243 66.1081C73.1052 66.7674 73.3668 68.5753 74.643 68.872C75.1589 68.992 89.6408 68.9764 90.0765 68.8555C91.1009 68.571 91.518 67.2616 90.8406 66.4567C90.3501 65.8739 90.6755 65.8951 82.2828 65.8975L74.6025 65.8997L74.243 66.1081ZM25.334 67.3963C24.5802 67.4637 22.8916 67.8165 22.1583 68.06C18.5238 69.2668 15.3151 71.9984 13.634 75.3167C12.4513 77.6516 12.0396 79.4106 12.0024 82.2892C11.9712 84.712 12.2321 85.5782 13.315 86.6463C13.9354 87.2583 14.5871 87.635 15.3846 87.8427C16.2053 88.0564 37.2025 88.0505 38.0055 87.8364C38.8205 87.619 39.3385 87.3217 40.024 86.6782C41.2592 85.5183 41.5784 84.2797 41.3788 81.4203C41.2029 78.9008 40.7764 77.3204 39.7188 75.2689C37.0112 70.0166 31.2573 66.8677 25.334 67.3963ZM45.0144 70.4542C44.5441 70.686 44.2918 71.1042 44.2485 71.7237C44.2073 72.3141 44.4076 72.7219 44.9288 73.108C45.1968 73.3066 45.2572 73.3083 52.8692 73.335C59.7781 73.3593 60.5803 73.3464 60.9512 73.2056C61.8391 72.8684 62.1773 71.6759 61.5996 70.9187C61.1016 70.2658 61.5042 70.295 53.0087 70.2974C46.1297 70.2993 45.2957 70.3156 45.0144 70.4542ZM25.8602 70.4157C25.8339 70.4423 25.5106 70.489 25.1418 70.5195C23.4511 70.6594 21.0428 71.6696 19.5462 72.8669C17.4054 74.5793 16.0327 76.7056 15.3713 79.334C15.1816 80.0872 15.1192 80.6284 15.0773 81.8806C15.0174 83.6707 15.0626 84.0659 15.365 84.3893C15.906 84.9682 15.1773 84.9352 26.7913 84.9071L37.388 84.8816L37.7004 84.6588C38.2396 84.2743 38.2969 84.0549 38.2968 82.3756C38.2966 80.7901 38.1698 79.7959 37.8164 78.6097C37.1288 76.301 35.5358 74.0961 33.4615 72.5815C32.1496 71.6236 30.1399 70.7903 28.5388 70.54C28.0219 70.4593 25.9139 70.3615 25.8602 70.4157ZM74.5244 73.3021C74.0721 73.4648 73.8463 73.6642 73.6526 74.0725C73.3263 74.76 73.6038 75.6496 74.2597 76.0181L74.6344 76.2287L82.4322 76.2031C90.1387 76.1778 90.2331 76.1753 90.4942 75.9803C90.9776 75.6195 91.1461 75.3043 91.1461 74.7604C91.1461 74.1482 90.9001 73.6821 90.432 73.4071C90.1069 73.2163 89.9529 73.2121 82.495 73.1916C76.248 73.1745 74.8242 73.1942 74.5244 73.3021Z" fill="#191919"/>
</svg>
