<svg width="120" height="90" viewBox="0 0 120 90" fill="none" xmlns="http://www.w3.org/2000/svg">
<circle cx="21" cy="69" r="21" fill="#FFD100"/>
<path d="M77.6006 21.7597L77.5869 21.7548L77.5731 21.7501C74.1698 20.6016 70.6025 20.0182 67.0122 20.0227C58.2464 20.0324 49.8425 23.5327 43.6442 29.7557C37.4458 35.9788 33.9594 44.4163 33.9498 53.2171V53.2187C33.9496 54.4515 34.0169 55.6842 34.1512 56.9096C34.2135 57.4752 34.0494 58.0425 33.6952 58.4868C33.3409 58.931 32.8254 59.2158 32.262 59.2785L32.2138 59.2839L32.1773 59.29L32.1636 59.2907C32.1513 59.2912 32.1346 59.2917 32.1107 59.2919L32.0687 59.2922L32.0249 59.2922C31.4992 59.2915 30.9922 59.0962 30.6008 58.7439C30.2094 58.3915 29.961 57.9067 29.9032 57.3821L29.903 57.3798C29.2042 51.1144 30.0906 44.7732 32.4801 38.943C34.8695 33.1127 38.685 27.9816 43.5734 24.0243C48.4619 20.0671 54.2654 17.4115 60.4472 16.3032C66.6289 15.195 72.9892 15.6698 78.9397 17.6839L78.9529 17.6883L78.9661 17.6926C79.2361 17.7793 79.4863 17.9191 79.7021 18.1038C79.9178 18.2885 80.0948 18.5144 80.2227 18.7685C80.3506 19.0225 80.427 19.2996 80.4472 19.5835C80.4675 19.8674 80.4313 20.1526 80.3407 20.4223C80.2501 20.6921 80.107 20.9411 79.9197 21.1548C79.7324 21.3684 79.5046 21.5426 79.2496 21.667C78.9946 21.7915 78.7175 21.8638 78.4344 21.8797C78.1513 21.8956 77.8679 21.8548 77.6006 21.7597Z" fill="#191919"/>
<path d="M114.201 28.9971L114.203 28.9965C117.47 35.4319 119.402 42.4662 119.882 49.6732C120.362 56.8832 119.378 64.1159 116.991 70.9329L116.99 70.9348C116.575 72.1235 115.803 73.1533 114.779 73.8816C113.756 74.6099 112.532 75.0008 111.278 75L22.7516 75L22.7485 75C21.4928 74.9965 20.269 74.6029 19.2449 73.8733C18.22 73.143 17.4455 72.112 17.0279 70.922L17.0273 70.9204C13.4943 60.8822 13.0425 50.0105 15.7306 39.7117C18.4187 29.4129 24.123 20.1608 32.1055 13.1523C40.088 6.14375 49.9815 1.70119 60.5062 0.39928C71.0309 -0.902629 81.7026 0.996015 91.1408 5.84961L91.1633 5.86118L91.1861 5.8721C91.4442 5.99566 91.675 6.16995 91.8649 6.38467C92.0547 6.59939 92.1997 6.85016 92.2913 7.12215C92.3829 7.39414 92.4192 7.68181 92.398 7.96813C92.3769 8.25445 92.2987 8.53361 92.1682 8.78906C92.0377 9.04451 91.8574 9.27108 91.6381 9.45534C91.4188 9.63959 91.1649 9.7778 90.8914 9.86178C90.618 9.94576 90.3305 9.9738 90.0461 9.94424C89.7616 9.91468 89.486 9.82812 89.2354 9.6897L89.2133 9.67747L89.1909 9.66588C82.464 6.1957 75.0185 4.36266 67.4558 4.31491L67.0144 4.31491L67.0094 4.31492C59.2268 4.33678 51.5622 6.22608 44.6544 9.82532C37.7466 13.4246 31.7958 18.6295 27.2981 25.0062C22.8004 31.3829 19.8861 38.7466 18.7981 46.4835C17.7101 54.2204 18.48 62.1063 21.0435 69.4839L21.4583 70.6776L112.517 70.7129L112.934 69.5241C115.136 63.2588 116.046 56.6098 115.61 49.9806C115.174 43.3514 113.4 36.8802 110.398 30.96L110.396 30.9557C110.267 30.7049 110.19 30.4311 110.167 30.1501C110.144 29.8691 110.177 29.5864 110.263 29.3181C110.349 29.0497 110.487 28.8011 110.669 28.5862C110.851 28.3714 111.073 28.1947 111.323 28.0661C111.573 27.9374 111.845 27.8595 112.125 27.8367C112.405 27.8139 112.687 27.8466 112.954 27.9331C113.221 28.0196 113.469 28.158 113.683 28.3406C113.897 28.5231 114.073 28.7462 114.201 28.9971Z" fill="#191919"/>
<path d="M61.5899 55.6268L108.526 8.50344C108.725 8.30394 108.961 8.14569 109.221 8.03772C109.48 7.92975 109.758 7.87418 110.039 7.87418C110.32 7.87418 110.599 7.92975 110.858 8.03772C111.118 8.14569 111.354 8.30394 111.553 8.50344C111.751 8.70293 111.909 8.93976 112.016 9.20043C112.124 9.4611 112.179 9.74047 112.179 10.0226C112.179 10.3047 112.124 10.5841 112.016 10.8447C111.909 11.1054 111.751 11.3423 111.553 11.5417L64.6162 58.6651C64.4175 58.8646 64.1816 59.0229 63.9219 59.1308C63.6623 59.2388 63.384 59.2944 63.103 59.2944C62.822 59.2944 62.5438 59.2388 62.2841 59.1308C62.0245 59.0229 61.7886 58.8646 61.5899 58.6651C61.3912 58.4656 61.2336 58.2288 61.126 57.9681C61.0185 57.7075 60.9632 57.4281 60.9632 57.146C60.9632 56.8638 61.0185 56.5845 61.126 56.3238C61.2336 56.0632 61.3912 55.8263 61.5899 55.6268Z" fill="#191919"/>
</svg>
