<svg width="82" height="92" viewBox="0 0 82 92" fill="none" xmlns="http://www.w3.org/2000/svg">
<circle cx="21" cy="71" r="21" fill="#FFD100"/>
<path fill-rule="evenodd" clip-rule="evenodd" d="M6.19995 37.6999C6.19995 17.0229 23.0229 0.199951 43.6999 0.199951C64.377 0.199951 81.2 17.0229 81.2 37.6999C81.2 58.377 64.377 75.2 43.6999 75.2C23.0229 75.2 6.19995 58.377 6.19995 37.6999ZM77.1918 37.6999C77.1918 19.1637 62.2362 4.2081 43.6999 4.2081C25.1637 4.2081 10.2081 19.1637 10.2081 37.6999C10.2081 56.2362 25.1637 71.1918 43.6999 71.1918C62.2362 71.1918 77.1918 56.2362 77.1918 37.6999Z" fill="#191919"/>
<path fill-rule="evenodd" clip-rule="evenodd" d="M57.7603 30.9594C57.7603 23.2528 51.4876 16.8567 43.8158 17.0024C40.2188 17.0818 36.7956 18.5656 34.2784 21.1364C31.7611 23.7074 30.3499 27.1615 30.3467 30.7597V34.693C30.3467 34.9472 30.5324 35.1355 30.7925 35.1355L33.8276 35.1356C33.8849 35.1362 33.9416 35.1254 33.9946 35.1038C34.0476 35.0822 34.0957 35.0502 34.1362 35.0098C34.1766 34.9693 34.2086 34.9212 34.2302 34.8682C34.2518 34.8152 34.2626 34.7585 34.262 34.7013L34.2619 34.693V30.7561C34.2619 25.461 38.3265 20.9085 43.6725 20.7183C49.257 20.5124 53.945 25.0006 53.945 30.5561V34.6897C53.945 34.9512 54.1347 35.1388 54.3909 35.1388L57.3249 35.1388C57.3824 35.1396 57.4395 35.1289 57.4927 35.1072C57.546 35.0855 57.5944 35.0534 57.635 35.0126C57.6756 34.9719 57.7076 34.9235 57.7292 34.8701C57.7507 34.8168 57.7613 34.7597 57.7604 34.7022L57.7603 34.6897V30.9594Z" fill="#191919"/>
<path fill-rule="evenodd" clip-rule="evenodd" d="M30.0775 35C28.9428 35 28 35.8673 28 37.0064V52.9911C28 54.1277 28.9428 55 30.0775 55H57.9225C59.0548 55 60 54.1302 60 52.9911V37.0064C60 35.8698 59.0572 35 57.9225 35H30.0775ZM30.4615 37.0064H31.3846C31.5065 37.0083 31.6228 37.058 31.7088 37.1448C31.7948 37.2315 31.8436 37.3486 31.8449 37.471V52.6056C31.843 52.7276 31.7939 52.844 31.708 52.9303C31.622 53.0165 31.5061 53.0658 31.3846 53.0677H30.4615C30.3396 53.0664 30.223 53.0174 30.1365 52.9311C30.0501 52.8448 30.0007 52.728 29.9987 52.6056V37.471C30 37.3482 30.0492 37.2307 30.1357 37.1439C30.2222 37.0571 30.3392 37.0077 30.4615 37.0064ZM43.9237 39.0153C46.0849 39.0153 47.8449 40.7821 47.8449 42.954C47.85 43.64 47.675 44.3152 47.3375 44.9116C47.0001 45.5081 46.512 46.0047 45.9224 46.3516V50.0581C45.9224 50.5967 45.4597 50.9847 44.923 50.9847H42.9218C42.3827 50.9847 41.9224 50.5967 41.9224 50.0581V46.3516C41.3329 46.0047 40.8448 45.5081 40.5073 44.9116C40.1698 44.3152 39.9948 43.64 40 42.954C40 40.7796 41.76 39.0153 43.9237 39.0153Z" fill="#191919"/>
</svg>
