<svg width="29" height="28" viewBox="0 0 29 28" fill="none" xmlns="http://www.w3.org/2000/svg">
<path fill-rule="evenodd" clip-rule="evenodd" d="M1.57545 9.53147C3.01509 4.97962 7.07918 1.26263 11.7277 0.24583C13.2021 -0.0765745 16.2331 -0.0829669 17.739 0.233218C22.1081 1.15033 25.889 4.32669 27.687 8.59035C28.6054 10.768 28.9095 14.1832 28.3992 16.5862C27.3707 21.4297 23.8751 25.3361 19.1276 26.9477C17.7098 27.4291 17.1831 27.5165 15.3086 27.5822C13.4636 27.6466 12.8999 27.5996 11.5866 27.2715C8.90729 26.6022 7.05945 25.5952 5.14685 23.7622C1.3343 20.1085 -0.0390338 14.636 1.57545 9.53147ZM13.0563 14.5842L7.09438 6.61265H11.6894L15.5979 11.8386L20.4352 6.61265H21.7855L16.2012 12.6456L22.4987 21.0654H17.9037L13.6598 15.3909L8.40716 21.0654H7.05681L13.0563 14.5842ZM11.1911 7.60722H9.08014L18.4018 20.0709H20.5127L11.1911 7.60722Z" fill="#242628"/>
</svg>
