<svg width="130" height="38" viewBox="0 0 130 38" fill="none" xmlns="http://www.w3.org/2000/svg">
<path d="M31.7506 4.43865H23.7612C22.6072 4.43865 21.542 4.79374 20.6542 5.41513L18.1982 0.236816H29.5314L31.7506 4.43865Z" fill="#B63258"/>
<path d="M16.9553 17.0146H9.70565L0 0.236816H8.90671L16.9553 17.0146Z" fill="#B63258"/>
<path d="M19.9141 6.06612C19.8253 6.15489 19.7365 6.24367 19.6773 6.33244C18.8784 7.27933 18.4049 8.46295 18.4049 9.79451V15.5646C18.4049 15.7718 18.3458 15.9789 18.2866 16.1564C18.1978 16.3636 18.0499 16.5707 17.8723 16.6891L9.97168 0.236816H17.1326L19.9141 6.06612Z" fill="#B63258"/>
<path d="M48.8238 21.6901C50.2145 21.6901 50.7768 22.1339 50.8951 23.3471L50.9247 23.7318H52.5818V23.3175C52.5522 21.2166 51.191 20.0034 48.8534 20.0034C47.8473 20.0034 47.0188 20.2993 46.4566 20.8615C45.9831 21.335 45.7168 22.0156 45.7168 22.7849C45.7168 24.294 46.8412 25.1817 49.0013 25.3889C50.8063 25.5664 50.8063 26.0694 50.8063 26.4541C50.8063 26.7204 50.7176 26.9572 50.5696 27.1347C50.3329 27.3714 49.889 27.5194 49.3268 27.5194C47.9361 27.5194 47.3739 27.0755 47.2555 25.8623L47.2259 25.4776H45.5688V25.8919C45.5984 27.9928 46.9596 29.206 49.3268 29.206C50.3625 29.206 51.191 28.9101 51.7532 28.3479C52.2267 27.8745 52.493 27.2235 52.493 26.4541C52.4634 24.3236 50.7176 23.8798 49.1789 23.7318C47.433 23.5543 47.4035 22.9625 47.4035 22.7553C47.4035 22.4594 47.4922 22.2227 47.6402 22.0747C47.8473 21.8084 48.2616 21.6901 48.8238 21.6901Z" fill="#B63258"/>
<path d="M52.9956 21.7786H56.3985V29.0875H58.0852V21.7786H61.4881V20.1216H52.9956V21.7786Z" fill="#B63258"/>
<path d="M68.7086 22.7551C68.7086 21.0981 67.3475 19.9736 65.3353 19.9736H62.4946V29.0579H64.1813V25.5958H64.4772L67.377 29.0579H69.5963L66.5485 25.4479C67.9393 25.1224 68.7086 24.1459 68.7086 22.7551ZM64.2109 21.6603H65.3057C66.371 21.6603 67.022 22.1041 67.022 22.7847C67.022 23.2878 66.8444 23.9387 65.4241 23.9387H64.1813V21.6603H64.2109Z" fill="#B63258"/>
<path d="M76.3428 24.5897C76.3428 26.5131 75.5734 27.4896 74.0939 27.4896C72.6144 27.4896 71.8746 26.5131 71.8746 24.5897V20.1216H70.188V24.6193C70.188 27.4896 71.6379 29.2354 74.0939 29.2354C76.5203 29.2354 78.0294 27.46 78.0294 24.6193V20.1216H76.3428V24.5897Z" fill="#B63258"/>
<path d="M86.4924 24.5307C86.4924 26.1878 85.2496 27.5193 83.6222 27.5193C82.0539 27.5193 80.7519 26.2174 80.7519 24.6195C80.7519 23.0216 82.0243 21.7196 83.6222 21.7196C84.4211 21.7196 85.22 22.0451 85.6343 22.5481L85.9006 22.8736L87.2914 21.7788L86.9659 21.4533C86.0782 20.5064 84.9241 20.033 83.5926 20.033C81.0774 20.033 79.0356 22.1043 79.0356 24.6491C79.0356 27.1938 81.0774 29.2652 83.5926 29.2652C86.0782 29.2652 87.9424 27.3714 88.1791 24.6195L88.2087 24.1756H86.4628V24.5307H86.4924Z" fill="#B63258"/>
<path d="M89.2148 21.7786H92.6473V29.0875H94.3044V21.7786H97.7073V20.1216H89.2148V21.7786Z" fill="#B63258"/>
<path d="M104.928 24.5897C104.928 26.5131 104.158 27.4896 102.679 27.4896C101.199 27.4896 100.459 26.5131 100.459 24.5897V20.1216H98.7432V24.6193C98.7432 27.4896 100.193 29.2354 102.649 29.2354C105.076 29.2354 106.585 27.46 106.585 24.6193V20.1216H104.898V24.5897H104.928Z" fill="#B63258"/>
<path d="M113.805 22.7551C113.805 21.0981 112.443 19.9736 110.431 19.9736H107.62V29.0579H109.307V25.5958H109.603L112.503 29.0579H114.722L111.674 25.4479C113.035 25.1224 113.805 24.1459 113.805 22.7551ZM109.307 21.6603H110.402C111.467 21.6603 112.118 22.1041 112.118 22.7847C112.118 23.2878 111.94 23.9387 110.52 23.9387H109.277V21.6603H109.307Z" fill="#B63258"/>
<path d="M115.284 29.0875H121.883V27.4008H116.971V25.5958H120.67V23.9092H116.971V21.7786H121.883V20.1216H115.284V29.0875Z" fill="#B63258"/>
<path d="M125.788 23.702C124.043 23.5244 124.013 22.9326 124.013 22.7255C124.013 22.4296 124.102 22.1929 124.25 22.0449C124.486 21.8082 124.901 21.6898 125.463 21.6898C126.854 21.6898 127.416 22.1337 127.534 23.3469L127.564 23.7316H129.221V23.3173C129.191 21.2164 127.83 20.0032 125.493 20.0032C124.486 20.0032 123.658 20.2991 123.096 20.8613C122.622 21.3347 122.356 22.0153 122.356 22.7847C122.356 24.2938 123.48 25.1815 125.64 25.3886C127.446 25.5662 127.446 26.0692 127.446 26.4539C127.446 26.7202 127.357 26.9569 127.209 27.1345C126.972 27.3712 126.528 27.5191 125.966 27.5191C124.575 27.5191 124.013 27.0753 123.895 25.8621L123.865 25.4774H122.208V25.8917C122.238 27.9926 123.599 29.2058 125.966 29.2058C127.002 29.2058 127.83 28.9099 128.392 28.3477C128.866 27.8742 129.132 27.2232 129.132 26.4539C129.103 24.3234 127.327 23.8499 125.788 23.702Z" fill="#B63258"/>
<path d="M42.4627 0.236572L40.0363 4.43841L36.8997 9.88304L33.9998 4.43841L31.751 0.236572H42.4627Z" fill="#1D437E"/>
<path d="M35.6866 11.9544L33.053 16.5114L31.8398 18.6419L21.2169 37.0175L21.1577 36.9287L20.5659 35.8931L13.3754 23.3763L12.8428 22.459H18.5241C21.4832 22.459 23.88 20.0622 23.88 17.1032V11.333C23.88 10.5341 24.531 9.85352 25.3595 9.85352H34.6213L35.6866 11.9544Z" fill="#1D437E"/>
<path d="M54.1804 2.63364H59.3292L54.2988 12.3393L48.2032 0.236816H45.54L54.2988 17.8727L63.0871 0.236816H54.1804V2.63364Z" fill="#1D437E"/>
<path d="M66.4605 0.236816H64.0933V17.636H66.4605V0.236816Z" fill="#1D437E"/>
<path d="M80.3971 13.2862L69.3599 0.236816H67.5845V17.6064H69.9813V4.61619L80.9002 17.6064H82.7643V0.236816H80.3971V13.2862Z" fill="#1D437E"/>
<path d="M83.7705 17.6359H86.4336L92.5589 5.50381L97.5596 15.2686H92.4109V17.6359H101.318L92.5589 0L83.7705 17.6359Z" fill="#1D437E"/>
<path d="M113.065 8.93639C113.065 13.1974 111.289 15.4759 107.916 15.4759C104.572 15.4759 102.797 13.227 102.797 8.93639V0.236816H100.4V8.93639C100.371 14.6177 103.122 17.8727 107.916 17.8727C112.562 17.8727 115.462 14.4402 115.462 8.93639V0.236816H113.065V8.93639Z" fill="#1D437E"/>
<path d="M122.771 2.39682C125.908 2.39682 127.298 3.58044 127.565 6.4507L127.594 6.62825H129.961V6.42111C129.961 2.27846 127.417 0 122.801 0C120.848 0 119.279 0.562217 118.244 1.59788C117.356 2.48559 116.912 3.72839 116.912 5.14873C116.942 7.95981 118.983 9.5577 123.185 10.0016C126.677 10.327 127.387 11.3035 127.417 12.7239C127.417 13.434 127.21 14.0258 126.766 14.4993C126.144 15.1207 125.138 15.4462 123.836 15.4462C120.7 15.4462 119.309 14.2922 119.013 11.4219L118.983 11.2443H116.616V11.4515C116.616 15.5645 119.161 17.843 123.807 17.843C125.789 17.843 127.387 17.2808 128.452 16.2155C129.34 15.3278 129.784 14.1146 129.784 12.7239C129.754 9.61688 127.861 8.10777 123.422 7.66391C120.641 7.36801 119.309 6.56907 119.279 5.11914C119.279 4.37938 119.486 3.75798 119.93 3.31412C120.493 2.72232 121.499 2.39682 122.771 2.39682Z" fill="#1D437E"/>
<path d="M45.5396 37.0175V31.78H47.5517C48.0843 31.78 48.4986 31.928 48.8537 32.2239C49.2088 32.5198 49.3863 32.9341 49.3863 33.4075C49.3863 33.9105 49.2088 34.3544 48.8537 34.6799C48.4986 35.035 48.0547 35.2125 47.5813 35.2125H46.161V36.9879H45.5396V37.0175ZM46.161 32.3718V34.6207H47.5813C47.9068 34.6207 48.2027 34.5023 48.4394 34.2656C48.6761 34.0289 48.7945 33.733 48.7945 33.4075C48.7945 33.1116 48.6761 32.8749 48.469 32.6677C48.2323 32.4606 47.9364 32.3718 47.5813 32.3718H46.161Z" fill="#1D437E"/>
<path d="M51.9604 37.0175V31.78H54.3573C54.8899 31.78 55.3042 31.928 55.6592 32.2239C56.0143 32.5198 56.1919 32.9341 56.1919 33.4075C56.1919 33.9105 56.0143 34.3544 55.6592 34.6799C55.4225 34.9166 55.1266 35.0942 54.7715 35.1829L56.3694 37.0175H55.5409L53.9726 35.2421H52.5523V37.0175H51.9604ZM52.5523 32.3718V34.6207H54.3277C54.6532 34.6207 54.9491 34.5023 55.1858 34.2656C55.4225 34.0289 55.5409 33.733 55.5409 33.4075C55.5409 33.1116 55.4225 32.8749 55.2154 32.6677C54.9787 32.4606 54.6828 32.3718 54.3277 32.3718H52.5523Z" fill="#1D437E"/>
<path d="M59.4468 31.78V37.0175H58.855V31.78H59.4468Z" fill="#1D437E"/>
<path d="M62.5533 31.78L64.2696 35.8043L65.9858 31.78H66.6368L64.2696 37.343L61.9023 31.78H62.5533Z" fill="#1D437E"/>
<path d="M68.0278 37.0176L70.7206 31.4546L73.4133 37.0176H72.7623L72.0521 35.5677H69.4186L68.738 37.0176H68.0278ZM71.7266 34.9463L70.691 32.8157L69.6553 34.9463H71.7266Z" fill="#1D437E"/>
<path d="M77.0533 32.3718V36.9879H76.4615V32.3718H74.834V31.78H78.7103V32.3718H77.0533Z" fill="#1D437E"/>
<path d="M84.3322 32.3718H81.7578V33.8218H84.0659V34.4136H81.7578V36.3961H84.3322V36.9879H81.166V31.78H84.3322V32.3718Z" fill="#1D437E"/>
<path d="M91.4341 31.78V36.3961H94.3635V36.9879H90.8423V31.78H91.4341Z" fill="#1D437E"/>
<path d="M97.5293 31.78V37.0175H96.9375V31.78H97.5293Z" fill="#1D437E"/>
<path d="M100.134 37.0176L101.022 31.4546L103.537 35.5381L106.052 31.4546L106.94 37.0176H106.318L105.697 33.1412L103.507 36.6921L101.317 33.1412L100.696 37.0176H100.134Z" fill="#1D437E"/>
<path d="M110.135 31.78V37.0175H109.543V31.78H110.135Z" fill="#1D437E"/>
<path d="M114.929 32.3718V36.9879H114.337V32.3718H112.709V31.78H116.586V32.3718H114.929Z" fill="#1D437E"/>
<path d="M122.208 32.3718H119.634V33.8218H121.942V34.4136H119.634V36.3961H122.208V36.9879H119.042V31.78H122.208V32.3718Z" fill="#1D437E"/>
<path d="M126.617 31.78C127.327 31.78 127.948 32.0463 128.451 32.5494C128.954 33.0524 129.221 33.6738 129.221 34.4136C129.221 35.1237 128.954 35.7451 128.451 36.2482C127.948 36.7512 127.327 37.0175 126.617 37.0175H124.782V31.78H126.617ZM125.374 32.3718V36.3961H126.617C127.179 36.3961 127.652 36.189 128.037 35.8043C128.422 35.4196 128.629 34.9462 128.629 34.384C128.629 33.8218 128.422 33.3483 128.037 32.9636C127.652 32.579 127.179 32.3718 126.617 32.3718H125.374Z" fill="#1D437E"/>
</svg>
