<svg width="57" height="57" viewBox="0 0 57 57" fill="none" xmlns="http://www.w3.org/2000/svg">
<path d="M1.21323 27.9904C1.20757 32.7313 2.45186 37.3898 4.82067 41.4964L0.986816 55.4948L15.3126 51.7386C19.2749 53.8956 23.7143 55.0259 28.2256 55.0262H28.2375C43.1301 55.0262 55.2537 42.9073 55.2599 28.0119C55.2628 20.7937 52.4543 14.0069 47.352 8.90031C42.2507 3.79422 35.4658 0.980918 28.2366 0.978058C13.3416 0.978058 1.21943 13.0955 1.21323 27.9904Z" fill="url(#paint0_linear_542_1174)"/>
<path d="M0.24867 27.9819C0.242818 32.8926 1.53166 37.718 3.98528 41.9717L0.0136719 56.472L14.8529 52.5809C18.9573 54.816 23.5562 55.9872 28.2297 55.9877H28.2416C43.6685 55.9877 56.2268 43.4327 56.234 28.0043C56.2364 20.5268 53.3268 13.4959 48.0424 8.20634C42.7571 2.91769 35.7296 0.00286002 28.2416 0C12.8118 0 0.254867 12.5526 0.24867 27.9819ZM9.08612 41.241L8.53176 40.3615C6.20153 36.6539 4.96836 32.3624 4.97485 27.9834C4.97962 15.1595 15.4168 4.72666 28.2506 4.72666C34.465 4.72904 40.3056 7.15147 44.6991 11.5473C49.092 15.9436 51.5092 21.7871 51.5073 28.0024C51.5016 40.8267 41.0649 51.2615 28.2411 51.2615H28.2325C24.0658 51.2618 19.9756 50.142 16.3901 48.0192L15.5402 47.5149L6.73471 49.8239L9.08612 41.241Z" fill="url(#paint1_linear_542_1174)"/>
<path d="M21.2448 16.2836C20.7205 15.119 20.1695 15.0957 19.6714 15.0752C19.2633 15.0576 18.7967 15.059 18.331 15.059C17.8638 15.059 17.1064 15.2344 16.4658 15.9342C15.8246 16.6339 14.0176 18.3256 14.0176 21.7672C14.0176 25.2087 16.5239 28.5335 16.8733 29.0006C17.2232 29.4668 21.712 36.7546 28.821 39.5579C34.7298 41.8879 35.932 41.4245 37.2142 41.3078C38.4965 41.1914 41.3527 39.6165 41.9352 37.983C42.5181 36.3499 42.5181 34.9499 42.3432 34.6577C42.1687 34.3665 41.7021 34.1911 41.0028 33.8417C40.303 33.4918 36.8644 31.7996 36.2237 31.5661C35.5821 31.333 35.1159 31.2167 34.6493 31.9169C34.1831 32.6162 32.8436 34.1911 32.4356 34.6577C32.0276 35.1249 31.6191 35.1835 30.9198 34.8341C30.2201 34.4828 27.9673 33.7449 25.2951 31.3625C23.2159 29.5083 21.8121 27.2193 21.404 26.5191C20.996 25.8193 21.3607 25.4409 21.711 25.0919C22.0256 24.7788 22.4108 24.2754 22.7607 23.8669C23.1096 23.4584 23.2264 23.1671 23.4594 22.7005C23.693 22.2333 23.5758 21.8253 23.4013 21.4754C23.2264 21.1256 21.8669 17.6668 21.2448 16.2836Z" fill="white"/>
<defs>
<linearGradient id="paint0_linear_542_1174" x1="2714.64" y1="5452.65" x2="2714.64" y2="0.978058" gradientUnits="userSpaceOnUse">
<stop stop-color="#1FAF38"/>
<stop offset="1" stop-color="#60D669"/>
</linearGradient>
<linearGradient id="paint1_linear_542_1174" x1="2811.03" y1="5647.2" x2="2811.03" y2="0" gradientUnits="userSpaceOnUse">
<stop stop-color="#F9F9F9"/>
<stop offset="1" stop-color="white"/>
</linearGradient>
</defs>
</svg>
