<svg width="74" height="79" viewBox="0 0 74 79" fill="none" xmlns="http://www.w3.org/2000/svg">
<circle cx="21" cy="58" r="21" fill="#FFD100"/>
<path d="M64.6734 9.31216C61.7249 6.34873 58.2128 3.99912 54.3422 2.40035C50.4715 0.801578 46.3196 -0.0143363 42.1286 0.000190622C24.5688 0.000190622 10.2573 14.2401 10.2573 31.7121C10.2573 37.3121 11.7367 42.7521 14.5025 47.5521L10 64L26.8844 59.584C31.5477 62.112 36.7899 63.456 42.1286 63.456C59.6884 63.456 74 49.216 74 31.7441C74 23.2641 70.6874 15.2961 64.6734 9.31216ZM42.1286 58.08C37.3688 58.08 32.7055 56.8 28.6211 54.4L27.6563 53.824L17.6221 56.448L20.2915 46.7201L19.6482 45.7281C17.0038 41.5264 15.5996 36.6697 15.596 31.7121C15.596 17.1841 27.4955 5.34418 42.0965 5.34418C49.1719 5.34418 55.8291 8.09617 60.8141 13.0882C63.2824 15.5328 65.2384 18.4407 66.5689 21.6431C67.8994 24.8455 68.5778 28.2789 68.5648 31.7441C68.6291 46.2721 56.7296 58.08 42.1286 58.08ZM56.6653 38.3681C55.8613 37.9841 51.9377 36.0641 51.2301 35.7761C50.4904 35.5201 49.9759 35.3921 49.4291 36.1601C48.8824 36.9601 47.3709 38.7521 46.9206 39.2641C46.4703 39.8081 45.9879 39.8721 45.1839 39.4561C44.3799 39.0721 41.807 38.2081 38.7839 35.5201C36.404 33.4081 34.8281 30.8161 34.3457 30.0161C33.8955 29.2161 34.2814 28.8001 34.6995 28.3841C35.0533 28.0321 35.5035 27.4561 35.8894 27.0081C36.2754 26.5601 36.4362 26.2081 36.6935 25.6961C36.9508 25.1521 36.8221 24.7041 36.6291 24.3201C36.4362 23.9361 34.8281 20.0321 34.1849 18.4321C33.5417 16.8961 32.8663 17.0881 32.3839 17.0561H30.8402C30.2935 17.0561 29.4573 17.2481 28.7176 18.0481C28.01 18.8481 25.9518 20.7681 25.9518 24.6721C25.9518 28.5761 28.8141 32.3521 29.2 32.8641C29.5859 33.4081 34.8281 41.4081 42.804 44.8321C44.7015 45.6641 46.1809 46.1441 47.3387 46.4961C49.2362 47.104 50.9729 47.008 52.3558 46.816C53.8995 46.592 57.0834 44.8961 57.7266 43.0401C58.402 41.1841 58.402 39.6161 58.1769 39.2641C57.9518 38.9121 57.4693 38.7521 56.6653 38.3681Z" fill="#191919"/>
<path fill-rule="evenodd" clip-rule="evenodd" d="M63.968 10.021L63.9645 10.0175C61.1096 7.14816 57.7088 4.87288 53.9604 3.32461C50.2119 1.77633 46.191 0.986115 42.1321 1.00018L42.1286 1.0002C25.1164 1.00019 11.2573 14.7972 11.2573 31.7121C11.2573 37.1349 12.6896 42.4029 15.369 47.0528L15.5771 47.414L11.4215 62.5946L27.0136 58.5166L27.361 58.7049C31.8791 61.1542 36.9577 62.456 42.1286 62.456C59.1409 62.456 73 48.659 73 31.7441C73 23.5303 69.7936 15.8174 63.968 10.021ZM10 64L14.5025 47.5521C11.7367 42.7521 10.2573 37.3121 10.2573 31.7121C10.2573 14.2401 24.5688 0.000190622 42.1286 0.000190622C46.3196 -0.0143363 50.4715 0.801578 54.3422 2.40035C58.2128 3.99912 61.7249 6.34873 64.6734 9.31216C70.6874 15.2961 74 23.2641 74 31.7441C74 49.216 59.6884 63.456 42.1286 63.456C36.7899 63.456 31.5477 62.112 26.8844 59.584L10 64ZM28.1145 55.2622L28.1085 55.2587L27.5037 54.8976L16.1994 57.8537L19.2084 46.8879L18.8018 46.2608C16.0573 41.9 14.5998 36.8589 14.596 31.7128C14.596 16.6279 26.9479 4.34418 42.0965 4.34418C49.4352 4.34418 56.3466 7.20015 61.5197 12.3796C64.0811 14.917 66.1113 17.9352 67.4924 21.2594C68.8732 24.5832 69.5777 28.1466 69.5648 31.7434C69.6296 46.8326 57.2735 59.08 42.1286 59.08C37.1895 59.08 32.3515 57.7518 28.1145 55.2622ZM68.5648 31.7441C68.5778 28.2789 67.8994 24.8455 66.5689 21.6431C65.2384 18.4407 63.2824 15.5328 60.8141 13.0882C55.8291 8.09617 49.1719 5.34418 42.0965 5.34418C27.4955 5.34418 15.596 17.1841 15.596 31.7121C15.5996 36.6697 17.0038 41.5264 19.6482 45.7281L20.2915 46.7201L17.6221 56.448L27.6563 53.824L28.6211 54.4C32.7055 56.8 37.3688 58.08 42.1286 58.08C56.7296 58.08 68.6291 46.2721 68.5648 31.7441ZM33.4816 30.5196L33.4743 30.5066C33.1417 29.9157 33.0431 29.3071 33.2564 28.7164C33.4304 28.2349 33.7823 27.8856 33.9734 27.6958C33.9806 27.6887 33.9875 27.6819 33.9942 27.6752C34.202 27.4684 34.4339 27.1892 34.6924 26.8778C34.8311 26.7109 34.9774 26.5347 35.1318 26.3554C35.4014 26.0425 35.5145 25.8167 35.7422 25.3622C35.7586 25.3294 35.7757 25.2954 35.7934 25.26C35.8395 25.1594 35.8404 25.0979 35.8357 25.0533C35.8292 24.9922 35.8044 24.9061 35.7356 24.7691C35.5187 24.3375 33.8938 20.3888 33.2599 18.8121C33.1255 18.4925 33.0082 18.308 32.9239 18.2043C32.8451 18.1073 32.7991 18.0853 32.7929 18.0824C32.7857 18.0789 32.7678 18.0706 32.7042 18.0659C32.6678 18.0632 32.6271 18.0622 32.5611 18.0614C32.556 18.0613 32.5505 18.0613 32.5447 18.0612C32.4964 18.0606 32.427 18.0598 32.3551 18.0561H30.8402C30.5259 18.0561 29.9768 18.1634 29.4585 18.7198C29.4032 18.7822 29.3416 18.8496 29.2751 18.9223C28.4729 19.7998 26.9518 21.4638 26.9518 24.6721C26.9518 26.3977 27.5905 28.1531 28.3218 29.5854C29.038 30.9881 29.7999 31.9986 29.9925 32.2541L30.0072 32.2737L30.0156 32.2855C30.0339 32.3113 30.0614 32.3511 30.0978 32.404C30.8847 33.5453 35.8615 40.7634 43.1985 43.9132L43.2056 43.9162C45.0541 44.7267 46.493 45.1937 47.6296 45.5393L47.6367 45.5415L47.6438 45.5437C49.3361 46.086 50.9012 46.0082 52.2148 45.826C52.7986 45.7406 53.8431 45.3353 54.84 44.6976C55.8639 44.0428 56.575 43.3094 56.7818 42.7126L56.7843 42.7053L56.7869 42.6981C57.0949 41.8518 57.2442 41.0824 57.293 40.5041C57.3174 40.2137 57.3152 39.9878 57.3008 39.8348C57.299 39.8157 57.2972 39.7988 57.2953 39.7839C57.2675 39.766 57.2273 39.742 57.1702 39.7118C57.0728 39.6602 56.953 39.6036 56.7908 39.5289C56.7592 39.5143 56.726 39.4991 56.6915 39.4833C56.5566 39.4214 56.4011 39.3501 56.2344 39.2704C56.0184 39.1673 55.6075 38.9681 55.1038 38.7239C53.6492 38.0188 51.4206 36.9385 50.8764 36.7119C50.7077 36.6539 50.5908 36.6173 50.4951 36.5959C50.4378 36.5831 50.4028 36.5793 50.3842 36.5782C50.3629 36.5955 50.3164 36.639 50.2485 36.7335C49.6622 37.5883 48.1384 39.3926 47.6806 39.9141C47.3545 40.3041 46.91 40.6431 46.2995 40.7135C45.7361 40.7785 45.2052 40.591 44.7404 40.3525C44.6397 40.305 44.5037 40.247 44.3361 40.1756C43.2502 39.7128 40.8387 38.6852 38.1194 36.2674C35.6191 34.0482 33.9788 31.3441 33.4894 30.5325L33.4816 30.5196ZM38.7839 35.5201C41.3688 37.8184 43.6245 38.7832 44.7268 39.2547C44.9136 39.3347 45.0674 39.4004 45.1839 39.4561C45.9879 39.8721 46.4703 39.8081 46.9206 39.2641C47.3708 38.7521 48.8824 36.9601 49.4291 36.1601C49.9759 35.3921 50.4904 35.5201 51.2301 35.7761C51.7644 35.9936 54.1324 37.1416 55.6064 37.8561C56.0844 38.0879 56.4684 38.274 56.6653 38.3681C56.8244 38.444 56.9708 38.5112 57.1052 38.5729C57.6501 38.8229 57.9963 38.9817 58.1769 39.2641C58.402 39.6161 58.402 41.1841 57.7266 43.0401C57.0834 44.8961 53.8995 46.592 52.3558 46.816C50.9729 47.008 49.2362 47.1041 47.3387 46.4961C46.1809 46.1441 44.7015 45.6641 42.804 44.8321C35.1787 41.5586 30.0521 34.1026 29.2789 32.978C29.2433 32.9263 29.217 32.888 29.2 32.8641L29.1937 32.8558C28.7842 32.3126 25.9518 28.5557 25.9518 24.6721C25.9518 21.0702 27.7039 19.1571 28.5307 18.2543C28.6 18.1786 28.6628 18.11 28.7176 18.0481C29.4573 17.2481 30.2935 17.0561 30.8402 17.0561H32.3839C32.4398 17.0598 32.4982 17.0605 32.5589 17.0613C33.0223 17.0668 33.6162 17.074 34.1849 18.4321C34.8281 20.0321 36.4362 23.9361 36.6291 24.3201C36.8221 24.7041 36.9508 25.1521 36.6935 25.6961C36.6715 25.7398 36.6503 25.7823 36.6295 25.8238C36.4071 26.2689 36.2425 26.5983 35.8894 27.0081C35.7662 27.1511 35.6364 27.3072 35.5053 27.4649C35.2258 27.8011 34.9403 28.1445 34.6995 28.3841C34.2814 28.8001 33.8955 29.2161 34.3457 30.0161C34.8281 30.8161 36.404 33.4081 38.7839 35.5201Z" fill="white"/>
</svg>
