<svg width="29" height="29" viewBox="0 0 29 29" fill="none" xmlns="http://www.w3.org/2000/svg">
<path fill-rule="evenodd" clip-rule="evenodd" d="M12.4017 0.561947C6.61761 1.62085 2.22388 5.81708 0.990748 11.4596C0.631892 13.1013 0.708271 16.0698 1.15303 17.7688C2.42479 22.6267 6.20541 26.4008 11.1321 27.7307C13.2298 28.297 16.3138 28.2593 18.3727 27.6422C19.2119 27.3909 20.303 26.9823 20.7974 26.7344C27.6489 23.301 30.4633 14.9085 27.0438 8.10809C26.265 6.55931 25.9274 6.08518 24.6485 4.74469C22.8349 2.84346 20.8134 1.62466 18.2899 0.910941C16.8659 0.508189 13.7154 0.321333 12.4017 0.561947ZM9.45989 8.35026C6.59995 8.62337 6.17649 9.21592 6.05785 13.11C5.91358 17.8491 6.20939 19.12 7.61763 19.8095C8.62613 20.3032 13.8202 20.5595 17.8071 20.3123C20.5034 20.1452 21.0804 20.0589 21.7633 19.7206C22.9712 19.1222 23.2069 18.2754 23.2213 14.4845C23.241 9.24668 22.8993 8.67091 19.5788 8.34853C17.6441 8.16064 11.4339 8.16185 9.45989 8.35026ZM12.9506 14.3214V16.8578L13.4269 16.546C13.6887 16.3747 14.6435 15.8105 15.5485 15.2923C16.4534 14.7742 17.2167 14.3319 17.2444 14.3092C17.2825 14.2785 13.9745 12.3278 13.0805 11.8537C13.0091 11.8158 12.9506 12.9262 12.9506 14.3214Z" fill="#242628"/>
</svg>
