<svg width="157" height="39" viewBox="0 0 157 39" fill="none" xmlns="http://www.w3.org/2000/svg">
<path fill-rule="evenodd" clip-rule="evenodd" d="M29.8002 0.000488281L57.377 31.5087H37.2613V29.0979L40.164 29.0518C40.562 29.0624 40.9639 28.9162 41.2688 28.6135C41.8596 28.0258 41.8622 27.0708 41.2746 26.4801L30.1485 15.3491L30.1427 15.3433C30.1334 15.334 30.1241 15.3252 30.1148 15.3163L30.113 15.315L30.0878 15.2919L30.086 15.2902L30.0851 15.2897L30.0621 15.2693L30.0572 15.2649L30.0523 15.2609L30.0315 15.2436L30.0279 15.2405L30.0262 15.2392L30.0253 15.2383L30.0053 15.2223L30 15.2184L29.9978 15.2166L29.9947 15.2139L29.9734 15.198L29.9681 15.194L29.9677 15.1935L29.9628 15.19L29.9402 15.174L29.9327 15.1692L29.9136 15.1563L29.9078 15.1528L29.9021 15.1492L29.8963 15.1457L29.8852 15.1386L29.8795 15.135L29.868 15.1279L29.8622 15.1249L29.8564 15.1213L29.8507 15.1182L29.8489 15.1173L29.8334 15.108L29.8276 15.1049L29.8161 15.0983L29.8104 15.0952L29.8046 15.0921L29.7988 15.089V0.00181772L29.8002 0.000488281Z" fill="#696969"/>
<path fill-rule="evenodd" clip-rule="evenodd" d="M28.3376 0.00044326L0.760742 31.5086H20.9071V29.1275H17.9334C17.098 29.1275 16.4204 28.4499 16.4204 27.6145C16.4204 27.1568 16.6234 26.7468 16.9443 26.4694L28.0092 15.3486L28.0332 15.3251L28.0372 15.3211L28.0376 15.3207C28.0465 15.3118 28.0558 15.3034 28.0651 15.295L28.0664 15.2941C28.0748 15.2866 28.0828 15.2795 28.0912 15.2724L28.0943 15.2697L28.0961 15.2679C28.1045 15.2609 28.1125 15.2538 28.1209 15.2467L28.1236 15.2445L28.1262 15.2427L28.1515 15.2223L28.1533 15.2205L28.1564 15.2179L28.1767 15.2024L28.1816 15.1984L28.183 15.1975L28.1869 15.1948L28.2091 15.1789L28.218 15.1722L28.2233 15.1687L28.2392 15.158L28.2446 15.1545L28.2499 15.151L28.2658 15.1403L28.2711 15.1372L28.276 15.1341L28.2769 15.1337L28.2822 15.1306L28.2986 15.1208L28.3039 15.1177L28.3048 15.1168L28.3115 15.1128L28.3367 15.0982V0L28.3376 0.00044326Z" fill="#302F2F"/>
<path fill-rule="evenodd" clip-rule="evenodd" d="M29.0782 16.4127L40.2044 27.5442L35.7479 27.6151V38.3906H22.4192V27.6151H17.9326L29.0782 16.4127Z" fill="#FF5E14"/>
<path d="M64.6562 31.4684V27.5889L75.6663 11.8951H65.1163V7.38635H82.3013V11.2658L71.1925 26.9597H82.3013V31.4684H64.6562ZM84.7711 23.2956C84.7711 22.0374 85.01 20.8604 85.4819 19.7711C85.9539 18.6875 86.577 17.7848 87.3636 17.074C88.1502 16.3631 89.0357 15.8043 90.0257 15.4023C91.0162 15.0004 92.0355 14.7965 93.084 14.7965C93.5267 14.7965 93.9987 14.8431 94.5052 14.9419C95.0122 15.0349 95.6003 15.2623 96.2646 15.6057C96.9289 15.9554 97.4589 16.4039 97.8432 16.9632V15.1457H102.632V31.4684H97.8432V29.6102C97.3769 30.3153 96.6608 30.8569 95.6996 31.2238C94.7383 31.5965 93.8644 31.7831 93.084 31.7831C91.6685 31.7831 90.3404 31.4449 89.088 30.7753C87.8356 30.1052 86.8043 29.1095 85.9889 27.7986C85.1793 26.4819 84.7715 24.9849 84.7715 23.2956H84.7711ZM91.0392 20.5111C90.218 21.245 89.8041 22.1712 89.8041 23.2956C89.8041 24.4256 90.2176 25.3518 91.0392 26.08C91.8666 26.8081 92.8159 27.1693 93.8821 27.1693C94.9422 27.1693 95.8684 26.8139 96.655 26.103C97.4474 25.3922 97.8432 24.4602 97.8432 23.2951C97.8432 22.1243 97.447 21.1861 96.655 20.4757C95.8689 19.7649 94.9422 19.4094 93.8821 19.4094C92.8159 19.4094 91.8666 19.7764 91.0392 20.5103V20.5111ZM107.135 31.4689V15.1462H111.958V19.0664C112.343 17.6625 112.977 16.6024 113.851 15.8801C114.731 15.1577 115.634 14.7965 116.566 14.7965C117.661 14.7965 118.593 14.9946 119.368 15.3851L118.494 19.7307C117.824 19.3988 116.991 19.2357 116.001 19.2357C114.614 19.2357 113.595 19.7773 112.937 20.8608C112.284 21.9443 111.958 23.5756 111.958 25.7542V31.4689H107.135ZM120.661 23.2552C120.661 21.5951 121.045 20.1154 121.814 18.8103C122.583 17.5114 123.608 16.5151 124.89 15.8278C126.172 15.1404 127.581 14.797 129.119 14.797C130.657 14.797 132.067 15.1404 133.348 15.834C134.636 16.5271 135.666 17.5291 136.447 18.84C137.222 20.1566 137.612 21.6244 137.612 23.2557C137.612 24.887 137.222 26.3605 136.447 27.6829C135.667 29.0053 134.636 30.0131 133.348 30.7062C132.067 31.3993 130.657 31.7489 129.119 31.7489C127.581 31.7489 126.172 31.405 124.89 30.7177C123.608 30.0246 122.583 29.0284 121.814 27.7237C121.046 26.419 120.661 24.9335 120.661 23.2557V23.2552ZM125.449 23.2552C125.449 24.3388 125.805 25.2242 126.516 25.9058C127.226 26.5874 128.094 26.9251 129.12 26.9251C130.168 26.9251 131.048 26.5874 131.759 25.9116C132.469 25.2357 132.825 24.3503 132.825 23.2552C132.825 22.1947 132.464 21.3213 131.747 20.6397C131.031 19.9581 130.157 19.6204 129.12 19.6204C128.095 19.6204 127.227 19.9581 126.516 20.6397C125.805 21.3213 125.45 22.1947 125.45 23.2552H125.449ZM141.096 31.4689V15.1462H145.92V17.5752C146.357 16.742 147.009 16.0724 147.889 15.5597C148.762 15.0531 149.683 14.7965 150.656 14.7965C152.532 14.7965 153.994 15.385 155.042 16.5559C156.091 17.7267 156.615 19.4511 156.615 21.7228V31.4684H151.792V22.8351C151.792 21.7981 151.53 21 151.011 20.4469C150.487 19.8934 149.799 19.6195 148.943 19.6195C146.928 19.6195 145.92 20.7146 145.92 22.9051V31.4684H141.097L141.096 31.4689Z" fill="#2B2A29"/>
</svg>
